<svg xmlns="http://www.w3.org/2000/svg" width="147" height="44" viewBox="0 0 147 44" fill="none">
  <g clip-path="url(#clip0_20_4514)" filter="url(#filter0_d_20_4514)">
    <path d="M43.5366 6.72321C43.0147 6.72321 42.5241 6.9164 42.1631 7.2371L40.1657 8.91404C39.7732 9.23474 39.5456 9.68682 39.4789 10.2046L36.6967 29.2768H40.9191L41.704 24.0258H48.5753L49.3287 29.2768H53.5512L52.6683 23.025L50.8042 10.2046C50.7375 9.69068 50.4785 9.23861 50.0861 8.91404L48.124 7.2371C47.7316 6.9164 47.2411 6.72321 46.7505 6.72321H43.5444H43.5366ZM44.3214 10.846H45.9578L46.7427 11.5222L47.9513 19.8991H42.2926L43.5013 11.5222L44.3175 10.846H44.3214Z" fill="white"/>
    <path d="M69.0911 10.8498V6.72705H54.2026V10.8498H59.5357V29.2768H63.7228V10.8498H69.0872H69.0911Z" fill="white"/>
    <path d="M75.7977 6.72321C75.2404 6.72321 74.7185 6.94731 74.3261 7.3337L72.3286 9.30043C71.9362 9.68682 71.7086 10.2007 71.7086 10.7494V25.2468C71.7086 25.7954 71.9362 26.3093 72.3286 26.6957L74.3261 28.6625C74.7185 29.0488 75.2404 29.273 75.7977 29.273H83.1595C83.7168 29.273 84.2387 29.0488 84.6311 28.6625L86.6599 26.6957C87.0523 26.3093 87.2486 25.7954 87.2486 25.2468V21.1858H83.0614V24.3735L82.308 25.1463H76.6806L75.8958 24.3735V11.6226L76.6806 10.8499H82.308L83.0614 11.6226V14.8104H87.2486V10.7494C87.2486 10.2007 87.0523 9.68682 86.6599 9.30043L84.6311 7.3337C84.2387 6.94731 83.7168 6.72321 83.1595 6.72321H75.7977Z" fill="white"/>
    <path d="M106.061 29.2768V6.72321H101.874V15.9386H94.7085V6.72321H90.5214V29.273H94.7085V20.0575H101.874V29.273H106.061V29.2768Z" fill="white"/>
    <path d="M123.532 10.8498V6.72705H109.985V29.2768H123.532V25.154H114.173V20.0653H123.532V15.9425H114.173V10.8537H123.532V10.8498Z" fill="white"/>
    <path d="M127.46 6.72321V29.273H131.647V21.379H135.736L136.521 21.9586L138.648 29.273H143L140.512 20.641L142.411 18.8056C142.804 18.4192 143 17.9053 143 17.3567V10.7533C143 10.2046 142.804 9.69068 142.411 9.30429L140.383 7.33757C139.99 6.95118 139.468 6.72707 138.911 6.72707H127.46V6.72321ZM131.647 10.846H138.059L138.813 11.6188V16.4834L138.059 17.2562H131.647V10.846Z" fill="white"/>
    <path fill-rule="evenodd" clip-rule="evenodd" d="M34.1694 27.0242C34.1773 27.1207 34.1851 27.2212 34.1891 27.3217C34.193 27.4221 34.1969 27.5187 34.1969 27.6192C34.1969 27.7197 34.1969 27.8162 34.1969 27.9167C34.1969 28.0172 34.1891 28.1138 34.1812 28.2142C34.1734 28.3108 34.1655 28.4113 34.1538 28.5079C34.142 28.6045 34.1302 28.7049 34.1145 28.8015C34.0988 28.8981 34.0831 28.9947 34.0635 29.0952C34.0439 29.1918 34.0243 29.2884 34.0007 29.385C33.9772 29.4816 33.9536 29.5782 33.9261 29.6709C33.8987 29.7675 33.8712 29.8603 33.8398 29.9569C33.8084 30.0496 33.777 30.1462 33.7417 30.2389C33.7064 30.3317 33.6711 30.4244 33.6358 30.5171C33.5965 30.6099 33.5573 30.6987 33.518 30.7876C33.4749 30.8765 33.4317 30.9653 33.3885 31.0542C33.3454 31.1431 33.2983 31.2281 33.2473 31.3169C33.2002 31.402 33.1492 31.487 33.0981 31.572C33.0471 31.657 32.9922 31.7381 32.9372 31.8231C32.8823 31.9043 32.8234 31.9854 32.7646 32.0665C32.7057 32.1477 32.6468 32.225 32.5841 32.3022C32.5213 32.3795 32.4585 32.4568 32.3957 32.5302C32.329 32.6036 32.2662 32.6809 32.1956 32.7505C32.1289 32.8239 32.0582 32.8934 31.9876 32.963C31.9169 33.0325 31.8463 33.1021 31.7717 33.1678C31.6972 33.2334 31.6226 33.2991 31.5481 33.3648C31.4735 33.4305 31.395 33.4923 31.3165 33.5541C31.2381 33.616 31.1596 33.6739 31.0772 33.7319C30.9948 33.7898 30.9123 33.8478 30.8299 33.9019C30.7475 33.956 30.6612 34.0101 30.5749 34.0603C30.4885 34.1106 30.4022 34.1608 30.3159 34.211C30.2295 34.2574 30.1393 34.3076 30.049 34.3501C29.9588 34.3965 29.8685 34.439 29.7782 34.4776C29.688 34.5201 29.5938 34.5588 29.5035 34.5974C27.2039 35.5325 24.5198 36 21.451 36C18.3823 36 16.0395 35.6484 13.9793 34.9413C11.2991 34.0217 9.13681 32.5109 7.49649 30.4089C6.09946 28.6161 5.13803 26.5605 4.60826 24.246C4.20406 22.4647 4 20.3898 4 18.0135C4 15.6372 4.20014 13.5662 4.60433 11.781C5.13018 9.45111 6.09554 7.38779 7.49649 5.58721C10.4161 1.8624 14.98 0 21.1881 0C22.3811 0 23.7192 0.108189 25.2026 0.320704C27.0038 0.579586 28.4911 0.962112 29.6644 1.46828C29.7625 1.51079 29.8607 1.55329 29.9548 1.59966C30.049 1.64602 30.1471 1.69625 30.2413 1.74648C30.3355 1.79672 30.4257 1.85081 30.5199 1.9049C30.6102 1.959 30.7004 2.01696 30.7907 2.07105C30.8809 2.12901 30.9673 2.18697 31.0536 2.24879C31.1399 2.31062 31.2263 2.37244 31.3087 2.43812C31.3911 2.50381 31.4735 2.5695 31.5559 2.63905C31.6383 2.7086 31.7168 2.77815 31.7953 2.8477C31.8738 2.92111 31.9483 2.99453 32.0229 3.06794C32.0975 3.14135 32.172 3.21863 32.2427 3.29591C32.3133 3.37319 32.3839 3.45433 32.4506 3.53547C32.5174 3.61661 32.5841 3.69776 32.6508 3.78276C32.7136 3.86777 32.7764 3.95277 32.8391 4.03778C32.9019 4.12279 32.9608 4.21166 33.0157 4.30053C33.0746 4.3894 33.1295 4.47827 33.1805 4.571C33.2355 4.66373 33.2865 4.7526 33.3336 4.8492C33.3807 4.9458 33.4317 5.03467 33.4749 5.13127C33.522 5.22786 33.5651 5.3206 33.6044 5.42106C33.6475 5.51766 33.6868 5.61425 33.7221 5.71472C33.7574 5.81518 33.7927 5.91177 33.828 6.01224C33.8594 6.1127 33.8908 6.21316 33.9183 6.31362C33.9458 6.41408 33.9732 6.51841 33.9968 6.61887C34.0203 6.71933 34.0439 6.82366 34.0635 6.92798C34.0831 7.03231 34.0988 7.13663 34.1145 7.23709C34.1302 7.34142 34.142 7.44574 34.1538 7.55007C34.1655 7.6544 34.1734 7.75872 34.1812 7.86305C34.1891 7.96737 34.193 8.0717 34.193 8.17989C34.193 8.28421 34.193 8.38854 34.193 8.49673C34.193 8.60105 34.1851 8.70538 34.1773 8.81357C34.1695 8.91789 34.1616 9.02222 34.1498 9.12654C34.1381 9.23087 34.1224 9.33519 34.1067 9.43952C34.091 9.54385 34.0713 9.64817 34.0517 9.74863L33.0707 14.6674C33.0118 14.9688 32.9333 15.2663 32.8352 15.5561C32.7371 15.8497 32.6233 16.1318 32.4899 16.41C32.3565 16.6882 32.2073 16.9548 32.0425 17.2176C31.9954 17.2948 31.9444 17.3683 31.8895 17.4455C31.9287 17.4919 31.968 17.5383 32.0072 17.5846C32.1838 17.801 32.3486 18.0251 32.5017 18.257C32.6547 18.4888 32.792 18.7283 32.9176 18.9795C33.0432 19.2268 33.1531 19.4818 33.2473 19.7407C33.4749 20.3512 33.6161 20.981 33.675 21.6301L34.1655 27.028L34.1694 27.0242ZM32.6743 27.1555L32.1838 21.7576C32.1367 21.236 32.0229 20.7337 31.8424 20.243C31.7639 20.0343 31.6776 19.8296 31.5755 19.6325C31.4774 19.4354 31.3636 19.2422 31.242 19.0529C31.1203 18.8674 30.9869 18.6858 30.8456 18.5158C30.7044 18.342 30.5513 18.1797 30.3904 18.0251C30.3747 18.0097 30.359 17.9942 30.3433 17.9749C30.3276 17.9556 30.3159 17.9401 30.3002 17.9208C30.2884 17.9015 30.2727 17.8822 30.2648 17.8628C30.2531 17.8435 30.2413 17.8242 30.2335 17.801C30.2256 17.7817 30.2138 17.7585 30.206 17.7392C30.1981 17.716 30.1903 17.6967 30.1864 17.6735C30.1824 17.6503 30.1746 17.6271 30.1746 17.6078C30.1746 17.5846 30.1707 17.5614 30.1667 17.5383C30.1667 17.5151 30.1667 17.4919 30.1667 17.4687C30.1667 17.4455 30.1667 17.4223 30.1746 17.3992C30.1746 17.376 30.1824 17.3528 30.1864 17.3335C30.1903 17.3103 30.1981 17.291 30.206 17.2678C30.2138 17.2446 30.2217 17.2253 30.2295 17.2021C30.2374 17.1828 30.2491 17.1596 30.2609 17.1403C30.2727 17.121 30.2845 17.1016 30.2962 17.0823C30.308 17.063 30.3237 17.0437 30.3394 17.0282C30.4964 16.8389 30.6455 16.638 30.7789 16.4293C30.9123 16.2207 31.034 16.0043 31.1399 15.784C31.2459 15.5599 31.3401 15.332 31.4186 15.1001C31.4971 14.8644 31.5598 14.6287 31.6069 14.3853L32.588 9.46657C32.6037 9.38542 32.6194 9.30042 32.6312 9.21928C32.6429 9.13427 32.6547 9.05313 32.6665 8.96812C32.6743 8.88312 32.6822 8.80198 32.69 8.71697C32.6939 8.63196 32.6979 8.54696 32.7018 8.46582C32.7018 8.38081 32.7018 8.2958 32.7018 8.21466C32.7018 8.12966 32.6979 8.04465 32.69 7.96351C32.6861 7.8785 32.6782 7.7935 32.6704 7.71235C32.6625 7.62735 32.6508 7.54621 32.639 7.4612C32.6272 7.37619 32.6115 7.29505 32.5958 7.21005C32.5801 7.1289 32.5605 7.0439 32.5448 6.96276C32.5252 6.88161 32.5056 6.80047 32.482 6.71933C32.4585 6.63819 32.4349 6.55705 32.4075 6.4759C32.38 6.39476 32.3525 6.31748 32.3251 6.23634C32.2937 6.15906 32.2623 6.07792 32.2309 6.00064C32.1995 5.92337 32.1642 5.84609 32.1249 5.76881C32.0896 5.69153 32.0504 5.61812 32.0111 5.54084C31.9719 5.46743 31.9287 5.39401 31.8855 5.3206C31.8424 5.24718 31.7992 5.17377 31.7521 5.10422C31.705 5.03467 31.6579 4.96125 31.6109 4.8917C31.5638 4.82215 31.5128 4.7526 31.4578 4.68692C31.4068 4.62123 31.3519 4.55554 31.2969 4.48986C31.242 4.42417 31.187 4.36235 31.1282 4.29666C31.0693 4.23484 31.0104 4.17302 30.9516 4.11119C30.8927 4.04937 30.8299 3.99141 30.7671 3.93346C30.7044 3.8755 30.6416 3.8214 30.5749 3.76344C30.5081 3.70935 30.4454 3.65525 30.3747 3.60116C30.308 3.55093 30.2374 3.49683 30.1707 3.45047C30.1 3.40024 30.0294 3.35387 29.9588 3.3075C29.8881 3.26114 29.8136 3.21477 29.7429 3.17227C29.6684 3.12976 29.5938 3.08726 29.5192 3.04476C29.4447 3.00612 29.3662 2.96748 29.2916 2.92884C29.2132 2.8902 29.1386 2.85543 29.0601 2.82065C28.0123 2.36471 26.6546 2.02082 24.9868 1.78126C23.574 1.58034 22.3104 1.47601 21.1881 1.47601C15.4705 1.47601 11.303 3.14908 8.68553 6.49136C7.42193 8.1142 6.55075 9.98433 6.07199 12.1017C5.69134 13.7825 5.50298 15.7531 5.50298 18.0135C5.50298 20.2739 5.69527 22.2445 6.07592 23.9214C6.55467 26.0234 7.42585 27.8858 8.68945 29.5086C10.1453 31.3788 12.0761 32.7234 14.4738 33.5464C16.3731 34.1956 18.7002 34.5201 21.451 34.5201C24.2019 34.5201 26.8155 34.0912 28.9306 33.2296C29.0052 33.1987 29.0797 33.1678 29.1504 33.133C29.2249 33.0982 29.2956 33.0634 29.3662 33.0287C29.4368 32.9939 29.5075 32.9552 29.5781 32.9166C29.6487 32.878 29.7194 32.8393 29.7861 32.7968C29.8528 32.7543 29.9234 32.7118 29.9902 32.6693C30.0569 32.6268 30.1236 32.5804 30.1864 32.5341C30.2531 32.4877 30.3159 32.4413 30.3786 32.3911C30.4414 32.3409 30.5042 32.2907 30.5631 32.2404C30.6259 32.1902 30.6847 32.1361 30.7436 32.082C30.8025 32.0279 30.8613 31.9738 30.9163 31.9159C30.9712 31.8579 31.0301 31.8038 31.085 31.7458C31.1399 31.6879 31.191 31.6299 31.2459 31.5681C31.2969 31.5063 31.3479 31.4445 31.3989 31.3826C31.45 31.3208 31.4971 31.2551 31.5441 31.1933C31.5912 31.1276 31.6383 31.0619 31.6815 30.9962C31.7247 30.9306 31.7678 30.8649 31.811 30.7953C31.8542 30.7258 31.8934 30.6601 31.9326 30.5905C31.9719 30.521 32.0111 30.4514 32.0464 30.3819C32.0818 30.3123 32.1171 30.2389 32.1524 30.1655C32.1838 30.0921 32.2191 30.0187 32.2466 29.9491C32.278 29.8757 32.3054 29.8023 32.3329 29.7289C32.3604 29.6555 32.3879 29.5782 32.4114 29.5048C32.4349 29.4275 32.4585 29.3541 32.4781 29.2768C32.4977 29.1995 32.5174 29.1222 32.537 29.045C32.5566 28.9677 32.5723 28.8904 32.588 28.8131C32.6037 28.7359 32.6155 28.6586 32.6272 28.5774C32.639 28.5002 32.6508 28.419 32.6586 28.3417C32.6665 28.2645 32.6743 28.1833 32.6782 28.106C32.6822 28.0288 32.6861 27.9476 32.69 27.8703C32.69 27.7931 32.69 27.7119 32.69 27.6308C32.69 27.5496 32.69 27.4724 32.6822 27.3912C32.6782 27.3139 32.6743 27.2328 32.6665 27.1555H32.6743Z" fill="white"/>
    <path fill-rule="evenodd" clip-rule="evenodd" d="M26.6075 27.6694L26.1169 22.2715C24.6807 22.7854 23.0364 23.0443 21.1881 23.0443C20.3169 23.0443 19.4575 22.9593 18.6099 22.7854V14.366C18.6099 13.7246 18.8375 13.2957 19.2966 13.0793C19.7518 12.8668 20.5681 12.7586 21.7453 12.7586C22.9226 12.7586 24.2137 12.9093 25.6303 13.2068L26.6114 8.28806C26.0659 8.05237 25.234 7.85531 24.1156 7.69302C22.9932 7.53074 22.02 7.45346 21.1959 7.45346C17.4758 7.45346 14.9172 8.34216 13.5241 10.1196C12.806 11.0392 12.3037 12.1288 12.0211 13.3807C11.7386 14.6326 11.5973 16.1704 11.5973 17.9942C11.5973 19.818 11.7386 21.3481 12.0211 22.5884C12.3037 23.8326 12.806 24.9144 13.5241 25.8341C14.2422 26.7537 15.2272 27.4298 16.479 27.8587C17.7309 28.2876 19.3908 28.5002 21.4549 28.5002C23.5191 28.5002 25.2418 28.2219 26.6114 27.6655L26.6075 27.6694Z" fill="#00DDA8"/>
  </g>
  <defs>
    <filter id="filter0_d_20_4514" x="0" y="0" width="147" height="44" filterUnits="userSpaceOnUse" color-interpolation-filters="sRGB">
      <feFlood flood-opacity="0" result="BackgroundImageFix"/>
      <feColorMatrix in="SourceAlpha" type="matrix" values="0 0 0 0 0 0 0 0 0 0 0 0 0 0 0 0 0 0 127 0" result="hardAlpha"/>
      <feOffset dy="4"/>
      <feGaussianBlur stdDeviation="2"/>
      <feColorMatrix type="matrix" values="0 0 0 0 0 0 0 0 0 0 0 0 0 0 0 0 0 0 0.25 0"/>
      <feBlend mode="normal" in2="BackgroundImageFix" result="effect1_dropShadow_20_4514"/>
      <feBlend mode="normal" in="SourceGraphic" in2="effect1_dropShadow_20_4514" result="shape"/>
    </filter>
    <clipPath id="clip0_20_4514">
      <rect width="145" height="50" fill="white" transform="translate(4)"/>
    </clipPath>
  </defs>
</svg>