<svg width="35" height="38" viewBox="0 0 35 38" fill="none" xmlns="http://www.w3.org/2000/svg">
<g id="Vector" filter="url(#filter0_d_619_60)">
<path d="M7.88462 23.5999H8.88462V22.5999V14.9999C8.88462 10.6154 11.8776 6.99799 15.7915 6.17855L16.6679 5.99504L16.5819 5.1037C16.568 4.95912 16.5834 4.81349 16.6266 4.67676C16.6698 4.54008 16.7393 4.41699 16.8284 4.31457C16.9174 4.21226 17.0237 4.13312 17.139 4.0799C17.2541 4.02675 17.377 4 17.5 4C17.623 4 17.7459 4.02675 17.861 4.0799C17.9763 4.13312 18.0826 4.21226 18.1716 4.31457L18.9203 3.66333L18.1716 4.31457C18.2607 4.41699 18.3302 4.54008 18.3734 4.67676C18.4166 4.81349 18.432 4.95912 18.4181 5.1037L18.3322 5.99318L19.2065 6.17812C21.1448 6.58815 22.8956 7.68386 24.1578 9.28994C25.4206 10.8967 26.1147 12.9137 26.1154 14.9999C26.1154 15 26.1154 15.0001 26.1154 15.0002V22.5999V23.5999H27.1154H28.8462C28.874 23.5999 28.9091 23.6111 28.9412 23.6445L29.662 22.9514L28.9412 23.6445C28.9746 23.6793 29 23.7345 29 23.7999C29 23.8654 28.9746 23.9206 28.9412 23.9554L29.662 24.6485L28.9412 23.9554C28.9091 23.9888 28.874 23.9999 28.8462 23.9999H27.1154H6.15385C6.12598 23.9999 6.09094 23.9888 6.05879 23.9554L5.33795 24.6485L6.05879 23.9554C6.02536 23.9206 6 23.8654 6 23.7999C6 23.7345 6.02536 23.6793 6.05879 23.6445L5.3395 22.9529L6.05879 23.6445C6.09094 23.6111 6.12598 23.5999 6.15385 23.5999H7.88462ZM20.1833 28C20.0404 28.4256 19.8072 28.8145 19.4988 29.1353C18.9618 29.6939 18.2419 30 17.5 30C16.7581 30 16.0382 29.6939 15.5012 29.1353C15.1928 28.8145 14.9596 28.4256 14.8167 28H20.1833Z" stroke="#666666" stroke-width="2" shape-rendering="crispEdges"/>
</g>
<defs>
<filter id="filter0_d_619_60" x="0" y="0" width="35" height="38" filterUnits="userSpaceOnUse" color-interpolation-filters="sRGB">
<feFlood flood-opacity="0" result="BackgroundImageFix"/>
<feColorMatrix in="SourceAlpha" type="matrix" values="0 0 0 0 0 0 0 0 0 0 0 0 0 0 0 0 0 0 127 0" result="hardAlpha"/>
<feOffset dy="2"/>
<feGaussianBlur stdDeviation="2.5"/>
<feComposite in2="hardAlpha" operator="out"/>
<feColorMatrix type="matrix" values="0 0 0 0 0 0 0 0 0 0 0 0 0 0 0 0 0 0 0.25 0"/>
<feBlend mode="normal" in2="BackgroundImageFix" result="effect1_dropShadow_619_60"/>
<feBlend mode="normal" in="SourceGraphic" in2="effect1_dropShadow_619_60" result="shape"/>
</filter>
</defs>
</svg>
