<svg width="25" height="23" viewBox="0 0 25 23" fill="none" xmlns="http://www.w3.org/2000/svg">
<path d="M24.9929 6.86864H24.9919C24.9954 6.78118 24.9985 6.69371 24.9985 6.60573C24.9985 3.06739 22.0683 0 18.453 0C15.8099 0 13.5342 1.73269 12.501 3.94046H12.4995C11.4663 1.73269 9.19065 0 6.54754 0C2.93225 0 0.0015039 3.06739 0.0015039 6.60573C0.0015039 6.69371 0.00455306 6.78118 0.00811041 6.86864H0.00709402C0.00709402 6.86864 -0.362362 11.072 4.23119 15.6614C6.31987 17.7926 8.65552 19.8177 12.5 23C16.3445 19.8177 18.6801 17.7926 20.7688 15.6614C25.3624 11.072 24.9929 6.86864 24.9929 6.86864Z" fill="#FFA4A4" fill-opacity="0.46"/>
</svg>
