<svg width="17" height="15" viewBox="0 0 17 15" fill="none" xmlns="http://www.w3.org/2000/svg">
<path d="M16.995 4.47955H16.9943C16.9967 4.42251 16.9988 4.36547 16.9988 4.30809C16.9988 2.00047 15.0062 0 12.5478 0C10.7504 0 9.20292 1.13001 8.50036 2.56987H8.49932C7.79677 1.13001 6.24927 0 4.45192 0C1.99348 0 0.000534388 2.00047 0.000534388 4.30809C0.000534388 4.36547 0.00260785 4.42251 0.0050269 4.47955H0.00433574C0.00433574 4.47955 -0.246899 7.22087 2.87678 10.214C4.2971 11.6039 5.88538 12.9246 8.49967 15C11.114 12.9246 12.7022 11.6039 14.1226 10.214C17.2462 7.22087 16.995 4.47955 16.995 4.47955Z" fill="#FFA4A4" fill-opacity="0.46"/>
</svg>
