<svg width="68" height="61" viewBox="0 0 68 61" fill="none" xmlns="http://www.w3.org/2000/svg">
<path d="M67.9805 18.2168H67.9777C67.9874 17.9849 67.9957 17.7529 67.9957 17.5196C67.9957 8.13525 60.0253 0 50.1916 0C43.0022 0 36.8122 4.59538 34.0019 10.4508H33.9978C31.1876 4.59538 24.9976 0 17.8082 0C7.97441 0 0.00262583 8.13525 0.00262583 17.5196C0.00262583 17.7529 0.0109197 17.9849 0.0205959 18.2168H0.0178313C0.0178313 18.2168 -0.987109 29.3649 11.5076 41.5369C17.1889 47.1891 23.542 52.56 33.9992 61C44.4564 52.56 50.8095 47.1891 56.4907 41.5369C68.9855 29.3649 67.9805 18.2168 67.9805 18.2168Z" fill="#A2FFA0" fill-opacity="0.8"/>
</svg>
