<svg width="33" height="30" viewBox="0 0 33 30" fill="none" xmlns="http://www.w3.org/2000/svg">
<path d="M32.9903 8.95909H32.9889C32.9936 8.84501 32.9977 8.73093 32.9977 8.61617C32.9977 4.00094 29.1297 0 24.3574 0C20.8684 0 17.8645 2.26002 16.5007 5.13973H16.4987C15.1349 2.26002 12.1309 0 8.64193 0C3.86967 0 0.00100862 4.00094 0.00100862 8.61617C0.00100862 8.73093 0.00503358 8.84501 0.00972937 8.95909H0.00838772C0.00838772 8.95909 -0.479304 14.4417 5.5843 20.428C8.3414 23.2078 11.4245 25.8492 16.4993 30C21.5741 25.8492 24.6573 23.2078 27.4144 20.428C33.478 14.4417 32.9903 8.95909 32.9903 8.95909Z" fill="#FFA4A4" fill-opacity="0.46"/>
</svg>
