<svg width="51" height="46" viewBox="0 0 51 46" fill="none" xmlns="http://www.w3.org/2000/svg">
<path d="M50.9853 13.7373H50.9832C50.9904 13.5624 50.9967 13.3874 50.9967 13.2115C50.9967 6.13478 45.0189 0 37.6435 0C32.2515 0 27.609 3.46537 25.5013 7.88092H25.4982C23.3905 3.46537 18.7481 0 13.356 0C5.98069 0 0.00184731 6.13478 0.00184731 13.2115C0.00184731 13.3874 0.0080677 13.5624 0.0153248 13.7373H0.0132514C0.0132514 13.7373 -0.740454 22.144 8.63058 31.3229C12.8915 35.5853 17.6564 39.6354 25.4993 46C33.3421 39.6354 38.107 35.5853 42.3679 31.3229C51.739 22.144 50.9853 13.7373 50.9853 13.7373Z" fill="#FFA4A4" fill-opacity="0.46"/>
</svg>
