<svg width="85" height="76" viewBox="0 0 85 76" fill="none" xmlns="http://www.w3.org/2000/svg">
<path d="M84.9755 22.6964H84.9721C84.9842 22.4074 84.9945 22.1184 84.9945 21.8276C84.9945 10.1357 75.0315 0 62.7393 0C53.7526 0 46.0151 5.72539 42.5023 13.0207H42.4971C38.9843 5.72539 31.2468 0 22.2601 0C9.96789 0 0.00316022 10.1357 0.00316022 21.8276C0.00316022 22.1184 0.0135276 22.4074 0.0256228 22.6964H0.022167C0.022167 22.6964 -1.23401 36.5858 14.3844 51.7509C21.486 58.793 29.4274 65.4846 42.4988 76C55.5703 65.4846 63.5117 58.793 70.6133 51.7509C86.2317 36.5858 84.9755 22.6964 84.9755 22.6964Z" fill="#ACFFAF" fill-opacity="0.9"/>
</svg>
