<svg width="18" height="18" viewBox="0 0 18 18" fill="none" xmlns="http://www.w3.org/2000/svg">
<g id="&#240;&#159;&#166;&#134; emoji &#34;North-East facing airplane&#34;">
<path id="Vector" d="M2.23535 3.3165L4.5665 0.985352L5.1341 1.55295L2.80295 3.8841L2.23535 3.3165ZM6.30856 3.90273L8.63999 1.57215L9.20759 2.13975L6.87615 4.47032L6.30856 3.90273ZM14.3033 15.3856L16.635 13.055L17.2026 13.6229L14.8709 15.9535L14.3033 15.3856ZM13.7211 11.2872L16.0528 8.95661L16.6204 9.52449L14.2884 11.8551L13.7211 11.2872Z" fill="#ACB8BF"/>
<path id="Vector_2" d="M16.3364 17.0614L14.9891 4.99287L13.1831 3.18688L1.11456 1.83956C0.541228 1.78223 0.655894 3.21555 1.31522 3.53088L10.4025 7.7735L14.6451 16.8607C14.9604 17.5201 16.3937 17.6347 16.3364 17.0614Z" fill="#42ADE2"/>
<path id="Vector_3" d="M17.7395 1.9834C18.3701 0.750747 17.4241 -0.195243 16.1915 0.435417C14.6148 1.23808 12.2928 3.04406 9.9422 5.36603C6.2729 9.03533 3.92226 12.676 4.69625 13.4786C5.47024 14.2526 9.13954 11.902 12.8088 8.23267C15.1308 5.91069 16.9368 3.56005 17.7395 1.9834Z" fill="#DAE3EA"/>
<path id="Vector_4" d="M6.59016 16.919L6.1315 12.6764L5.50084 12.0457L1.25821 11.5871C1.05755 11.5584 1.08622 12.0744 1.31555 12.1891L4.49752 13.6797L5.98817 16.8617C6.10283 17.091 6.61883 17.1197 6.59016 16.919Z" fill="#42ADE2"/>
<path id="Vector_5" d="M5.95841 12.9052C4.66843 14.1952 3.4931 15.0838 3.32111 14.8832C3.14911 14.7112 4.03776 13.5072 5.29909 12.2172C6.58907 10.9272 7.76439 10.0386 7.96506 10.2392C8.10839 10.4112 7.21973 11.6152 5.95841 12.9052Z" fill="#ACB8BF"/>
<path id="Vector_6" d="M17.3107 2.44206C17.4541 1.92607 17.3967 1.43874 17.0814 1.09474C16.7661 0.779413 16.2501 0.693414 15.7627 0.865412L14.7881 1.46741C15.2754 1.29541 15.9921 1.5534 16.3074 1.86873C16.6514 2.21273 16.8807 2.90072 16.7087 3.38805L17.3107 2.44206Z" fill="#3E4347"/>
<path id="Vector_7" d="M15.5508 2.44059L17.1716 0.818359L17.3542 1.00068L15.7331 2.62319L15.5508 2.44059Z" fill="#DAE3EA"/>
</g>
</svg>
