<svg width="20" height="19" viewBox="0 0 20 19" fill="none" xmlns="http://www.w3.org/2000/svg">
<g id="star-struck" clip-path="url(#clip0_1007_1024)">
<g id="gold">
<path id="face" d="M10.0705 16.2164C6.08216 16.2164 1.7793 13.7148 1.7793 8.2254C1.7793 2.73604 6.08216 0.234375 10.0705 0.234375C12.2863 0.234375 14.3305 0.963431 15.8458 2.29289C17.4897 3.751 18.3617 5.80951 18.3617 8.2254C18.3617 10.6413 17.4897 12.6855 15.8458 14.1436C14.3305 15.4731 12.272 16.2164 10.0705 16.2164Z" fill="url(#paint0_radial_1007_1024)"/>
<path id="Vector" d="M16.9168 3.47559C17.6787 4.70497 18.0761 6.1688 18.0761 7.79703C18.0761 10.2129 17.2041 12.2571 15.5602 13.7152C14.0449 15.0447 11.9864 15.7881 9.7849 15.7881C7.20318 15.7881 4.49567 14.7374 2.89746 12.5087C4.43563 15.0333 7.32898 16.2169 10.0708 16.2169C12.2723 16.2169 14.3308 15.4736 15.8461 14.1441C17.49 12.686 18.362 10.6418 18.362 8.22589C18.362 6.40468 17.866 4.78646 16.9168 3.47559Z" fill="#EB8F00"/>
</g>
<g id="facial_expressions">
<g id="grinning-face-with-star-eyes">
<g id="eyes">
<path id="Vector_2" d="M14.69 2.68307L13.5379 4.21266C13.4807 4.28699 13.392 4.32988 13.2977 4.32559L11.385 4.24411C11.2277 4.23696 11.0934 4.3599 11.0862 4.51714C11.0834 4.58004 11.1019 4.64151 11.1377 4.69298L12.237 6.26545C12.2899 6.34121 12.3027 6.43699 12.2713 6.52419L11.6023 8.31967C11.548 8.46834 11.6237 8.63274 11.771 8.68706C11.8296 8.7085 11.8925 8.70993 11.9525 8.69278L13.7837 8.1324C13.8738 8.10524 13.971 8.12383 14.0453 8.18244L15.5449 9.37323C15.6693 9.47044 15.848 9.45042 15.9466 9.32605C15.9852 9.27602 16.0066 9.21598 16.0081 9.15308L16.0409 7.23895C16.0424 7.1446 16.091 7.0574 16.1696 7.00594L17.7649 5.95238C17.8965 5.86518 17.9336 5.68792 17.8464 5.55641C17.8121 5.50351 17.7607 5.46349 17.7006 5.44347L15.8894 4.8202C15.7979 4.79018 15.7279 4.71585 15.7021 4.62293L15.1932 2.77742C15.1504 2.62589 14.9917 2.53726 14.8401 2.58014C14.7801 2.5973 14.7272 2.63303 14.69 2.68307Z" fill="url(#paint1_radial_1007_1024)"/>
</g>
</g>
<path id="Vector_3" d="M15.2461 2.64902L15.675 4.63891C15.7078 4.79187 15.8208 4.91481 15.9709 4.95913L17.8836 5.53094C18.0265 5.5824 18.1009 5.73965 18.0494 5.8826C18.0294 5.93978 17.9908 5.98695 17.9393 6.01983L16.2239 6.95188C16.0795 7.02479 15.988 7.17346 15.988 7.33499L16.0052 9.42066C16.0009 9.57076 15.8751 9.68941 15.7236 9.68512C15.6635 9.68369 15.6049 9.66225 15.5592 9.62365L14.061 8.27848C13.9452 8.17269 13.7808 8.13981 13.6322 8.19127L11.7309 8.83885C11.5851 8.8803 11.4336 8.79596 11.3907 8.65015C11.3735 8.59297 11.3764 8.5315 11.3993 8.47575L12.237 6.56448C12.2999 6.41867 12.2784 6.25141 12.1798 6.12705L10.9633 4.59317C10.8789 4.46594 10.9132 4.29583 11.039 4.21006C11.0876 4.17718 11.1462 4.16145 11.2063 4.16431L13.1919 4.39018C13.3477 4.40733 13.4992 4.33871 13.5893 4.21149L14.7644 2.55038C14.8573 2.4303 15.0302 2.40886 15.1489 2.50321C15.1975 2.54038 15.2304 2.59041 15.2461 2.64902Z" fill="#F44336"/>
<path id="Vector_4" d="M14.7916 4.57194L14.9345 3.1996C14.9446 3.12384 14.956 2.99232 15.0775 3.01662C15.1733 3.03664 15.1833 3.24392 15.1833 3.24392L15.3691 4.40755C15.4377 4.84927 15.3462 4.97936 15.1804 5.03082C14.9874 5.09515 14.7516 4.96506 14.7916 4.57194Z" fill="#FF847A"/>
<path id="Vector_5" d="M16.0807 6.81036L17.4344 6.13991C17.5016 6.10274 17.6217 6.04699 17.5574 5.94264C17.5045 5.86115 17.3058 5.92262 17.3058 5.92262L16.2036 6.11275C15.8777 6.15563 15.6432 6.27 15.5846 6.46298C15.5089 6.71172 15.7018 6.96188 16.0807 6.81036Z" fill="#C62828"/>
<path id="Vector_6" d="M5.62419 2.30743L6.76781 3.98569C6.85644 4.11435 7.00654 4.18439 7.16236 4.1701L9.15225 3.97425C9.30378 3.96997 9.43101 4.08862 9.4353 4.24015C9.43673 4.29876 9.421 4.35594 9.38812 4.40311L8.15445 5.92269C8.05438 6.04563 8.03008 6.21289 8.09155 6.3587L8.89923 8.2814C8.95212 8.42293 8.88064 8.5816 8.73912 8.63449C8.68194 8.65594 8.62047 8.65737 8.56186 8.64021L6.66489 7.96405C6.51764 7.91116 6.35325 7.94118 6.23603 8.0441L4.7236 9.36641C4.60637 9.46076 4.43483 9.44217 4.33905 9.32495C4.30046 9.27778 4.27901 9.21774 4.27901 9.1577L4.32619 7.07203C4.33048 6.91335 4.24614 6.76754 4.1089 6.68892L2.40777 5.73114C2.27911 5.65394 2.23623 5.48526 2.31485 5.3566C2.34773 5.30085 2.40062 5.25797 2.46209 5.23795L4.3848 4.69187C4.53347 4.65042 4.64783 4.53034 4.685 4.38024L5.14102 2.39749C5.18247 2.25168 5.334 2.16734 5.47981 2.2088C5.53699 2.22452 5.58846 2.26026 5.62419 2.30743Z" fill="#F44336"/>
<path id="Vector_7" d="M5.93281 4.25897L5.54112 2.93523C5.52253 2.8609 5.48251 2.7351 5.60259 2.71223C5.69836 2.69364 5.78843 2.88234 5.78843 2.88234L6.40026 3.883C6.63327 4.26611 6.5961 4.41907 6.46316 4.53058C6.33021 4.64208 6.04431 4.63779 5.93281 4.25897Z" fill="#FF847A"/>
<path id="Vector_8" d="M7.97387 5.83267L8.97453 4.69763C9.02313 4.63902 9.11748 4.54182 9.0117 4.47034C8.93308 4.41316 8.77297 4.5461 8.77297 4.5461L7.8252 5.14079C7.53929 5.30375 7.36632 5.49817 7.38633 5.69973C7.41064 5.96562 7.68224 6.12287 7.97387 5.83267Z" fill="#C62828"/>
<path id="Vector_9" d="M15.5695 10.4726C15.3693 10.1109 14.9348 9.95223 14.5488 10.098C13.0821 10.5255 11.5611 10.7385 10.0329 10.7313C8.50478 10.7385 6.98377 10.5255 5.51708 10.098C5.13254 9.95223 4.69797 10.1095 4.49783 10.4697C4.30342 10.8285 4.44351 11.2445 4.60791 11.6033C5.52566 13.619 7.54843 14.8255 10.0215 14.8326H10.0444C12.5174 14.8326 14.5402 13.619 15.4594 11.6033C15.6224 11.2417 15.7639 10.8314 15.5695 10.4726Z" fill="#422B0D"/>
<path id="Vector_10" d="M12.3213 14.2636C12.2684 14.215 12.2141 14.1707 12.1598 14.1207C11.5765 13.6075 10.8217 13.3316 10.0441 13.3473C9.24355 13.3345 8.46446 13.6003 7.83976 14.1007C7.78543 14.145 7.72825 14.1879 7.67536 14.2436C7.62247 14.2994 7.59388 14.3394 7.55957 14.3866C8.34581 14.6939 9.18351 14.8512 10.0284 14.8469H10.0512C10.8603 14.8469 11.6623 14.7025 12.4199 14.418C12.3914 14.3637 12.3585 14.3122 12.3213 14.2636Z" fill="#ED7770"/>
<path id="Vector_11" d="M14.5484 10.0986C13.0817 10.5261 11.5607 10.7391 10.0325 10.7319C8.50435 10.7391 6.98334 10.5261 5.51665 10.0986C5.13211 9.95284 4.69753 10.1101 4.4974 10.4703C4.46881 10.5246 4.44594 10.5818 4.43164 10.6404C4.47881 10.6647 4.53314 10.689 4.59747 10.7148C6.31861 11.5768 8.2213 12.0142 10.1454 11.9913C11.9909 12.0128 13.815 11.6111 15.4818 10.8191C15.549 10.7905 15.6048 10.7634 15.6548 10.7376C15.6434 10.6447 15.6134 10.5532 15.569 10.4703C15.3689 10.1101 14.9343 9.95141 14.5484 10.0986Z" fill="white"/>
<path id="Vector_12" d="M15.5752 10.474C15.3722 10.1123 14.9362 9.95223 14.5474 10.098C13.0807 10.5255 11.5597 10.7385 10.0329 10.7313C8.50478 10.7385 6.98377 10.5255 5.51708 10.098C5.13254 9.95223 4.69797 10.1095 4.49783 10.4697C4.30342 10.8285 4.44351 11.2445 4.60791 11.6033C4.68081 11.7649 4.7623 11.9235 4.85236 12.0765C4.85236 12.0765 4.55216 10.9643 4.81233 10.6413C4.90096 10.504 5.04963 10.4183 5.2126 10.4097C5.27978 10.4097 5.34554 10.4211 5.40987 10.4411C6.90229 10.88 8.45046 11.1016 10.0072 11.0987H10.0572C11.614 11.1016 13.1622 10.88 14.6546 10.4411C14.7189 10.4211 14.7847 10.4097 14.8519 10.4097C15.0148 10.4183 15.1649 10.504 15.2536 10.6413C15.518 10.9643 15.2135 12.0808 15.2135 12.0808C15.3022 11.9278 15.3908 11.7706 15.4651 11.6076C15.6281 11.2488 15.7696 10.8342 15.5752 10.474Z" fill="#EB8F00"/>
</g>
</g>
<defs>
<radialGradient id="paint0_radial_1007_1024" cx="0" cy="0" r="1" gradientUnits="userSpaceOnUse" gradientTransform="translate(10.0705 8.2254) scale(8.14251)">
<stop offset="0.5" stop-color="#FDE030"/>
<stop offset="0.92" stop-color="#F7C02B"/>
<stop offset="1" stop-color="#F4A223"/>
</radialGradient>
<radialGradient id="paint1_radial_1007_1024" cx="0" cy="0" r="1" gradientUnits="userSpaceOnUse" gradientTransform="translate(14.4899 6.00213) scale(3.41811)">
<stop offset="0.2" stop-color="#FF4081"/>
<stop offset="0.88" stop-color="#CC1775"/>
</radialGradient>
<clipPath id="clip0_1007_1024">
<rect width="18.2979" height="18.2979" fill="white" transform="translate(0.978516 0.234375)"/>
</clipPath>
</defs>
</svg>
