<svg width="21" height="22" viewBox="0 0 21 22" fill="none" xmlns="http://www.w3.org/2000/svg">
<g id="&#240;&#159;&#166;&#134; emoji &#34;camping&#34;">
<path id="Vector" d="M0.149414 0.319336H17.3279V17.4978H0.149414V0.319336Z" fill="#D6EEF0"/>
<g id="Group">
<path id="Vector_2" d="M0.149414 4.34556L1.22307 3.2719L2.96776 2.19824L6.05453 4.61397L10.3492 10.2507H0.149414V4.34556Z" fill="#B2C1C0"/>
<path id="Vector_3" opacity="0.5" d="M10.3494 10.2507L6.05481 4.61397L2.96805 2.19824L2.56543 4.07714L3.63909 5.1508L3.37067 6.76128L4.44433 7.83494L3.9075 10.2507H10.3494Z" fill="#B2C1C0"/>
</g>
<path id="Vector_4" d="M2.96707 2.19824L1.22238 3.2719L0.685547 3.80873H1.49079L1.08817 4.90923L2.29603 4.34556L2.56445 5.68763L3.6381 5.1508L4.68492 5.68763V4.74818L6.05383 4.61397L2.96707 2.19824Z" fill="white"/>
<path id="Vector_5" opacity="0.5" d="M10.3486 10.2507L6.05398 4.61397L2.96721 2.19824L2.83301 3.54031L3.63825 5.1508L3.36984 6.76128L4.44349 7.83494L3.90666 10.2507H10.3486Z" fill="#B2C1C0"/>
<path id="Vector_6" d="M13.6238 9.57924C12.7649 9.20346 11.8523 8.9082 10.886 8.9082C9.91969 8.9082 9.06077 9.36451 8.30921 9.5524C3.90721 10.7066 0.149414 8.9082 0.149414 8.9082V17.4975H17.3279V10.0624C16.1469 10.1966 14.8585 10.0355 13.6238 9.57924Z" fill="#83BF4F"/>
<g id="Group_2">
<path id="Vector_7" d="M1.49163 13.4715C2.08459 13.4715 2.56528 12.9908 2.56528 12.3979C2.56528 11.8049 2.08459 11.3242 1.49163 11.3242C0.898661 11.3242 0.417969 11.8049 0.417969 12.3979C0.417969 12.9908 0.898661 13.4715 1.49163 13.4715Z" fill="#699635"/>
<path id="Vector_8" d="M1.75934 11.8615C2.20407 11.8615 2.56459 11.5009 2.56459 11.0562C2.56459 10.6115 2.20407 10.251 1.75934 10.251C1.31462 10.251 0.954102 10.6115 0.954102 11.0562C0.954102 11.5009 1.31462 11.8615 1.75934 11.8615Z" fill="#699635"/>
<path id="Vector_9" d="M3.42396 13.4719C4.31341 13.4719 5.03445 12.7509 5.03445 11.8615C5.03445 10.972 4.31341 10.251 3.42396 10.251C2.53452 10.251 1.81348 10.972 1.81348 11.8615C1.81348 12.7509 2.53452 13.4719 3.42396 13.4719Z" fill="#699635"/>
</g>
<path id="Vector_10" d="M15.127 9.3916H15.8517V11.5926H15.127V9.3916Z" fill="#89664C"/>
<path id="Vector_11" d="M16.0934 6.46594C15.7713 5.84859 15.2344 5.84859 14.9124 6.46594L13.785 8.55958C13.4629 9.17693 13.785 9.66007 14.5097 9.66007C14.5097 9.66007 15.2344 9.39166 15.5029 9.39166C15.7713 9.39166 16.496 9.66007 16.496 9.66007C17.2207 9.66007 17.5428 9.17693 17.2207 8.55958L16.0934 6.46594Z" fill="#699635"/>
<path id="Vector_12" d="M15.9598 5.25787C15.6914 4.77472 15.2887 4.77472 15.0203 5.25787L14.1346 6.94888C13.8661 7.43202 14.1346 7.83464 14.7251 7.83464C14.7251 7.83464 15.3156 7.56623 15.5035 7.56623C15.6914 7.56623 16.2819 7.83464 16.2819 7.83464C16.8455 7.83464 17.114 7.43202 16.8724 6.94888L15.9598 5.25787Z" fill="#75A843"/>
<path id="Vector_13" d="M15.8518 4.07676C15.6639 3.70098 15.3418 3.70098 15.1539 4.07676L14.4829 5.3383C14.295 5.71408 14.4829 6.00934 14.9123 6.00934C14.9123 6.00934 15.3418 5.74093 15.5028 5.74093C15.6639 5.74093 16.0934 6.00934 16.0934 6.00934C16.5228 6.00934 16.7107 5.71408 16.5228 5.3383L15.8518 4.07676Z" fill="#83BF4F"/>
<g id="Group_3">
<path id="Vector_14" d="M9.27733 2.19894C9.27733 2.49419 9.03576 2.73577 8.7405 2.73577H6.05636C5.7611 2.73577 5.51953 2.49419 5.51953 2.19894C5.51953 1.90368 5.7611 1.66211 6.05636 1.66211H8.7405C9.03576 1.66211 9.27733 1.90368 9.27733 2.19894Z" fill="white"/>
<path id="Vector_15" d="M10.3504 2.73605C10.3504 3.0313 10.1089 3.27288 9.81361 3.27288H8.73995C8.4447 3.27288 8.20312 3.0313 8.20312 2.73605C8.20312 2.44079 8.4447 2.19922 8.73995 2.19922H9.81361C10.1089 2.19922 10.3504 2.44079 10.3504 2.73605ZM11.4241 4.88336C11.4241 5.17862 11.1825 5.42019 10.8873 5.42019H9.81361C9.51835 5.42019 9.27678 5.17862 9.27678 4.88336C9.27678 4.58811 9.51835 4.34653 9.81361 4.34653H10.8873C11.1825 4.34653 11.4241 4.58811 11.4241 4.88336ZM14.1082 3.54129C14.1082 3.83655 13.8667 4.07812 13.5714 4.07812H12.4978C12.2025 4.07812 11.9609 3.83655 11.9609 3.54129C11.9609 3.24603 12.2025 3.00446 12.4978 3.00446H13.5714C13.8667 3.00446 14.1082 3.24603 14.1082 3.54129Z" fill="white"/>
</g>
<path id="Vector_16" d="M9.1709 10.7305H17.0405L20.2758 16.5956L19.1828 19.3093L12.4499 20.4473L9.1709 10.7305Z" fill="#FFDD7D"/>
<path id="Vector_17" d="M6.25134 19.2566L5.70117 16.6988L8.95985 10.7305L12.6417 18.1796L12.1339 21.1413L6.25134 19.2566Z" fill="#DBB471"/>
<path id="Vector_18" d="M8.8193 10.7305L7.08984 19.6375L9.86607 20.4473L8.8193 10.7305Z" fill="#89664C"/>
<path id="Vector_19" d="M8.82958 10.7305C8.82958 10.7305 9.48465 16.1737 10.5608 18.198L9.90576 20.4473L8.82958 10.7305ZM7.05155 19.6375L6.39648 17.8831C6.39648 17.8831 8.50205 12.6648 8.82958 10.7305L7.05155 19.6375Z" fill="#FFDD7D"/>
<path id="Vector_20" d="M5.24846 13.4715C5.84143 13.4715 6.32212 12.9908 6.32212 12.3979C6.32212 11.8049 5.84143 11.3242 5.24846 11.3242C4.6555 11.3242 4.1748 11.8049 4.1748 12.3979C4.1748 12.9908 4.6555 13.4715 5.24846 13.4715Z" fill="#699635"/>
<path id="Vector_21" d="M12.0413 17.9114L20.2769 16.9766L19.579 20.0361L11.9482 21.1409L12.0413 17.9114Z" fill="#DBB471"/>
</g>
</svg>
