<svg xmlns="http://www.w3.org/2000/svg" width="20" height="19" viewBox="0 0 20 19" fill="none">
  <path d="M0.510742 18.8277L3.24244 17.8748L1.17778 16.9219L0.510742 18.8277Z" fill="#F7B600"/>
  <path d="M8.42011 11.0139L4.57668 7.13867L3.94141 8.91745L8.42011 11.0139Z" fill="#FFDD7D"/>
  <path d="M3.94197 8.91699L3.24316 10.9181L11.7559 14.8886L12.1688 14.7615L8.42068 11.0134L3.94197 8.91699Z" fill="#F7B600"/>
  <path d="M2.5752 12.9191L8.92797 15.8731L11.755 14.8885L3.24224 10.918L2.5752 12.9191Z" fill="#FFDD7D"/>
  <path d="M1.87793 14.9201L6.07076 16.8894L8.92951 15.873L2.57674 12.9189L1.87793 14.9201Z" fill="#F7B600"/>
  <path d="M1.87654 14.9209L1.17773 16.922L3.24239 17.8749L6.06937 16.8903L1.87654 14.9209Z" fill="#FFDD7D"/>
  <path d="M10.0088 9.36226C12.137 11.4587 13.2487 13.8092 12.4864 14.5715C11.6923 15.3339 9.34174 14.2539 7.1818 12.1257C5.05362 10.0293 3.94188 7.67877 4.70422 6.91644C5.49831 6.15411 7.84884 7.26584 10.0088 9.36226Z" fill="#493816"/>
  <path d="M7.34003 4.05738C6.83181 3.32681 7.37179 3.00917 8.0706 3.13623C7.40356 2.34213 7.81649 1.77038 8.86469 1.99273C9.18233 2.05626 8.73764 2.59624 8.45176 2.59624C9.30939 3.23152 8.83293 3.93033 7.91178 3.77151C8.73764 4.88324 7.34003 4.59737 6.70475 4.6609C6.54593 5.48676 7.49885 6.43967 7.18121 6.43967C6.4824 6.43967 5.3389 3.80327 7.34003 4.05738Z" fill="#42ADE2"/>
  <path d="M14.0109 5.58178C13.5345 5.80413 12.2004 3.70771 13.8521 3.67595C12.8992 2.81832 13.0262 2.40539 14.2968 2.37363C12.8357 0.91249 15.1544 0.404268 15.3768 1.1666C15.4403 1.38895 14.678 0.976018 14.4239 1.38895C14.138 1.86541 16.2026 3.1042 14.0744 3.00891C14.8685 3.803 14.9003 4.18417 13.6615 4.31123C13.8203 4.56534 14.3286 5.45473 14.0109 5.58178Z" fill="#FF8736"/>
  <path d="M14.5508 10.5366L15.0272 10.1237C15.0272 10.1237 15.4719 10.7908 15.7896 11.0449C16.0437 9.90136 15.9802 9.23432 17.2825 9.99666C16.5519 8.02729 17.7589 8.75786 18.9342 9.29785C18.8707 8.78963 18.9342 8.85316 19.4424 8.69434C19.8871 10.3778 18.6801 9.8696 17.7272 9.32961C18.2989 10.8543 17.6954 10.759 16.4884 10.2508C16.4566 10.886 16.266 11.6166 15.8849 11.6801C15.4402 11.8072 14.5508 10.5366 14.5508 10.5366Z" fill="#ED4C5C"/>
  <path d="M10.9924 5.83592C10.4206 6.59826 9.49948 7.01119 8.83244 7.67823C8.13363 8.37703 7.7207 10.2829 7.7207 10.2829C7.7207 10.2829 7.97481 8.28174 8.64186 7.51941C9.24537 6.8206 10.1348 6.31238 10.6112 5.51828C11.4371 4.05714 10.6747 2.15131 9.59477 1.03957C9.81712 0.848991 10.1348 0.59488 10.2936 0.404297C11.3418 1.70662 12.2312 4.21596 10.9924 5.83592Z" fill="#C28FEF"/>
  <path d="M11.977 7.45593C11.1511 8.05944 10.5476 8.94883 9.97584 9.77469C9.46761 10.5053 7.84766 11.4264 7.84766 11.4264C7.84766 11.4264 9.37232 10.3782 9.84878 9.61587C10.4205 8.66295 10.9923 7.67827 11.8817 6.97947C13.6604 5.61362 16.2333 5.74068 18.2344 6.47125C18.1074 6.75712 17.885 7.36063 17.885 7.36063C17.885 7.36063 13.6604 6.21713 11.977 7.45593Z" fill="#FF8736"/>
  <path d="M15.5037 7.29664C14.9637 7.99545 14.7096 8.85307 14.2967 9.64717C13.9155 10.3777 13.4073 11.0765 12.6767 11.4577C11.8509 11.8706 10.0403 11.7436 10.0403 11.7436C10.0403 11.7436 11.8509 11.7118 12.6132 11.2036C13.3755 10.6954 13.7885 9.80599 14.0743 8.98013C14.6461 7.39193 15.3449 5.67668 16.9966 4.97788C17.0919 5.26375 17.3143 5.86727 17.3143 5.86727C17.3143 5.86727 16.3931 6.12138 15.5037 7.29664ZM0.895508 4.00114L1.79379 3.10254L2.69239 4.00082L1.79411 4.89974L0.895508 4.00114Z" fill="#42ADE2"/>
  <path d="M2.15332 6.81918L3.05129 5.9209L3.94957 6.81918L3.05129 7.71746L2.15332 6.81918Z" fill="#FF8736"/>
  <path d="M4.43652 2.57113L5.33481 1.67285L6.23309 2.57113L5.33481 3.46942L4.43652 2.57113Z" fill="#ED4C5C"/>
  <path d="M14.2344 13.3312L15.1327 12.4326L16.0309 13.3312L15.1327 14.2295L14.2344 13.3312Z" fill="#C28FEF"/>
  <path d="M12.2334 16.41L13.1317 15.5117L14.0303 16.4103L13.1317 17.3086L12.2334 16.41Z" fill="#ED4C5C"/>
  <path d="M16.1641 17.1144L17.0623 16.2158L17.9606 17.1144L17.0623 18.0127L16.1641 17.1144Z" fill="#FF8736"/>
  <path d="M17.0526 13.0245L17.9509 12.1262L18.8492 13.0245L17.9509 13.9231L17.0526 13.0245ZM15.5527 3.52458L16.451 2.62598L17.3496 3.52458L16.4513 4.42286L15.5527 3.52458Z" fill="#42ADE2"/>
  <path d="M5.9248 8.91391L6.8234 8.01562L7.72169 8.91391L6.8234 9.81251L5.9248 8.91391Z" fill="#ED4C5C"/>
</svg>