<svg width="22" height="21" viewBox="0 0 22 21" fill="none" xmlns="http://www.w3.org/2000/svg">
<g id="mountain" clip-path="url(#clip0_1007_997)">
<path id="Vector" d="M11.2044 15.1499C11.2044 15.1499 1.73341 18.0416 1.71297 18.2508C1.69253 18.4599 5.50421 20.1409 11.8743 20.0528C17.9503 19.9695 20.298 18.419 20.3389 18.2508C20.3798 18.0825 11.4136 15.1074 11.2044 15.1499Z" fill="#B9CE46"/>
<path id="Vector_2" d="M10.7684 7.20189L10.0906 6.34961C10.0906 6.34961 8.99621 7.49752 8.70058 7.81044C8.40496 8.12336 8.17695 8.30419 8.03543 8.59825C7.83258 9.0181 7.18943 12.6426 7.18943 12.6426L5.3292 14.5532C5.3292 14.5532 4.97854 14.3346 4.89205 14.4054C4.80556 14.4762 1.95624 17.8727 1.95624 17.8727L1.71094 18.2485C1.71094 18.2485 2.27703 18.3743 2.45157 18.357C2.53649 18.3492 2.95476 18.2532 3.42808 18.2045C3.92655 18.1526 4.5634 18.1951 4.63417 18.1872C4.71436 18.1793 4.99112 18.0976 4.99112 18.0976L7.46619 16.621L9.4994 16.1162L11.3596 16.9512L15.0093 17.1258L17.008 14.1365L12.6632 8.38282L10.7684 7.20189Z" fill="#9EA2A3"/>
<path id="Vector_3" d="M5.4687 15.9485C5.4687 15.9485 5.40108 15.7551 5.35076 15.612C5.30045 15.4689 5.33032 14.5537 5.33032 14.5537C5.33032 14.5537 6.46408 15.2236 6.58987 15.3337C6.71567 15.4437 7.83842 16.1435 7.83842 16.1435C7.83842 16.1435 8.63881 16.0428 8.91713 16.0255C9.19546 16.0082 9.67664 16.0334 9.67664 16.0334L9.49109 16.3039C9.49109 16.3039 7.67803 16.8936 7.35724 16.9958C7.03646 17.0964 4.98123 18.1421 4.98438 18.1028C4.99067 18.021 5.51902 17.2647 5.51902 17.2647L5.4687 15.9485Z" fill="#717A7C"/>
<path id="Vector_4" d="M13.6741 16.8424L5.92805 18.0658C5.92805 18.0658 5.5538 18.3976 5.59154 18.4857C5.62928 18.5737 7.05866 18.8395 7.55242 18.9024C8.04617 18.9653 11.4223 19.1555 11.7887 19.1304C12.155 19.1052 15.8991 18.9149 16.418 18.852C16.9369 18.7891 18.6808 18.6681 18.7956 18.6162C19.0173 18.5155 20.0347 17.9667 20.0347 17.9667C20.0347 17.9667 18.8962 16.171 18.6682 15.7401C18.4402 15.3108 18.0613 14.5388 17.7955 14.273C17.5298 14.0073 17.3395 13.894 17.3395 13.894C17.3395 13.894 16.981 13.0606 16.5627 12.5291C16.146 11.9976 15.6507 11.0667 15.5186 10.9346C15.0169 10.4346 14.9257 10.4582 14.9257 10.4582L15.2402 14.2478C15.2402 14.2478 14.6584 15.4115 14.4556 15.7275C14.2559 16.0468 13.6741 16.8424 13.6741 16.8424Z" fill="#717A7C"/>
<path id="Vector_5" d="M10.8908 4.91713L10.7383 8.00232L12.5325 9.11564C12.5325 9.11564 13.0718 10.4978 13.097 10.6252C13.1222 10.751 13.0734 11.0922 13.1237 11.1803C13.174 11.2684 14.1034 11.9083 14.1395 11.9099C14.3455 11.9209 14.7717 11.847 14.7465 11.8093C14.7214 11.7715 14.9163 10.9507 14.9163 10.9507C14.9163 10.9507 13.6835 8.9521 13.4178 8.39544C13.152 7.83879 12.1535 6.39683 12.0387 6.15624C11.9239 5.91565 11.3814 5.11841 11.2666 4.99261C11.1518 4.86681 10.9679 4.82907 10.8908 4.91713Z" fill="#717A7C"/>
<path id="Vector_6" d="M11.6737 10.8031C11.6737 10.8031 12.5212 9.40678 12.5464 9.19293C12.5715 8.97907 11.8639 7.67549 11.6862 7.20689C11.5085 6.7383 11.0415 5.77752 10.9912 5.65172C10.9409 5.52592 10.8906 4.91895 10.8906 4.91895C10.8906 4.91895 10.5368 5.29791 10.4094 5.6014C10.2836 5.90489 9.80713 6.65181 9.80713 6.65181C9.80713 6.65181 10.1059 8.38468 10.2207 9.13003C10.3339 9.87695 10.4188 10.8566 10.4015 10.8928C10.293 11.1129 9.56339 12.8867 9.56339 12.8867C9.56339 12.8867 9.46904 13.7468 9.5571 13.8349C9.64516 13.9229 10.1562 14.0393 10.1955 13.9795C10.2726 13.8647 10.271 13.4292 10.271 13.4292C10.271 13.4292 11.6894 11.5139 11.735 11.4195C11.7523 11.3834 11.6737 10.8031 11.6737 10.8031Z" fill="#C0C0C0"/>
<path id="Vector_7" d="M8.78422 10.9397C8.77951 10.7494 8.50118 9.84682 8.45086 9.64397C8.40054 9.44112 8.29361 8.43945 8.15366 8.43945C8.01529 8.43945 7.37372 10.2038 7.30924 10.3689C7.24635 10.534 6.34846 12.4681 6.23367 12.6961C6.12045 12.9241 5.60154 13.9101 5.5009 14.0752C5.40026 14.2403 5.2666 14.5202 5.2666 14.5202L7.83602 16.1446L8.76378 16.0392C8.76378 16.0392 8.22128 14.5815 8.09391 14.2529C7.96654 13.9242 7.81558 13.3927 7.81558 13.3927C7.81558 13.3927 8.10963 12.6883 8.30148 12.1819C8.49489 11.6725 8.79051 11.1284 8.78422 10.9397Z" fill="#C0C0C0"/>
<path id="Vector_8" d="M4.96078 14.4069C4.96707 14.4305 5.00009 15.0233 4.98279 15.3771C4.9655 15.7325 4.89631 16.0879 4.89631 16.0879L3.8569 17.4402C3.8569 17.4402 1.97622 18.1682 1.86301 18.2028C1.74979 18.2374 1.71362 18.25 1.71362 18.25C1.71362 18.25 1.47775 18.1069 2.18379 17.3364C3.09583 16.341 4.2626 14.9777 4.41041 14.8063C4.67302 14.5012 4.94348 14.3361 4.96078 14.4069Z" fill="#C0C0C0"/>
<path id="Vector_9" d="M7.23711 14.8196C7.13018 14.8086 6.99495 15.1655 6.92262 15.4313C6.87072 15.6184 6.53579 16.5666 6.49648 16.7506C6.45559 16.9361 6.24803 17.4834 6.30463 17.5085C6.36124 17.5321 6.79996 17.5636 7.03426 17.5148C7.26699 17.4661 7.77647 17.0572 7.77647 16.9613C7.77647 16.8654 7.55632 15.8716 7.53588 15.7536C7.47927 15.4156 7.40379 14.8369 7.23711 14.8196Z" fill="#367C2D"/>
<path id="Vector_10" d="M17.7581 16.2706C17.6637 16.2313 17.4231 17.2958 17.3728 17.6717C17.3225 18.0475 17.1888 18.7614 17.2234 18.8322C17.3241 19.0319 18.3965 18.8998 18.5003 18.7284C18.5301 18.6796 18.3792 17.8792 18.2707 17.5412C18.1229 17.0788 18.0018 16.3728 17.7581 16.2706Z" fill="#367C2D"/>
<path id="Vector_11" d="M19.6366 14.9298C19.4888 14.9361 19.3316 16.2271 19.2341 16.5085C19.124 16.8278 18.756 18.3389 18.9086 18.5119C19.0611 18.6848 19.6445 18.548 19.8615 18.4851C20.0706 18.4254 20.2515 18.3247 20.3018 18.2131C20.3521 18.1015 20.2326 17.2004 20.0879 16.5714C19.9401 15.9346 19.8693 14.9188 19.6366 14.9298Z" fill="#367C2D"/>
<path id="Vector_12" d="M5.92617 18.068C5.92617 18.068 6.33344 18.2221 7.72823 18.3086C9.12301 18.3951 9.80861 18.3872 9.80861 18.3872L12.9944 17.9218L13.7178 16.777C13.7178 16.777 12.7554 16.7408 12.2444 16.7235C11.7333 16.7062 10.9707 16.7031 10.9361 16.6088C10.9015 16.5128 11.7962 15.8634 12.0478 15.7345C12.2994 15.6039 12.9064 15.5348 13.0448 15.3885C13.1831 15.2407 14.9317 14.2548 15.1472 14.2469C15.3642 14.2375 16.0403 14.6542 16.1693 14.6101C16.2998 14.5661 15.7195 13.0314 15.6425 12.7436C15.6362 12.7185 15.3296 11.223 15.3201 11.1947C15.2478 10.973 15.0261 10.3975 14.8861 10.4667C14.7477 10.5359 14.5135 11.0642 14.3405 11.5926C14.1675 12.1209 14.0637 12.3992 13.9772 12.5282C13.8907 12.6571 12.8859 13.3003 12.746 13.4465C12.6076 13.5943 12.1909 13.9057 11.9393 14.0095C11.6877 14.1132 11.4456 14.1132 11.2631 14.2783C11.0807 14.4435 10.8559 14.7296 10.6043 14.997C10.3527 15.2659 9.84163 15.8823 9.67338 16.0332C9.50512 16.1842 9.35416 16.3304 9.35416 16.3304C9.35416 16.3304 8.13864 16.6748 7.7298 16.8729C7.3241 17.0726 5.82082 18.0413 5.92617 18.068Z" fill="#C0C0C0"/>
<path id="Vector_13" d="M13.0113 17.2473C12.898 17.2567 12.7392 18.1058 12.6826 18.2945C12.6512 18.4015 12.3886 19.1327 12.4593 19.2553C12.6008 19.5069 13.7645 19.4393 13.8164 19.3072C13.8667 19.1751 13.4846 18.2914 13.4138 18.1279C13.3415 17.9675 13.1779 17.2331 13.0113 17.2473Z" fill="#367C2D"/>
<path id="Vector_14" d="M18.5569 8.75462C18.4232 8.88828 18.4185 9.10056 18.5663 9.22165C18.6968 9.33015 18.9123 9.25938 18.9925 9.16189C19.0727 9.0644 19.0632 8.85211 18.9563 8.74519C18.8494 8.63826 18.6371 8.67442 18.5569 8.75462Z" fill="white"/>
<path id="Vector_15" opacity="0.5" d="M18.6011 10.7434C18.458 10.9006 18.5052 11.1349 18.6373 11.2214C18.7694 11.3079 18.9675 11.3 19.065 11.1805C19.1515 11.0736 19.1609 10.8598 19.0288 10.7277C18.914 10.6129 18.6939 10.6412 18.6011 10.7434Z" fill="white"/>
<path id="Vector_16" opacity="0.6" d="M14.5018 5.61594C14.461 5.74645 14.5427 5.89426 14.6669 5.91628C14.7975 5.93986 14.9311 5.90213 14.9673 5.7779C15.0035 5.6521 14.9579 5.49485 14.7786 5.46341C14.5993 5.43196 14.5223 5.54517 14.5018 5.61594Z" fill="white"/>
<path id="Vector_17" d="M15.8443 7.82499C15.8443 7.82499 15.9606 7.39728 16.0455 7.38312C16.1304 7.36897 16.3003 7.84229 16.3003 7.84229C16.3003 7.84229 16.7233 7.85644 16.7374 7.92248C16.7516 7.9901 16.4386 8.24327 16.4386 8.24327C16.4386 8.24327 16.555 8.63953 16.5063 8.68985C16.4575 8.7386 16.0691 8.48857 16.0691 8.48857C16.0691 8.48857 15.7216 8.78263 15.6414 8.72916C15.5612 8.6757 15.709 8.23383 15.709 8.23383C15.709 8.23383 15.3788 7.99796 15.3741 7.91776C15.3678 7.83757 15.8443 7.82499 15.8443 7.82499Z" fill="white"/>
<path id="Vector_18" d="M6.25373 6.64758C6.25373 6.64758 6.40626 6.20886 6.49903 6.20414C6.59024 6.19942 6.7239 6.64286 6.7239 6.64286C6.7239 6.64286 7.17677 6.64758 7.20822 6.71362C7.24753 6.79853 6.91731 7.0863 6.91731 7.0863C6.91731 7.0863 7.02424 7.51401 6.97392 7.5659C6.91731 7.62251 6.52577 7.39765 6.52577 7.39765C6.52577 7.39765 6.12321 7.67755 6.03673 7.60207C5.96125 7.53602 6.1185 7.08158 6.1185 7.08158C6.1185 7.08158 5.7411 6.8064 5.76154 6.72935C5.78828 6.62242 6.25373 6.64758 6.25373 6.64758Z" fill="white"/>
<path id="Vector_19" opacity="0.5" d="M2.84243 7.82439C2.74808 7.81967 2.61914 7.91402 2.61914 8.07598C2.61914 8.19549 2.73393 8.29456 2.833 8.29456C2.97609 8.29456 3.07516 8.18606 3.07044 8.06183C3.06415 7.89987 2.9415 7.82911 2.84243 7.82439Z" fill="white"/>
<path id="Vector_20" d="M3.88219 10.1703C3.89162 10.3496 3.98126 10.5021 4.21398 10.4959C4.44671 10.4896 4.63855 10.1326 4.41683 9.92347C4.19511 9.71433 3.86961 9.92976 3.88219 10.1703Z" fill="white"/>
<path id="Vector_21" d="M2.33865 12.3648C2.44872 12.4875 2.7129 12.4387 2.71918 12.2233C2.72547 12.0267 2.62641 11.934 2.44243 11.9591C2.26002 11.9843 2.20499 12.2154 2.33865 12.3648Z" fill="white"/>
<path id="Vector_22" d="M8.19766 15.1743C8.10488 15.2057 7.99009 15.5643 7.88159 15.9354C7.8124 16.1697 7.61113 16.8726 7.65987 16.9071C7.70862 16.9417 8.19451 16.9653 8.38636 16.8474C8.5782 16.7295 8.71815 16.6272 8.74331 16.5581C8.76847 16.4889 8.54832 15.8787 8.46341 15.6555C8.39736 15.4872 8.29515 15.1397 8.19766 15.1743Z" fill="#367C2D"/>
<path id="Vector_23" opacity="0.5" d="M6.56595 3.73148C6.42285 3.88872 6.47003 4.12302 6.60212 4.20951C6.7342 4.296 6.93233 4.28813 7.02983 4.16862C7.11631 4.0617 7.12575 3.84784 6.99366 3.71575C6.87887 3.60253 6.65715 3.63084 6.56595 3.73148Z" fill="white"/>
</g>
<defs>
<clipPath id="clip0_1007_997">
<rect width="20.1277" height="20.1277" fill="white" transform="translate(0.978516 0.574219)"/>
</clipPath>
</defs>
</svg>
