<svg width="16" height="14" viewBox="0 0 16 14" fill="none" xmlns="http://www.w3.org/2000/svg">
<g id="&#240;&#159;&#166;&#134; emoji &#34;artist palette&#34;">
<path id="Vector" d="M12.4421 4.66967C14.5608 1.03422 10.2031 -1.32521 4.66567 1.20275C1.27098 2.76768 -1.08845 7.58284 3.63041 11.7239C6.97694 14.6611 15.4275 12.9999 15.4275 9.62928C15.4275 5.89753 10.2031 8.47364 12.4421 4.66967ZM13.6219 10.5923C12.9477 11.1701 11.8884 11.1701 11.2143 10.5923C10.5402 10.0145 10.5402 9.5089 11.2143 8.93108C11.8884 8.35326 12.9477 8.35326 13.6219 8.93108C14.296 9.5089 14.2719 10.0145 13.6219 10.5923Z" fill="#F6C799"/>
<path id="Vector_2" d="M8.49389 9.84645C7.74754 9.26863 6.56783 9.26863 5.82148 9.84645C5.07513 10.4243 5.07513 11.3392 5.82148 11.917C6.56783 12.4948 7.74754 12.4948 8.49389 11.917C9.21617 11.3392 9.21617 10.4002 8.49389 9.84645Z" fill="#2CAECE"/>
<path id="Vector_3" d="M5.21977 7.07659C4.40119 6.69137 3.29371 6.93213 2.71589 7.63033C2.13807 8.32853 2.33067 9.19526 3.14925 9.58047C3.96783 9.96568 5.07531 9.72493 5.65313 9.02673C6.23095 8.32853 6.03835 7.4618 5.21977 7.07659Z" fill="#FDF516"/>
<path id="Vector_4" d="M4.59333 3.94757C3.89513 3.56236 2.85987 3.73089 2.33021 4.33278C1.77646 4.93468 1.92092 5.72918 2.61911 6.09031C3.31731 6.47553 4.35257 6.307 4.88224 5.7051C5.41191 5.10321 5.29153 4.33278 4.59333 3.94757Z" fill="#FF5555"/>
<path id="Vector_5" d="M7.33845 1.58804C6.66433 1.20283 5.67722 1.34728 5.14755 1.9251C4.61788 2.50292 4.71419 3.24927 5.41239 3.63448C6.08651 4.01969 7.07362 3.87524 7.60328 3.29742C8.13295 2.7196 8.01257 1.94918 7.33845 1.58804Z" fill="#83BF4F"/>
<path id="Vector_6" d="M11.2627 1.32289C10.733 0.88953 9.84224 0.793227 9.21627 1.08214C8.61437 1.37105 8.54214 1.97294 9.07181 2.40631C9.60148 2.83967 10.4923 2.93597 11.1183 2.64706C11.7201 2.33408 11.7683 1.75626 11.2627 1.32289Z" fill="#9156B7"/>
<path id="Vector_7" d="M10.13 9.12328C9.6726 9.62887 7.36133 10.0863 7.36133 10.0863C7.36133 10.0863 8.27621 9.24366 8.6855 7.87134C8.8781 7.22129 9.81706 7.22129 10.2263 7.58243C10.6356 7.91949 10.5875 8.61769 10.13 9.12328Z" fill="#947151"/>
<path id="Vector_8" d="M14.6315 1.94926C14.8723 1.92518 15.3297 2.33447 15.3538 2.55115C15.426 3.58641 11.0924 7.29409 11.0924 7.29409L10.3701 6.69219C10.3701 6.69219 13.5722 2.02149 14.6315 1.94926Z" fill="#666666"/>
<path id="Vector_9" d="M9.74512 7.39058L10.4674 7.99248L11.0934 7.29428L10.3711 6.69238L9.74512 7.39058Z" fill="#CCCCCC"/>
</g>
</svg>
