<svg width="21" height="21" viewBox="0 0 21 21" fill="none" xmlns="http://www.w3.org/2000/svg">
<g id="partying_face">
<g id="gold">
<path id="face" d="M10.4344 20.4752C6.36398 20.4752 1.96875 17.9223 1.96875 12.3196C1.96875 6.71687 6.36398 4.16406 10.4344 4.16406C12.6952 4.16406 14.782 4.90727 16.3291 6.26406C18.0059 7.75375 18.8967 9.85375 18.8967 12.3196C18.8967 14.7855 18.0059 16.8723 16.3291 18.3604C14.782 19.7172 12.6804 20.4752 10.4344 20.4752Z" fill="url(#paint0_radial_1007_268)"/>
<path id="Vector" d="M17.4221 7.47168C18.2228 8.80059 18.6329 10.3296 18.605 11.8817C18.605 14.3426 17.7142 16.4344 16.0375 17.9225C14.4904 19.2793 12.3904 20.0372 10.1427 20.0372C7.50785 20.0372 4.74012 18.9659 3.11426 16.6904C4.68434 19.2678 7.63582 20.4753 10.4347 20.4753C12.6807 20.4753 14.7824 19.7173 16.3295 18.3605C18.0062 16.8708 18.8971 14.7856 18.8971 12.3197C18.8971 10.4609 18.3901 8.80879 17.4221 7.47168Z" fill="#EB8F00"/>
</g>
<g id="facial_expressions">
<g id="face-with-party-horn-and-party-hat">
<g id="blush">
<path id="Vector_2" opacity="0.8" d="M5.5459 14.4541C7.13156 14.4541 8.41699 13.2421 8.41699 11.7471C8.41699 10.252 7.13156 9.04004 5.5459 9.04004C3.96024 9.04004 2.6748 10.252 2.6748 11.7471C2.6748 13.2421 3.96024 14.4541 5.5459 14.4541Z" fill="url(#paint1_radial_1007_268)"/>
<path id="Vector_3" opacity="0.8" d="M15.4551 14.4541C17.0407 14.4541 18.3262 13.2421 18.3262 11.7471C18.3262 10.252 17.0407 9.04004 15.4551 9.04004C13.8694 9.04004 12.584 10.252 12.584 11.7471C12.584 13.2421 13.8694 14.4541 15.4551 14.4541Z" fill="url(#paint2_radial_1007_268)"/>
</g>
<g id="prop">
<g id="confetti">
<path id="Vector_4" d="M3.9375 3.28125C4.57176 3.28125 5.08594 2.91398 5.08594 2.46094C5.08594 2.00789 4.57176 1.64062 3.9375 1.64062C3.30324 1.64062 2.78906 2.00789 2.78906 2.46094C2.78906 2.91398 3.30324 3.28125 3.9375 3.28125Z" fill="#FF00A2"/>
<path id="Vector_5" d="M8.76919 4.80253C9.03828 4.53344 8.97076 4.02963 8.61838 3.67725C8.26599 3.32486 7.76219 3.25734 7.4931 3.52644C7.224 3.79553 7.29152 4.29934 7.64391 4.65172C7.99629 5.0041 8.5001 5.07162 8.76919 4.80253Z" fill="#FD3B3B"/>
<path id="Vector_6" d="M12.2882 3.4946C12.89 3.02872 13.2026 2.42451 12.9863 2.14506C12.77 1.86561 12.1068 2.01674 11.5049 2.48262C10.903 2.9485 10.5904 3.55271 10.8067 3.83216C11.023 4.11161 11.6863 3.96048 12.2882 3.4946Z" fill="#00EEFF"/>
<path id="Vector_7" d="M4.25871 14.324C4.48626 14.1926 4.43201 13.6726 4.13753 13.1626C3.84305 12.6525 3.41986 12.3456 3.1923 12.477C2.96474 12.6083 3.019 13.1283 3.31348 13.6384C3.60796 14.1484 4.03115 14.4554 4.25871 14.324Z" fill="#0048FF"/>
<path id="Vector_8" d="M15.832 19.0312C16.1492 19.0312 16.4062 18.6273 16.4062 18.1289C16.4062 17.6306 16.1492 17.2266 15.832 17.2266C15.5149 17.2266 15.2578 17.6306 15.2578 18.1289C15.2578 18.6273 15.5149 19.0312 15.832 19.0312Z" fill="#F63BBE"/>
<path id="Vector_9" d="M19.1189 9.63568C19.6005 9.29668 19.9063 8.90173 19.802 8.75355C19.6977 8.60537 19.2227 8.76006 18.7411 9.09907C18.2595 9.43807 17.9537 9.83302 18.058 9.9812C18.1623 10.1294 18.6373 9.97469 19.1189 9.63568Z" fill="#00CC00"/>
<path id="Vector_10" d="M3.68861 19.8576C3.87801 19.7333 3.78977 19.2641 3.49152 18.8095C3.19327 18.355 2.79795 18.0872 2.60856 18.2115C2.41916 18.3358 2.5074 18.805 2.80565 19.2596C3.1039 19.7141 3.49922 19.9819 3.68861 19.8576Z" fill="#0048FF"/>
<path id="Vector_11" d="M2.49019 16.6519C3.03248 16.6134 3.4591 16.399 3.44306 16.1731C3.42702 15.9471 2.97441 15.7951 2.43211 15.8336C1.88981 15.8721 1.4632 16.0865 1.47923 16.3125C1.49527 16.5384 1.94789 16.6904 2.49019 16.6519Z" fill="#7ACDED"/>
<path id="Vector_12" d="M3.9569 14.5035C4.60785 14.4602 5.12726 14.3005 5.11703 14.1468C5.1068 13.9931 4.57081 13.9036 3.91986 13.947C3.26891 13.9903 2.7495 14.15 2.75973 14.3037C2.76996 14.4574 3.30595 14.5469 3.9569 14.5035Z" fill="#FF82B2"/>
<path id="Vector_13" d="M19.5076 12.8298C19.3682 12.3474 19.0351 11.9439 18.5889 11.7142C17.8342 11.304 16.8892 11.5846 16.4807 12.3392C16.4774 12.3442 16.4757 12.3491 16.4725 12.354C16.1312 12.9971 16.3724 13.7961 17.0139 14.1423C17.2682 14.285 17.5668 14.326 17.8506 14.2571C18.1426 14.1915 18.3887 13.9996 18.5232 13.7321C18.6693 13.4237 18.6561 13.0628 18.4904 12.7642C18.3559 12.5017 18.095 12.3278 17.8014 12.3048C17.6324 12.3015 17.4946 12.436 17.4913 12.605C17.4896 12.7576 17.6012 12.8889 17.7521 12.9118C17.8358 12.9167 17.9113 12.9676 17.949 13.0431C18.0064 13.1596 18.0179 13.2957 17.9818 13.4204C17.9261 13.5303 17.8243 13.6091 17.7029 13.6337C17.57 13.6682 17.4289 13.6501 17.3092 13.5845C17.1451 13.4975 17.0221 13.3499 16.9646 13.1743C16.9154 12.9939 16.9335 12.8019 17.0139 12.6329C17.1287 12.4098 17.3305 12.2424 17.5717 12.1735C17.8129 12.1046 18.0688 12.1276 18.2936 12.2392C18.5872 12.3999 18.8054 12.6723 18.9006 12.9939C19.0007 13.3171 18.9646 13.6665 18.8021 13.9618C18.4904 14.5524 17.8834 14.9462 16.9975 14.9462C16.4889 14.9462 13.4619 14.8642 13.4619 14.8642L13.498 15.6189L16.9646 15.5696C17.9982 15.5696 18.8514 15.1595 19.3436 14.2407C19.6028 13.8174 19.6618 13.3007 19.5076 12.8298Z" fill="url(#paint3_linear_1007_268)"/>
<path id="Vector_14" d="M11.4845 15.2584C11.5845 15.365 11.6616 15.4897 11.7141 15.6259L13.5927 15.6144C13.5927 15.3683 13.5598 15.1222 13.5598 14.8597C13.0677 14.8433 12.0538 14.8269 11.7388 14.8154C11.6928 14.9844 11.6026 15.1386 11.4746 15.2584H11.4845Z" fill="#7F0099"/>
</g>
<g id="hat">
<path id="Vector_15" d="M17.1939 8.99062L17.7682 9.07266L17.9158 8.49844L17.9979 8.17031L14.7002 7.71094C16.1932 8.84297 17.0955 8.99062 17.1939 8.99062Z" fill="#FF4545"/>
<path id="Vector_16" d="M19.8357 0.886719L18.5068 1.64141L18.1787 1.82188L19.5568 2.01875C19.6553 1.60859 19.8357 0.886719 19.8357 0.886719Z" fill="#FF4545"/>
<path id="Vector_17" d="M16.8988 2.54297L15.5371 3.31406L19.0973 3.82266L19.327 2.8875L16.8988 2.54297Z" fill="#FF4545"/>
<path id="Vector_18" d="M13.0105 4.7416H12.9941L18.6543 5.56191L18.8676 4.69238L14.2574 4.03613L13.0105 4.7416Z" fill="#FF4545"/>
<path id="Vector_19" d="M13.4863 6.62832L18.2113 7.30098L18.441 6.41504L12.748 5.59473C12.8137 5.7752 13.0105 6.13613 13.4863 6.62832Z" fill="#FF4545"/>
<path id="Vector_20" d="M14.2578 4.03633L18.868 4.69258L19.0977 3.82305L15.5375 3.31445L14.2578 4.03633Z" fill="#FF9C9C"/>
<path id="Vector_21" d="M19.4586 2.3793C19.4586 2.3793 19.5078 2.14961 19.5406 2.03477L18.1625 1.83789L16.8828 2.55977L19.3109 2.9043L19.4586 2.3793Z" fill="#FF9C9C"/>
<path id="Vector_22" d="M12.5186 5.00391L12.699 5.52891C12.7056 5.55844 12.7171 5.58633 12.7318 5.61094L18.4248 6.43125L18.6381 5.56172L12.9779 4.75781L12.5186 5.00391Z" fill="#FF9C9C"/>
<path id="Vector_23" d="M14.6348 7.66172C14.6512 7.67813 14.684 7.69453 14.7004 7.71094L17.998 8.18672L18.2113 7.31719L13.4863 6.64453C13.8456 7.00875 14.2295 7.34836 14.6348 7.66172Z" fill="#FF9C9C"/>
<path id="Vector_24" d="M19.8197 1.8543C20.2547 1.8543 20.6072 1.50172 20.6072 1.0668C20.6072 0.631873 20.2547 0.279297 19.8197 0.279297C19.3848 0.279297 19.0322 0.631873 19.0322 1.0668C19.0322 1.50172 19.3848 1.8543 19.8197 1.8543Z" fill="#C93737"/>
</g>
</g>
</g>
<path id="Vector_25" d="M11.7868 15.0661C12.028 14.8577 12.1789 14.564 12.2084 14.2458C12.2544 13.9258 12.1592 13.6026 11.9459 13.3598C11.5637 12.8578 10.5005 12.9825 10.5005 12.9825C10.2151 12.994 9.88531 13.1301 9.92633 13.4583C9.98047 13.6469 10.133 13.7913 10.3234 13.834C10.7434 13.934 11.3422 13.834 11.3586 14.2605C11.3783 14.7396 10.6433 14.5427 10.5842 15.0497C10.5252 15.5566 11.3586 15.4894 11.3586 15.8388C11.3586 16.1062 11.0846 16.1522 10.7959 16.2129C10.5481 16.2637 10.0723 16.3408 10.0346 16.6247C9.99687 16.9085 10.1593 17.258 10.8287 17.1562C11.882 16.9922 12.2363 16.4196 12.2363 16.0652C12.2429 15.6813 12.0788 15.3155 11.7868 15.0661Z" fill="#422B0D"/>
<g id="smiling-eyes-grinning-face">
<g id="eyes">
<path id="Vector_26" d="M8.18077 10.7345L8.15616 10.7033L8.09054 10.6196L8.00686 10.5294C7.97405 10.4933 7.93468 10.4539 7.8953 10.4145C7.85429 10.3752 7.81163 10.3374 7.76569 10.303C7.72468 10.2718 7.68202 10.2439 7.63608 10.2193C7.60491 10.2013 7.57046 10.1881 7.53436 10.1816C7.52288 10.1799 7.51304 10.1799 7.50155 10.1816C7.50155 10.1816 7.50155 10.1816 7.48843 10.1816H7.51796H7.43265H7.44413C7.43757 10.1799 7.43265 10.1799 7.42608 10.1816C7.38999 10.1881 7.35554 10.2013 7.32436 10.2193C7.27843 10.2439 7.23577 10.2718 7.19476 10.303C7.1521 10.3358 7.1078 10.3752 7.06515 10.4145C6.98476 10.4933 6.91421 10.5786 6.86499 10.6295L6.78624 10.723L6.75015 10.764C6.52702 11.0117 6.15296 11.0511 5.88226 10.8575C5.70999 10.7377 5.6214 10.5294 5.65421 10.321C5.65421 10.321 5.66569 10.2587 5.69522 10.157C5.74116 9.99945 5.80679 9.84852 5.88882 9.70742C6.01679 9.47445 6.19069 9.26938 6.39905 9.10531C6.54179 8.99703 6.69929 8.91008 6.86827 8.84937C6.91421 8.83133 6.96343 8.81656 7.01101 8.80508C7.06515 8.78867 7.11929 8.77719 7.17507 8.76898L7.27022 8.75586H7.34897H7.43429H7.55569H7.63444C7.6853 8.75586 7.7378 8.76898 7.78866 8.77719C7.88874 8.79523 7.98554 8.82148 8.08069 8.85594C8.24968 8.91664 8.40718 9.00359 8.54991 9.11188C8.76155 9.27266 8.94038 9.47445 9.07163 9.70578C9.11921 9.78617 9.16186 9.87148 9.19632 9.95844C9.22749 10.0306 9.25046 10.1077 9.27015 10.1652C9.28983 10.2226 9.28819 10.2505 9.29476 10.2784V10.3161C9.33905 10.6327 9.11757 10.9264 8.80093 10.9707C8.79436 10.9723 8.7878 10.9723 8.78288 10.9723C8.55483 11.0068 8.32351 10.9166 8.18077 10.7345Z" fill="#422B0D"/>
<path id="Vector_27" d="M14.2738 10.7345L14.2492 10.7033L14.1836 10.6196L14.1098 10.5294C14.0769 10.4933 14.0376 10.4539 13.9982 10.4145C13.9572 10.3752 13.9145 10.3374 13.8686 10.303C13.8276 10.2718 13.7849 10.2439 13.739 10.2193C13.7078 10.2013 13.6733 10.1881 13.6389 10.1816C13.6274 10.1799 13.6176 10.1799 13.6061 10.1816C13.6061 10.1816 13.5962 10.1816 13.593 10.1816H13.6176H13.5323H13.5437H13.5257C13.4912 10.1881 13.4568 10.2013 13.4256 10.2193C13.3797 10.2439 13.337 10.2718 13.296 10.303C13.2501 10.3374 13.2074 10.3752 13.1664 10.4145C13.0844 10.4933 13.0155 10.5786 12.9646 10.6295L12.8858 10.723L12.8498 10.764C12.6266 11.0117 12.2526 11.0511 11.9819 10.8575C11.8096 10.7377 11.721 10.5294 11.7538 10.321C11.7538 10.321 11.7653 10.2587 11.7965 10.157C11.8375 9.99781 11.8982 9.84359 11.9769 9.69922C12.1082 9.46789 12.287 9.26609 12.4987 9.10531C12.6414 8.99703 12.8005 8.91008 12.9695 8.84937C13.0155 8.83133 13.063 8.81656 13.1106 8.80508C13.1648 8.78867 13.2189 8.77719 13.2747 8.76898L13.3698 8.75586H13.4486H13.5339H13.6553H13.7341C13.7866 8.75586 13.8374 8.76898 13.8883 8.77719C14.1655 8.82477 14.4264 8.93797 14.6512 9.10531C14.8628 9.26609 15.04 9.46789 15.1729 9.69922C15.2205 9.77961 15.2615 9.86492 15.2959 9.95188C15.3255 10.0191 15.3501 10.088 15.3698 10.1586C15.3812 10.1963 15.3894 10.2341 15.3944 10.2718V10.3095C15.4403 10.6245 15.2205 10.9182 14.9055 10.9625C14.8989 10.9641 14.8923 10.9641 14.8841 10.9658C14.6544 11.0019 14.4215 10.9149 14.2738 10.7345Z" fill="#422B0D"/>
</g>
</g>
</g>
</g>
<defs>
<radialGradient id="paint0_radial_1007_268" cx="0" cy="0" r="1" gradientUnits="userSpaceOnUse" gradientTransform="translate(10.4327 12.3196) scale(8.31119)">
<stop offset="0.5" stop-color="#FDE030"/>
<stop offset="0.92" stop-color="#F7C02B"/>
<stop offset="1" stop-color="#F4A223"/>
</radialGradient>
<radialGradient id="paint1_radial_1007_268" cx="0" cy="0" r="1" gradientUnits="userSpaceOnUse" gradientTransform="translate(5.54589 12.3244) scale(3.12502 2.80614)">
<stop stop-color="#ED7770"/>
<stop offset="0.9" stop-color="#ED7770" stop-opacity="0"/>
</radialGradient>
<radialGradient id="paint2_radial_1007_268" cx="0" cy="0" r="1" gradientUnits="userSpaceOnUse" gradientTransform="translate(20.7576 192.378) scale(3.18773)">
<stop stop-color="#ED7770"/>
<stop offset="0.9" stop-color="#ED7770" stop-opacity="0"/>
</radialGradient>
<linearGradient id="paint3_linear_1007_268" x1="13.4849" y1="13.5723" x2="19.5864" y2="13.5723" gradientUnits="userSpaceOnUse">
<stop stop-color="#004054"/>
<stop offset="0.99" stop-color="#45A4FF"/>
</linearGradient>
</defs>
</svg>
