<svg width="19" height="17" viewBox="0 0 19 17" fill="none" xmlns="http://www.w3.org/2000/svg">
<g id="&#240;&#159;&#166;&#134; emoji &#34;fork and knife with plate&#34;">
<path id="Vector" d="M9.3957 15.2914C13.1011 15.2914 16.1049 12.2876 16.1049 8.58223C16.1049 4.87685 13.1011 1.87305 9.3957 1.87305C5.69033 1.87305 2.68652 4.87685 2.68652 8.58223C2.68652 12.2876 5.69033 15.2914 9.3957 15.2914Z" fill="#C3C5C7"/>
<path id="Vector_2" d="M9.36671 4.03858C6.74403 4.03858 4.57879 6.05134 4.4873 8.58253V8.43005C4.4873 5.83786 6.68304 3.70312 9.36671 3.70312C12.0504 3.70312 14.2461 5.80737 14.2461 8.43005V8.58253C14.1546 6.05134 12.0199 4.03858 9.36671 4.03858Z" fill="#80898E"/>
<path id="Vector_3" d="M9.36671 13.126C11.9894 13.126 14.1546 11.1132 14.2461 8.58203V8.73451C14.2461 11.3267 12.0504 13.4614 9.36671 13.4614C6.68304 13.4614 4.4873 11.3572 4.4873 8.73451V8.58203C4.60929 11.1132 6.74403 13.126 9.36671 13.126Z" fill="white"/>
<g id="Group">
<path id="Vector_4" d="M0.461127 1.07987C0.52212 0.805402 0.674601 1.07987 0.674601 1.07987C0.674601 1.07987 0.735594 4.03801 1.04056 4.0685C1.37602 4.1295 1.13205 1.01888 1.5285 0.957884C1.89445 0.896891 1.68098 4.1295 2.01644 4.099C2.3519 4.0685 2.41289 1.07987 2.41289 1.07987C2.41289 1.07987 2.56537 0.805402 2.62636 1.07987C3.51075 4.58694 2.80934 6.02026 2.80934 6.02026C2.80934 6.02026 2.68736 6.32523 2.38239 6.32523C2.3519 6.32523 2.38239 14.6507 2.38239 15.7791C2.38239 16.328 0.705098 16.2975 0.705098 15.7791C0.705098 14.6507 0.735594 6.32523 0.705098 6.32523C0.400135 6.32523 0.27815 6.02026 0.27815 6.02026C0.27815 6.02026 -0.453761 4.58694 0.461127 1.07987Z" fill="#80898E"/>
<path id="Vector_5" d="M18.1178 0.958008C17.7518 0.958008 16.166 2.08637 16.166 6.29486C16.166 7.63669 16.898 7.63669 16.898 8.49059V15.9927C16.898 15.9927 17.6909 16.5111 18.3008 15.9317V1.07999C18.3008 1.07999 18.3008 0.958008 18.1178 0.958008Z" fill="#80898E"/>
</g>
</g>
</svg>
