<svg width="18" height="17" viewBox="0 0 18 17" fill="none" xmlns="http://www.w3.org/2000/svg">
<g id="&#240;&#159;&#166;&#134; emoji &#34;shopping bags&#34;">
<path id="Vector" d="M1.00781 10.3802L1.29085 0.319336L8.18678 0.962613L7.72362 10.6632L1.00781 10.3802Z" fill="#ED4C5C"/>
<path id="Vector_2" d="M8.05647 4.95118L8.10793 3.66463L5.63775 3.45878L5.7664 0.602629L4.14535 0.448242L4.04242 2.63538L4.01669 3.33012L1.08335 3.09854L1.05762 4.56521L3.99096 4.74533L3.81084 10.6377L5.40617 10.7149L5.58629 4.82253L8.05647 4.95118Z" fill="#FCBE10"/>
<path id="Vector_3" d="M3.45096 3.74219C3.45096 3.74219 3.34803 5.36325 2.13867 6.28956L3.19365 6.39249L3.06499 7.67904C3.06499 7.67904 4.30008 6.2381 4.50593 3.84511L3.45096 3.74219ZM6.15272 3.9995C6.15272 3.9995 5.94687 5.62056 6.97611 6.75272L5.92114 6.6498L5.79248 7.93635C5.79248 7.93635 4.84044 6.28956 5.07201 3.89657L6.15272 3.9995Z" fill="#FFCE31"/>
<path id="Vector_4" d="M4.68631 3.9475C4.66057 4.35919 4.14595 4.71943 3.57987 4.74516L3.11671 4.77089C2.55063 4.79662 2.19039 4.59077 2.31905 4.282C2.4477 3.97323 2.49916 3.51007 2.42197 3.20129C2.34478 2.89252 2.73074 2.73813 3.29683 2.86679L3.73426 2.96971C4.30034 3.09837 4.71204 3.5358 4.68631 3.9475Z" fill="#FFE62E"/>
<path id="Vector_5" d="M2.47307 4.33384C2.42161 4.35957 2.47307 4.41103 2.47307 4.43676C2.52453 4.48822 2.65318 4.56542 2.88476 4.59115H3.11634L3.5795 4.56542C3.88828 4.53969 4.19705 4.41103 4.37717 4.23091C4.37717 4.25664 3.03915 3.87068 2.47307 4.33384Z" fill="#FFCE31"/>
<path id="Vector_6" d="M4.89177 3.94742C4.86604 4.35912 5.27773 4.79655 5.81809 4.9252L6.25552 5.02813C6.79587 5.15678 7.20757 5.0024 7.13037 4.69362C7.05318 4.38485 7.10464 3.89596 7.2333 3.61292C7.36195 3.32988 7.00172 3.0983 6.43563 3.12403L5.97247 3.14976C5.43212 3.20122 4.94323 3.53572 4.89177 3.94742Z" fill="#FFE62E"/>
<g id="Group">
<path id="Vector_7" d="M7.00327 4.74544C7.05473 4.7969 6.97754 4.82263 6.97754 4.84837C6.92607 4.89983 6.77169 4.95129 6.54011 4.92556C6.46292 4.92556 6.38572 4.89983 6.30853 4.89983L5.8711 4.7969C5.56233 4.71971 5.30502 4.53959 5.15063 4.33374C5.15063 4.30801 6.54011 4.20509 7.00327 4.74544ZM4.73893 3.81912C4.73893 3.81912 4.58455 3.92205 4.3015 3.61327C3.967 3.25304 3.34945 3.639 4.06993 3.89632C4.45589 4.02497 4.73893 3.81912 4.73893 3.81912ZM4.86759 3.84485C4.86759 3.84485 4.99624 3.97351 5.35648 3.7162C5.76818 3.43316 6.2828 3.89631 5.5366 4.02497C5.1249 4.07643 4.86759 3.84485 4.86759 3.84485Z" fill="#FFCE31"/>
<path id="Vector_8" d="M4.73885 4.51422C4.43008 4.48849 4.35289 4.69433 4.40435 3.9224C4.48154 3.15047 4.533 3.38205 4.84178 3.40778C5.15055 3.43351 5.22774 3.22766 5.17628 3.99959C5.12482 4.77153 5.04763 4.53995 4.73885 4.51422Z" fill="#FFCE31"/>
</g>
<path id="Vector_9" d="M4.73773 4.514C4.50615 4.48827 4.40323 4.71985 4.48042 3.92218C4.55761 3.12452 4.58335 3.3561 4.84066 3.38183C5.07224 3.40756 5.17516 3.17598 5.09797 3.97365C5.02077 4.77131 4.99504 4.53973 4.73773 4.514Z" fill="#FFE62E"/>
<path id="Vector_10" d="M10.707 3.48426L11.9421 0.319336L16.5994 1.76028L15.879 4.33338L10.707 3.48426Z" fill="#C28FEF"/>
<path id="Vector_11" d="M12.4316 3.76771L14.0527 4.02502L14.9533 1.22034L13.4094 0.731445L12.4316 3.76771Z" fill="#FFE62E"/>
<path id="Vector_12" d="M9.05957 3.20117V8.21873L17.1906 8.14154V3.20117H9.05957Z" fill="#42ADE2"/>
<path id="Vector_13" d="M9.06004 3.20117L7.69629 3.74152V8.21873H9.06004V3.20117Z" fill="#0071BC"/>
<path id="Vector_14" d="M4.84071 16.7876L2.78223 15.7583V7.00977H4.84071V16.7876Z" fill="#3E4347"/>
<path id="Vector_15" d="M2.78212 15.7583L0.723633 16.7876V7.00977H2.78212V15.7583ZM4.84061 7.00977H17.1915V16.7876H4.84061V7.00977Z" fill="#62727A"/>
<g id="Group_2">
<path id="Vector_16" d="M8.95846 10.0966C9.38478 10.0966 9.73039 9.75099 9.73039 9.32467C9.73039 8.89834 9.38478 8.55273 8.95846 8.55273C8.53213 8.55273 8.18652 8.89834 8.18652 9.32467C8.18652 9.75099 8.53213 10.0966 8.95846 10.0966Z" fill="#3E4347"/>
<path id="Vector_17" d="M14.1049 10.0966C14.5313 10.0966 14.8769 9.75099 14.8769 9.32467C14.8769 8.89834 14.5313 8.55273 14.1049 8.55273C13.6786 8.55273 13.333 8.89834 13.333 9.32467C13.333 9.75099 13.6786 10.0966 14.1049 10.0966Z" fill="#3E4347"/>
</g>
<path id="Vector_18" d="M8.7002 9.3251V12.0269C8.7002 13.7508 9.70371 15.1661 11.5306 15.2432C12.4827 15.269 13.3318 14.7286 13.8979 13.9824C14.3096 13.4163 14.361 12.7216 14.361 12.0269V9.3251C14.361 8.99059 13.8464 8.99059 13.8464 9.3251V12.5929C13.7949 13.828 12.6885 14.7029 11.5306 14.7286C10.3984 14.7544 9.49786 13.9052 9.26628 12.8503C9.16335 12.4128 9.21482 11.8982 9.21482 11.4608V9.3251C9.21482 8.99059 8.7002 8.99059 8.7002 9.3251Z" fill="#D0D0D0"/>
</g>
</svg>
