<svg width="21" height="21" viewBox="0 0 21 21" fill="none" xmlns="http://www.w3.org/2000/svg">
<g id="&#240;&#159;&#166;&#134; emoji &#34;admission tickets&#34;">
<path id="Vector" d="M20.9383 13.4506L20.6567 12.6684C20.4377 12.7623 20.1874 12.6371 20.1249 12.4181C20.031 12.1991 20.1562 11.9488 20.3752 11.8862L20.0623 11.0415C19.8433 11.1354 19.593 11.0102 19.5304 10.7912C19.4366 10.5722 19.5617 10.3219 19.7807 10.2593L19.4991 9.47716C19.2801 9.57102 19.0298 9.44587 18.9673 9.22687C18.8734 9.00786 18.9985 8.75756 19.2175 8.69499L18.936 7.91282C18.717 7.9754 18.498 7.88154 18.4041 7.69382C17.5594 7.78768 16.7146 7.31837 16.433 6.47363L4.73179 10.6661C5.07595 11.6359 4.57536 12.6997 3.60547 13.0751L5.8894 19.3012C6.85929 18.957 7.92304 19.4576 8.29848 20.4275L19.9684 16.1725C19.6556 15.3278 19.9997 14.4205 20.7193 13.9512C20.6255 13.7634 20.7193 13.5131 20.9383 13.4506Z" fill="#FBBF67"/>
<path id="Vector_2" d="M18.6235 15.0145L8.54918 18.6751C8.01731 18.8628 7.42286 18.5812 7.20385 18.0493L5.42051 13.1373C5.23279 12.6054 5.51437 12.011 6.04624 11.792L16.1206 8.13145C16.6524 7.94373 17.2469 8.22531 17.4659 8.75718L19.2492 13.6692C19.437 14.2324 19.1554 14.8268 18.6235 15.0145ZM6.23396 12.3239C5.95238 12.4177 5.82724 12.7306 5.9211 12.9809L7.70444 17.8929C7.7983 18.1745 8.11117 18.2996 8.36146 18.2058L18.4358 14.5452C18.7174 14.4514 18.8425 14.1385 18.7487 13.8882L16.9653 8.97619C16.8715 8.69461 16.5586 8.56946 16.3083 8.66332L6.23396 12.3239Z" fill="#FF5555"/>
<path id="Vector_3" d="M10.5818 13.8888L10.3003 13.9826C10.269 13.9826 10.2377 13.9826 10.2377 13.9513L10.0813 13.6385L9.89353 13.701L9.98739 14.0452C9.98739 14.0765 9.98739 14.1078 9.95611 14.1078L9.67453 14.2016C9.64324 14.2016 9.64324 14.2016 9.61195 14.1703L9.08008 12.0116C9.08008 11.9803 9.08008 11.949 9.11136 11.949L9.51809 11.7926C9.54938 11.7926 9.58067 11.7926 9.58067 11.8238L10.5818 13.8262C10.6131 13.8575 10.6131 13.8888 10.5818 13.8888ZM9.92482 13.2943L9.54938 12.4809H9.51809L9.76839 13.3256L9.92482 13.2943ZM11.1763 12.0116L11.5517 13.0753C11.6143 13.2943 11.5204 13.5133 11.3014 13.6072L10.8321 13.7636C10.8008 13.7636 10.7696 13.7636 10.7696 13.7323L10.1438 11.9803C10.1438 11.949 10.1438 11.9177 10.1751 11.9177L10.6444 11.7613C10.8634 11.6987 11.1137 11.7926 11.1763 12.0116ZM10.8321 12.168C10.8321 12.1367 10.7696 12.1054 10.7383 12.1054L10.6131 12.1367L11.0511 13.3256L11.145 13.2943C11.1763 13.2943 11.2076 13.2317 11.1763 13.2005L10.8321 12.168ZM12.4903 11.1355L13.1474 12.8876C13.1474 12.9189 13.1474 12.9502 13.1161 12.9502L12.8345 13.044C12.8032 13.044 12.7719 13.044 12.7719 13.0127L12.459 12.1993L12.5216 13.0127C12.5216 13.044 12.4903 13.044 12.4903 13.0127L12.021 12.3557L12.3339 13.1692C12.3339 13.2005 12.3339 13.2317 12.3026 13.2317L12.021 13.3256C11.9897 13.3256 11.9585 13.3256 11.9585 13.2943L11.3014 11.5423C11.3014 11.511 11.3014 11.4797 11.3327 11.4797L11.583 11.3858C11.6143 11.3858 11.6456 11.3858 11.6456 11.4171L12.24 12.2931L12.1462 11.2607C12.1462 11.2294 12.1462 11.1981 12.1775 11.1981L12.4278 11.1043C12.459 11.1043 12.4903 11.1042 12.4903 11.1355ZM13.7731 12.6686C13.7731 12.6999 13.7731 12.7312 13.7418 12.7312L13.4602 12.825C13.4289 12.825 13.3976 12.825 13.3976 12.7937L12.7719 11.0417C12.7719 11.0104 12.7719 10.9791 12.8032 10.9791L13.0848 10.8852C13.1161 10.8852 13.1474 10.8852 13.1474 10.9165L13.7731 12.6686ZM14.2424 10.5098L14.3362 10.7914C14.3362 10.8227 14.3362 10.854 14.305 10.854L14.086 10.9478L14.6178 12.387C14.6178 12.4183 14.6178 12.4496 14.5865 12.4496L14.305 12.5434C14.2737 12.5434 14.2424 12.5434 14.2424 12.5122L13.7418 11.0417L13.5228 11.1355C13.4915 11.1355 13.4602 11.1355 13.4602 11.1043L13.3664 10.8227C13.3664 10.7914 13.3664 10.7601 13.3976 10.7601L14.1798 10.4785C14.2111 10.4785 14.2424 10.4785 14.2424 10.5098ZM12.0836 16.1414L11.9585 16.1727C11.7395 16.2353 11.5204 16.1414 11.4266 15.9224L10.926 14.4832C10.8634 14.2642 10.9573 14.0452 11.1763 13.9513L11.3014 13.9201C11.5204 13.8575 11.7395 13.9513 11.8333 14.1703L12.3652 15.6095C12.4278 15.7973 12.3026 16.0476 12.0836 16.1414ZM11.364 14.2642C11.3014 14.2955 11.2701 14.3268 11.3014 14.3894L11.802 15.7973C11.802 15.8285 11.8646 15.8598 11.8959 15.8285H11.9272C11.9585 15.8285 11.9897 15.766 11.9897 15.7347L11.4892 14.3268C11.4579 14.2642 11.3953 14.2642 11.364 14.2642ZM13.0535 13.701L13.7105 15.4531C13.7105 15.4844 13.7105 15.5157 13.6792 15.5157L13.4915 15.5783C13.4602 15.5783 13.4289 15.5783 13.4289 15.547L12.8032 14.8587L13.0848 15.6721C13.0848 15.7034 13.0848 15.7347 13.0535 15.7347L12.7719 15.8285C12.7406 15.8285 12.7093 15.8285 12.7093 15.7973L12.0523 14.0452C12.0523 14.0139 12.0523 13.9826 12.0836 13.9826L12.3026 13.9201C12.3339 13.9201 12.3652 13.9201 12.3652 13.9513L13.0222 14.7335L12.7093 13.8262C12.7093 13.7949 12.7093 13.7636 12.7406 13.7636L13.0222 13.6698C13.0222 13.6698 13.0535 13.6698 13.0535 13.701ZM14.6178 14.8274L14.7117 15.109C14.7117 15.1402 14.7117 15.1715 14.6804 15.1715L14.0234 15.4218C13.9921 15.4218 13.9608 15.4218 13.9608 15.3905L13.3038 13.6385C13.3038 13.6072 13.3038 13.5759 13.3351 13.5759L13.9921 13.3256C14.0234 13.3256 14.0547 13.3256 14.0547 13.3569L14.1485 13.6385C14.1485 13.6698 14.1485 13.701 14.1172 13.701L13.7731 13.8262L13.8982 14.1703L14.2111 14.0452C14.2424 14.0452 14.2737 14.0452 14.2737 14.0765L14.3675 14.3581C14.3675 14.3894 14.3675 14.4206 14.3362 14.4206L14.0234 14.5458L14.1798 14.9525L14.524 14.8274C14.5865 14.7961 14.6178 14.7961 14.6178 14.8274Z" fill="#89664C"/>
<g id="Group" opacity="0.5">
<path id="Vector_4" d="M8.86262 17.5492L18.3738 9.57106C17.9045 9.0079 17.8419 8.2883 18.0922 7.66257C17.3413 7.63128 16.6843 7.16198 16.4027 6.44238L4.73277 10.6661C5.07692 11.636 4.57633 12.6997 3.60645 13.0752L4.32604 15.0775L6.20324 17.3302C7.0167 16.6419 8.17431 16.767 8.86262 17.5492Z" fill="#947151"/>
<path id="Vector_5" opacity="0.5" d="M8.86262 17.5492L18.3738 9.57106C17.9045 9.0079 17.8419 8.2883 18.0922 7.66257C17.3413 7.63128 16.6843 7.16198 16.4027 6.44238L4.73277 10.6661C5.07692 11.636 4.57633 12.6997 3.60645 13.0752L4.32604 15.0775L6.20324 17.3302C7.0167 16.6419 8.17431 16.767 8.86262 17.5492Z" fill="#947151"/>
</g>
<path id="Vector_6" d="M17.3406 5.44146L16.8087 4.78444C16.621 4.94087 16.3707 4.90959 16.2143 4.72187C16.0578 4.53415 16.0891 4.28385 16.2768 4.12742L15.745 3.4704C15.5572 3.62683 15.3069 3.59554 15.1505 3.40782C14.9941 3.2201 15.0254 2.96981 15.2131 2.81338L14.6812 2.15635C14.4935 2.31279 14.2432 2.2815 14.0868 2.09378C13.8677 1.96863 13.899 1.71834 14.0555 1.56191L13.5236 0.904885C13.3359 1.06132 13.0856 1.03003 12.9291 0.873598C12.1783 1.24904 11.2397 1.09261 10.6452 0.404297L1.13405 8.38241C1.82235 9.19587 1.69721 10.3848 0.915039 11.0418L5.17004 16.1415C5.9522 15.4845 7.1411 15.5784 7.79812 16.3605L17.3093 8.38241C16.7461 7.69411 16.7461 6.72422 17.2467 6.03591C17.1529 5.84819 17.1841 5.59789 17.3406 5.44146Z" fill="#FBBF67"/>
<path id="Vector_7" d="M15.6827 7.72575L7.48558 14.6088C7.04756 14.9843 6.39054 14.9217 6.0151 14.4837L2.66742 10.479C2.29198 10.041 2.35455 9.38395 2.79257 9.00851L10.9897 2.12543C11.4277 1.74999 12.0847 1.81256 12.4602 2.25057L15.8078 6.25528C16.1833 6.69329 16.1207 7.35031 15.6827 7.72575ZM3.13672 9.41524C2.91771 9.60296 2.88643 9.91582 3.07415 10.1348L6.42183 14.1708C6.60955 14.3898 6.92242 14.4211 7.14142 14.2334L15.3385 7.35031C15.5576 7.16259 15.5888 6.84972 15.4011 6.63072L12.0534 2.59473C11.8657 2.37572 11.5529 2.34443 11.3338 2.53216L3.13672 9.41524Z" fill="#FF5555"/>
<path id="Vector_8" d="M7.76602 9.4144L7.54702 9.60212C7.51573 9.6334 7.48444 9.60212 7.48444 9.60212L7.23415 9.35182L7.04643 9.47697L7.26543 9.75855V9.82112L7.04643 10.0088C7.01514 10.0401 7.01514 10.0088 6.98385 10.0088L5.76367 8.16293V8.10035L6.10783 7.81877C6.13911 7.78749 6.1704 7.78749 6.1704 7.81877L7.76602 9.35182V9.4144ZM6.95257 9.07024L6.32683 8.41322L6.29555 8.44451L6.82742 9.1641L6.95257 9.07024ZM7.67216 7.44333L8.39176 8.31936C8.54819 8.50708 8.5169 8.75737 8.32918 8.91381L7.95374 9.22668C7.92246 9.25796 7.89117 9.22668 7.89117 9.22668L6.67099 7.78749C6.6397 7.7562 6.67099 7.72491 6.67099 7.72491L7.04643 7.41204C7.26544 7.25561 7.51573 7.25561 7.67216 7.44333ZM7.39058 7.69363C7.3593 7.66234 7.29672 7.66234 7.26543 7.69363L7.17157 7.7562L7.98503 8.72609L8.07889 8.66351C8.11018 8.63223 8.11018 8.60094 8.07889 8.53837L7.39058 7.69363ZM8.61076 6.16058L9.83095 7.59977C9.86223 7.63105 9.83095 7.66234 9.83095 7.66234L9.58065 7.85006C9.54937 7.88135 9.51808 7.85006 9.51808 7.85006L8.95492 7.19304L9.29907 7.94392C9.29907 7.97521 9.29907 7.97521 9.26779 7.97521L8.61076 7.50591L9.17393 8.16293C9.20521 8.19421 9.17393 8.2255 9.17393 8.2255L8.92363 8.41322C8.89235 8.44451 8.86106 8.41322 8.86106 8.41322L7.64088 6.97403C7.60959 6.94274 7.64088 6.91146 7.64088 6.91146L7.85988 6.72374C7.89117 6.69245 7.92246 6.72374 7.92246 6.72374L8.7672 7.31818L8.32918 6.37958V6.31701L8.54819 6.12929C8.57948 6.16058 8.61076 6.16058 8.61076 6.16058ZM10.3628 7.16175C10.3941 7.19304 10.3628 7.22432 10.3628 7.22432L10.1438 7.41204C10.1125 7.44333 10.0812 7.41204 10.0812 7.41204L8.86106 5.97285C8.82977 5.94157 8.86106 5.91028 8.86106 5.91028L9.08007 5.72256C9.11135 5.69127 9.14264 5.72256 9.14264 5.72256L10.3628 7.16175ZM10.05 4.97168L10.2377 5.19069C10.269 5.22197 10.2377 5.25326 10.2377 5.25326L10.05 5.40969L11.0511 6.59859C11.0824 6.62988 11.0511 6.66116 11.0511 6.66116L10.8321 6.84888H10.7695L9.76837 5.65999L9.58065 5.81642C9.54937 5.84771 9.51808 5.81642 9.51808 5.81642L9.33036 5.59741C9.29907 5.56613 9.33036 5.53484 9.33036 5.53484L9.98738 5.00297C9.98738 4.97168 10.0187 4.97168 10.05 4.97168ZM9.95609 11.01L9.86223 11.1039C9.67451 11.2603 9.42422 11.229 9.26779 11.0413L8.2979 9.8837C8.14146 9.69598 8.17275 9.44568 8.36047 9.28925L8.45433 9.19539C8.64205 9.03896 8.89235 9.07024 9.04878 9.25796L9.98738 10.4156C10.1438 10.6033 10.1125 10.8536 9.95609 11.01ZM8.61076 9.50826C8.54819 9.53954 8.54819 9.60212 8.57948 9.6334L9.54937 10.7597C9.58065 10.791 9.61194 10.791 9.67451 10.7597L9.7058 10.7284C9.73709 10.6972 9.73709 10.6346 9.7058 10.6033L8.73591 9.50826C8.70462 9.47697 8.64205 9.47697 8.61076 9.50826ZM10.0187 8.38193L11.2389 9.82112C11.2701 9.85241 11.2389 9.8837 11.2389 9.8837L11.0824 10.0088C11.0511 10.0401 11.0198 10.0401 11.0198 10.0088L10.2064 9.57083L10.7695 10.2279C10.8008 10.2591 10.7695 10.2904 10.7695 10.2904L10.5505 10.4781C10.5193 10.5094 10.488 10.4781 10.488 10.4781L9.26779 9.03896C9.2365 9.00767 9.26779 8.97638 9.26779 8.97638L9.42422 8.85123C9.45551 8.81995 9.48679 8.81995 9.48679 8.85123L10.3628 9.35182L9.73709 8.63223C9.7058 8.60094 9.73709 8.56965 9.73709 8.56965L9.95609 8.38193H10.0187ZM11.8646 8.91381L12.0523 9.13281C12.0836 9.1641 12.0523 9.19539 12.0523 9.19539L11.5204 9.66469C11.4891 9.69598 11.4579 9.66469 11.4579 9.66469L10.2377 8.2255C10.2064 8.19421 10.2377 8.16293 10.2377 8.16293L10.7695 7.69363C10.8008 7.66234 10.8321 7.69363 10.8321 7.69363L11.0198 7.91263C11.0511 7.94392 11.0198 7.97521 11.0198 7.97521L10.7383 8.2255L10.9886 8.50708L11.2389 8.28807C11.2701 8.25679 11.3014 8.28807 11.3014 8.28807L11.4891 8.50708C11.5204 8.53837 11.4891 8.56965 11.4891 8.56965L11.2389 8.78866L11.5204 9.13281L11.802 8.88252C11.8333 8.88252 11.8646 8.88252 11.8646 8.91381Z" fill="#89664C"/>
</g>
</svg>
