<svg width="16" height="16" viewBox="0 0 16 16" fill="none" xmlns="http://www.w3.org/2000/svg">
<g clip-path="url(#clip0_472_150)">
<path d="M1 1.49844L5.0035 1.49845V0.501953C5.0035 0.225703 5.22725 0.00195312 5.5035 0.00195312C5.77975 0.00195312 6.0035 0.225703 6.0035 0.501953V1.4982H10.0035V0.501953C10.0035 0.225703 10.2273 0.00195312 10.5035 0.00195312C10.7797 0.00195312 11.0035 0.225703 11.0035 0.501953V1.4982H15C15.5523 1.4982 16 1.94595 16 2.4982V14.9982C16 15.5504 15.5523 15.9982 15 15.9982H1C0.44775 15.9982 0 15.5504 0 14.9982V2.4982C0 1.94619 0.44775 1.49844 1 1.49844ZM1 14.9982H15V2.4982H11.0035V3.00195C11.0035 3.27819 10.7797 3.50195 10.5035 3.50195C10.2273 3.50195 10.0035 3.27819 10.0035 3.00195V2.49845H6.0035V3.0022C6.0035 3.27845 5.77975 3.5022 5.5035 3.5022C5.22725 3.5022 5.0035 3.27845 5.0035 3.0022V2.49845H1V14.9982ZM4.5 7.99844H3.5C3.224 7.99844 3 7.77444 3 7.49844V6.49844C3 6.22244 3.224 5.99844 3.5 5.99844H4.5C4.776 5.99844 5 6.22244 5 6.49844V7.49844C5 7.77444 4.776 7.99844 4.5 7.99844ZM4.5 11.9982H3.5C3.224 11.9982 3 11.7744 3 11.4982V10.4982C3 10.2222 3.224 9.99819 3.5 9.99819H4.5C4.776 9.99819 5 10.2222 5 10.4982V11.4982C5 11.7747 4.776 11.9982 4.5 11.9982ZM7.5 9.99819H8.5C8.776 9.99819 9 10.2222 9 10.4982V11.4982C9 11.7744 8.776 11.9982 8.5 11.9982H7.5C7.224 11.9982 7 11.7744 7 11.4982V10.4982C7 10.2224 7.224 9.99819 7.5 9.99819ZM7.5 5.99844H8.5C8.776 5.99844 9 6.22244 9 6.49844V7.49844C9 7.77444 8.776 7.99844 8.5 7.99844H7.5C7.224 7.99844 7 7.77444 7 7.49844V6.49844C7 6.22219 7.224 5.99844 7.5 5.99844ZM11.5 5.99844H12.5C12.776 5.99844 13 6.22244 13 6.49844V7.49844C13 7.77444 12.776 7.99844 12.5 7.99844H11.5C11.224 7.99844 11 7.77444 11 7.49844V6.49844C11 6.22219 11.224 5.99844 11.5 5.99844ZM11.5 9.99819H12.5C12.776 9.99819 13 10.2222 13 10.4982V11.4982C13 11.7744 12.776 11.9982 12.5 11.9982H11.5C11.224 11.9982 11 11.7744 11 11.4982V10.4982C11 10.2224 11.224 9.99819 11.5 9.99819Z" fill="#757575"/>
</g>
<defs>
<clipPath id="clip0_472_150">
<rect width="16" height="16" fill="white" transform="matrix(-1 0 0 1 16 0)"/>
</clipPath>
</defs>
</svg>
