<svg width="16" height="15" viewBox="0 0 16 15" fill="none" xmlns="http://www.w3.org/2000/svg">
<path d="M12.53 4.94181C14.8458 0.968184 10.0827 -1.61073 4.03014 1.15239C0.319668 2.86289 -2.25924 8.12597 2.89858 12.6522C6.55642 15.8627 15.7931 14.0469 15.7931 10.3628C15.7931 6.2839 10.0827 9.09964 12.53 4.94181ZM13.8195 11.4154C13.0826 12.047 11.9248 12.047 11.1879 11.4154C10.4511 10.7838 10.4511 10.2312 11.1879 9.59964C11.9248 8.96807 13.0826 8.96807 13.8195 9.59964C14.5563 10.2312 14.53 10.7838 13.8195 11.4154Z" fill="#F6C799"/>
<path d="M8.21448 10.5997C7.39871 9.96808 6.10925 9.96808 5.29347 10.5997C4.4777 11.2312 4.4777 12.2312 5.29347 12.8628C6.10925 13.4943 7.39871 13.4943 8.21448 12.8628C9.00395 12.2312 9.00395 11.2049 8.21448 10.5997Z" fill="#2CAECE"/>
<path d="M4.63602 7.57311C3.74129 7.15206 2.53078 7.41521 1.89921 8.17836C1.26764 8.94151 1.47817 9.88886 2.37289 10.3099C3.26761 10.731 4.47812 10.4678 5.10969 9.70465C5.74126 8.94151 5.53074 7.99415 4.63602 7.57311Z" fill="#FDF516"/>
<path d="M3.9516 4.15231C3.18845 3.73126 2.05689 3.91547 1.47795 4.57336C0.872696 5.23124 1.03059 6.09965 1.79374 6.49438C2.55688 6.91543 3.68844 6.73122 4.26738 6.07334C4.84632 5.41545 4.71475 4.57336 3.9516 4.15231Z" fill="#FF5555"/>
<path d="M6.95162 1.57337C6.21479 1.15232 5.13586 1.31022 4.55692 1.94179C3.97798 2.57336 4.08324 3.38913 4.84639 3.81018C5.58322 4.23123 6.66215 4.07333 7.24109 3.44176C7.82003 2.81019 7.68845 1.9681 6.95162 1.57337Z" fill="#83BF4F"/>
<path d="M11.2408 1.28399C10.6619 0.810316 9.68823 0.705054 9.00403 1.02084C8.34614 1.33662 8.2672 1.99451 8.84614 2.46819C9.42508 2.94186 10.3987 3.04712 11.0829 2.73134C11.7408 2.38924 11.7935 1.75767 11.2408 1.28399Z" fill="#9156B7"/>
<path d="M10.0028 9.81018C9.50284 10.3628 6.97656 10.8628 6.97656 10.8628C6.97656 10.8628 7.97655 9.94176 8.42391 8.44178C8.63443 7.73126 9.66073 7.73126 10.1081 8.12599C10.5555 8.49441 10.5028 9.25755 10.0028 9.81018Z" fill="#947151"/>
<path d="M14.9235 1.9684C15.1866 1.94208 15.6866 2.38944 15.7129 2.62628C15.7919 3.75784 11.0551 7.81042 11.0551 7.81042L10.2656 7.15253C10.2656 7.15253 13.7656 2.04734 14.9235 1.9684Z" fill="#666666"/>
<path d="M9.58203 7.91549L10.3715 8.57338L11.0557 7.81023L10.2662 7.15234L9.58203 7.91549Z" fill="#CCCCCC"/>
</svg>
