<svg width="19" height="19" viewBox="0 0 19 19" fill="none" xmlns="http://www.w3.org/2000/svg">
<path d="M1.62891 3.36929L4.17691 0.821289L4.7973 1.44168L2.2493 3.98968L1.62891 3.36929ZM6.08102 4.01005L8.62933 1.46268L9.24972 2.08307L6.70141 4.63044L6.08102 4.01005ZM14.8195 16.5611L17.3681 14.0137L17.9885 14.6345L15.4399 17.1818L14.8195 16.5611ZM14.1831 12.0814L16.7317 9.53406L17.3521 10.1548L14.8032 12.7021L14.1831 12.0814Z" fill="#ACB8BF"/>
<path d="M17.0416 18.3926L15.569 5.20139L13.595 3.22741L0.403805 1.75476C-0.222856 1.69209 -0.0975235 3.25874 0.623136 3.60341L10.5557 8.24069L15.193 18.1733C15.5377 18.8939 17.1043 19.0193 17.0416 18.3926Z" fill="#42ADE2"/>
<path d="M18.5759 1.91173C19.2652 0.564407 18.2312 -0.469583 16.8839 0.219744C15.1606 1.09707 12.6226 3.07105 10.0533 5.60902C6.04265 9.61965 3.47335 13.5989 4.31934 14.4763C5.16533 15.3223 9.17596 12.753 13.1866 8.74232C15.7246 6.20435 17.6985 3.63504 18.5759 1.91173Z" fill="#DAE3EA"/>
<path d="M6.38868 18.2364L5.88735 13.5991L5.19802 12.9098L0.560736 12.4085C0.341405 12.3771 0.372738 12.9411 0.623402 13.0665L4.10137 14.6958L5.73068 18.1738C5.85602 18.4244 6.42001 18.4558 6.38868 18.2364Z" fill="#42ADE2"/>
<path d="M5.69889 13.8497C4.2889 15.2597 3.00425 16.231 2.81625 16.0117C2.62825 15.8237 3.59958 14.5077 4.97823 13.0977C6.38821 11.6877 7.67287 10.7164 7.8922 10.9357C8.04887 11.1237 7.07754 12.4397 5.69889 13.8497Z" fill="#ACB8BF"/>
<path d="M18.1069 2.41324C18.2636 1.84924 18.2009 1.31658 17.8563 0.940584C17.5116 0.595921 16.9476 0.501921 16.4149 0.68992L15.3496 1.34791C15.8823 1.15991 16.6656 1.44191 17.0103 1.78658C17.3863 2.16257 17.6369 2.91456 17.4489 3.44723L18.1069 2.41324Z" fill="#3E4347"/>
<path d="M16.1836 2.41132L17.9552 0.638184L18.1548 0.837462L16.3829 2.61091L16.1836 2.41132Z" fill="#DAE3EA"/>
</svg>
