<svg width="18" height="18" viewBox="0 0 18 18" fill="none" xmlns="http://www.w3.org/2000/svg">
<path d="M0.310547 10.9967L0.619918 0L8.15733 0.703117L7.65108 11.3061L0.310547 10.9967Z" fill="#ED4C5C"/>
<path d="M8.01514 5.06244L8.07139 3.65621L5.37143 3.43121L5.51205 0.309373L3.74019 0.140625L3.6277 2.53122L3.59957 3.29059L0.393359 3.03747L0.365234 4.64057L3.57145 4.83744L3.37457 11.278L5.1183 11.3624L5.31518 4.92182L8.01514 5.06244Z" fill="#FCBE10"/>
<path d="M2.98123 3.74072C2.98123 3.74072 2.86873 5.51258 1.54688 6.52506L2.69999 6.63756L2.55936 8.0438C2.55936 8.0438 3.90935 6.46882 4.13434 3.85322L2.98123 3.74072ZM5.93432 4.02197C5.93432 4.02197 5.70933 5.79382 6.83431 7.03131L5.6812 6.91881L5.54058 8.32504C5.54058 8.32504 4.49996 6.52506 4.75309 3.90947L5.93432 4.02197Z" fill="#FFCE31"/>
<path d="M4.33082 3.96534C4.30269 4.41534 3.7402 4.80908 3.12146 4.83721L2.61521 4.86533C1.99647 4.89346 1.60272 4.66846 1.74335 4.33097C1.88397 3.99347 1.94022 3.48723 1.85585 3.14973C1.77147 2.81223 2.19334 2.64349 2.81208 2.78411L3.2902 2.89661C3.90895 3.03723 4.35894 3.51535 4.33082 3.96534Z" fill="#FFE62E"/>
<path d="M1.91172 4.3874C1.85547 4.41552 1.91172 4.47177 1.91172 4.4999C1.96797 4.55615 2.10859 4.64052 2.36171 4.66864H2.61484L3.12108 4.64052C3.45858 4.61239 3.79607 4.47177 3.99294 4.2749C3.99294 4.30302 2.53046 3.88115 1.91172 4.3874Z" fill="#FFCE31"/>
<path d="M4.55594 3.9656C4.52781 4.4156 4.97781 4.89372 5.56842 5.03434L6.04654 5.14684C6.63716 5.28746 7.08716 5.11872 7.00278 4.78122C6.91841 4.44372 6.97466 3.90936 7.11528 3.59998C7.2559 3.29061 6.86216 3.03749 6.24342 3.06561L5.73717 3.09374C5.14655 3.14999 4.61219 3.51561 4.55594 3.9656Z" fill="#FFE62E"/>
<path d="M6.86292 4.83753C6.91917 4.89378 6.8348 4.9219 6.8348 4.95003C6.77855 5.00628 6.6098 5.06253 6.35668 5.0344C6.27231 5.0344 6.18793 5.00628 6.10356 5.00628L5.62544 4.89378C5.28794 4.8094 5.0067 4.61253 4.83795 4.38753C4.83795 4.35941 6.35668 4.24691 6.86292 4.83753ZM4.38795 3.82504C4.38795 3.82504 4.21921 3.93754 3.90983 3.60004C3.54421 3.2063 2.86922 3.62817 3.65671 3.90941C4.07858 4.05004 4.38795 3.82504 4.38795 3.82504ZM4.52858 3.85317C4.52858 3.85317 4.6692 3.99379 5.06295 3.71254C5.51294 3.40317 6.07543 3.90941 5.25982 4.05004C4.80982 4.10629 4.52858 3.85317 4.52858 3.85317Z" fill="#FFCE31"/>
<path d="M4.38755 4.58441C4.05005 4.55628 3.96568 4.78128 4.02193 3.93754C4.1063 3.0938 4.16255 3.34692 4.50005 3.37505C4.83754 3.40317 4.92192 3.17818 4.86567 4.02192C4.80942 4.86566 4.72504 4.61253 4.38755 4.58441Z" fill="#FFCE31"/>
<path d="M4.38707 4.58449C4.13395 4.55636 4.02145 4.80949 4.10583 3.93762C4.1902 3.06576 4.21832 3.31888 4.49957 3.347C4.75269 3.37513 4.86519 3.12201 4.78082 3.99387C4.69644 4.86574 4.66832 4.61261 4.38707 4.58449Z" fill="#FFE62E"/>
<path d="M10.9121 3.45933L12.2621 0L17.3527 1.57498L16.5652 4.38745L10.9121 3.45933Z" fill="#C28FEF"/>
<path d="M12.7969 3.76891L14.5687 4.05015L15.5531 0.984564L13.8656 0.450195L12.7969 3.76891Z" fill="#FFE62E"/>
<path d="M9.11133 3.1499V8.63421L17.9987 8.54984V3.1499H9.11133Z" fill="#42ADE2"/>
<path d="M9.1117 3.1499L7.62109 3.74052V8.63421H9.1117V3.1499Z" fill="#0071BC"/>
<path d="M4.49997 17.9999L2.25 16.8749V7.3125H4.49997V17.9999Z" fill="#3E4347"/>
<path d="M2.24997 16.8749L0 17.9999V7.3125H2.24997V16.8749ZM4.49995 7.3125H17.9998V17.9999H4.49995V7.3125Z" fill="#62727A"/>
<path d="M8.99999 10.687C9.46597 10.687 9.84373 10.3092 9.84373 9.84325C9.84373 9.37727 9.46597 8.99951 8.99999 8.99951C8.53401 8.99951 8.15625 9.37727 8.15625 9.84325C8.15625 10.3092 8.53401 10.687 8.99999 10.687Z" fill="#3E4347"/>
<path d="M14.625 10.687C15.091 10.687 15.4687 10.3092 15.4687 9.84325C15.4687 9.37727 15.091 8.99951 14.625 8.99951C14.159 8.99951 13.7812 9.37727 13.7812 9.84325C13.7812 10.3092 14.159 10.687 14.625 10.687Z" fill="#3E4347"/>
<path d="M8.71875 9.84355V12.7966C8.71875 14.681 9.81561 16.2279 11.8125 16.3122C12.8531 16.3403 13.7812 15.7497 14.3999 14.9341C14.8499 14.3154 14.9062 13.556 14.9062 12.7966V9.84355C14.9062 9.47793 14.3437 9.47793 14.3437 9.84355V13.4154C14.2874 14.7654 13.0781 15.7216 11.8125 15.7497C10.575 15.7779 9.59061 14.8497 9.33749 13.6966C9.22499 13.2185 9.28124 12.656 9.28124 12.1779V9.84355C9.28124 9.47793 8.71875 9.47793 8.71875 9.84355Z" fill="#D0D0D0"/>
</svg>
