<svg width="21" height="21" viewBox="0 0 21 21" fill="none" xmlns="http://www.w3.org/2000/svg">
<path d="M20.2387 1.51738C20.166 1.04047 19.7719 0.803711 19.7719 0.803711C19.1936 0.876431 15.8552 2.32406 15.8552 2.32406L15.7453 3.26266L8.53758 10.3232C8.46655 10.3943 8.4767 10.5143 8.55957 10.5921L9.69941 11.732C9.78735 11.8064 9.9108 11.8064 9.97507 11.7303C9.97507 11.7303 10.5923 11.5155 11.3229 10.6953C11.81 10.1491 11.673 9.83112 11.9284 9.54531C13.8411 7.4043 16.5012 4.42786 16.7093 4.19448L17.5904 4.21985C17.7459 4.22493 17.8914 4.14206 17.9675 4.00677C18.1924 3.60427 18.6812 2.757 19.0143 2.39847C19.3035 2.0873 19.4168 2.12789 19.8007 2.01627C20.1761 1.90466 20.2945 1.8776 20.2387 1.51738Z" fill="#2F7889"/>
<path d="M8.90407 9.95095C8.90407 9.95095 8.29187 9.25419 7.66783 9.53492C6.83409 9.91036 7.40401 10.8456 6.28954 11.2328C5.0719 11.6539 4.20941 12.4572 4.62544 13.4314C5.0719 14.4765 6.85438 14.5357 6.93894 17.2162C6.97953 18.4998 7.89614 18.4676 8.30202 18.0465C9.01399 17.3041 8.94297 15.0075 9.67862 14.189C10.4143 13.3705 12.2373 13.5802 12.8986 12.0548C12.8986 12.0548 11.7655 13.1929 10.3263 12.07C9.6448 11.5373 9.65325 10.6494 9.65325 10.6494L8.90407 9.95095Z" fill="#FFFDE7"/>
<path d="M10.6723 8.63223C10.6723 8.63223 10.7467 8.70833 10.5303 8.52231C10.0669 8.12488 9.75065 9.53024 9.0336 8.81826C8.08486 8.01665 8.36728 7.30805 9.10294 6.51659C9.46315 6.12932 9.61874 5.95005 9.54771 5.49851C9.48852 5.11462 9.13 4.87109 8.64971 4.87109C8.18126 4.89815 7.34751 5.52388 6.54591 6.71446C5.32658 8.524 5.90496 9.48457 4.6349 10.4519C3.36653 11.4176 0.564276 11.7592 0.371484 14.208C0.261558 15.6133 0.914346 16.4149 1.74978 17.4415C2.32815 18.1535 3.71829 19.3829 4.75328 19.9004C5.78827 20.4179 7.07186 20.7037 8.13052 19.9985C10.4745 18.4376 10.1244 16.8513 10.5201 15.8247C10.975 14.6477 12.1031 15.0417 13.2598 13.9374C14.1189 13.1696 14.31 12.3951 14.2576 11.8759C14.2018 11.3432 13.7316 10.7868 13.2902 10.8578C13.1211 10.7783 13.3072 11.2755 13.1634 11.5664C12.7998 12.3054 12.2164 12.7367 11.4435 12.1279C10.8195 11.6357 11.5517 10.3741 11.5517 10.3741L11.0681 9.79575L10.6723 8.63223Z" fill="#C62828"/>
<path d="M10.3113 8.27C10.3113 8.27 10.3857 8.34611 10.1692 8.16008C9.70583 7.76266 8.75371 9.03779 8.03835 8.32581C7.37372 7.66457 8.3343 6.63973 9.0429 5.94973C9.65172 5.46775 9.07165 4.8471 8.65393 4.87077C8.18548 4.89783 6.98983 5.16165 6.18822 6.35223C4.9689 8.16177 5.54727 9.12235 4.27721 10.0897C3.25575 10.8659 1.62717 11.1653 0.600632 12.5334C0.343576 12.8767 0.140637 13.0374 0.0121087 13.8458C-0.0978166 15.2511 0.554971 16.0527 1.3904 17.0793C1.96878 17.7912 3.35891 19.0207 4.3939 19.5382C5.42889 20.0557 6.5755 20.3415 7.63585 19.6363C9.9798 18.0753 9.56039 16.2996 9.95612 15.2714C10.411 14.0944 11.8435 14.4732 13.0002 13.3705C13.7646 12.6416 13.9523 12.0328 13.8999 11.5136C13.8627 11.1416 13.6006 10.9742 13.4044 10.8828C13.2353 10.8034 12.9495 10.9133 12.8057 11.2059C12.4421 11.9449 11.8587 12.3761 11.0858 11.7673C10.4618 11.2752 11.1044 9.86984 11.1044 9.86984L10.3113 8.27Z" fill="#F44336"/>
<path d="M8.56015 9.69061C8.43332 9.59421 7.75347 9.16297 7.16325 9.70583C6.52738 10.291 7.04487 11.0909 6.03863 11.2448C4.76519 11.441 4.00924 12.2899 4.42527 13.264C4.87173 14.3092 6.85715 14.5307 6.94171 17.2129C6.9823 18.4965 7.88031 18.444 8.30479 18.0432C9.28735 17.1131 8.71912 15.0583 9.68139 14.1857C10.5117 13.4331 11.77 13.8441 12.372 12.7905C12.4786 12.6045 12.4853 12.4404 12.23 12.547C11.7598 12.7431 11.173 12.8429 10.532 12.2155C10.0095 11.7014 10.1025 10.9894 10.1025 10.9894C10.1025 10.9894 8.68022 9.78193 8.56015 9.69061Z" fill="#FFFDE7"/>
<path d="M8.32954 15.9613C8.53029 15.7475 8.52136 15.413 8.30961 15.2142C8.09785 15.0154 7.76345 15.0275 7.5627 15.2413C7.36196 15.4551 7.37088 15.7896 7.58264 15.9884C7.79439 16.1873 8.12879 16.1751 8.32954 15.9613Z" fill="#82AEC0"/>
<path d="M7.563 15.2428C7.74734 15.0381 8.10079 14.9874 8.33924 15.1836C8.45593 15.2783 8.53542 15.4237 8.54726 15.5827C8.55909 15.74 8.4999 15.9023 8.39167 16.0207C8.28174 16.1374 8.12277 16.2067 7.9655 16.205C7.80653 16.2033 7.65601 16.1323 7.55455 16.0224C7.34146 15.7958 7.37021 15.4389 7.563 15.2428ZM7.563 15.2428C7.4683 15.3442 7.41756 15.4846 7.4294 15.6199C7.44124 15.7552 7.51058 15.8803 7.61035 15.9581C7.81498 16.1222 8.11094 16.0748 8.26652 15.904C8.42887 15.7383 8.45762 15.4389 8.28005 15.2444C8.19549 15.1497 8.06697 15.0872 7.92998 15.0855C7.79638 15.0821 7.6594 15.1413 7.563 15.2428Z" fill="#2F7889"/>
<path d="M8.17348 17.3858C8.3429 17.2054 8.33563 16.9233 8.15724 16.7558C7.97885 16.5883 7.69689 16.5988 7.52747 16.7793C7.35805 16.9597 7.36532 17.2417 7.54371 17.4092C7.7221 17.5768 8.00406 17.5663 8.17348 17.3858Z" fill="#82AEC0"/>
<path d="M7.52705 16.7778C7.68264 16.6053 7.98028 16.558 8.1866 16.7237C8.28638 16.8032 8.35741 16.9283 8.36925 17.0653C8.38109 17.2006 8.33035 17.3427 8.23565 17.4441C8.14094 17.5439 8.00227 17.6048 7.86698 17.6014C7.72999 17.5997 7.60146 17.5354 7.51521 17.4407C7.33595 17.2446 7.3647 16.9435 7.52705 16.7778ZM7.52705 16.7778C7.44757 16.8641 7.40529 16.9824 7.41713 17.0957C7.42727 17.2107 7.48816 17.3122 7.57271 17.3765C7.74521 17.5101 7.98705 17.4661 8.11219 17.3257C8.2441 17.1904 8.27285 16.9469 8.12911 16.7829C8.05977 16.7034 7.95322 16.6476 7.83823 16.6459C7.72323 16.6442 7.60823 16.6932 7.52705 16.7778Z" fill="#2F7889"/>
<path d="M16.6878 3.76977L15.6054 2.61133L8.35203 10.0034C8.281 10.0744 8.29115 10.1945 8.37402 10.2723L9.51893 11.3715C9.60687 11.4459 9.73033 11.4459 9.79459 11.3698L16.6878 3.76977Z" fill="#F7CF92"/>
<path d="M15.3631 2.80599L15.3141 2.61151C15.1805 2.18872 15.4274 2.08556 15.5339 2.04666C16.2171 1.79975 18.4799 0.889911 18.9704 0.764765C19.3915 0.658222 20.0256 0.690354 20.0747 1.31777C20.0899 1.52071 19.9411 1.60696 19.7449 1.65601C19.4202 1.73549 19.2105 1.72873 18.8317 2.16843C18.5087 2.54217 18.0233 3.3404 17.8085 3.71922C17.7375 3.84606 17.6039 3.92385 17.4551 3.92554L16.6163 3.84606L15.3631 2.80599Z" fill="#F7CF92"/>
<path d="M7.48047 10.3701C7.60054 10.3904 7.70539 10.4259 7.81194 10.4597C7.87958 10.5325 7.9523 10.6001 8.02164 10.6711L8.44274 11.0922L8.86384 11.5133L9.07523 11.7247C9.10905 11.8313 9.14457 11.9361 9.16655 12.0545C9.04817 12.0325 8.94332 11.997 8.83678 11.9632L8.62538 11.7518L8.20429 11.3307L7.78319 10.9096C7.71216 10.8403 7.64451 10.7675 7.57179 10.6999C7.53628 10.5967 7.50076 10.4902 7.48047 10.3701Z" fill="#82AEC0"/>
<path d="M6.17969 11.6738C6.29976 11.6941 6.40461 11.7296 6.51116 11.7635C6.5788 11.8362 6.65152 11.9038 6.72086 11.9749L7.14196 12.396L7.56306 12.8171L7.77445 13.0284C7.80827 13.135 7.84379 13.2398 7.86577 13.3582C7.74739 13.3362 7.64254 13.3007 7.536 13.2669L7.3246 13.0555L6.9035 12.6344L6.48241 12.2133C6.41138 12.144 6.34373 12.0712 6.27101 12.0036C6.2338 11.8988 6.19998 11.7939 6.17969 11.6738Z" fill="#82AEC0"/>
<path d="M5.49892 12.645C5.60716 12.7008 5.69679 12.7651 5.78811 12.831C5.83039 12.9207 5.87943 13.0086 5.92341 13.0966L6.19737 13.6259L6.47134 14.1552L6.60832 14.419C6.60832 14.5307 6.61002 14.6423 6.59479 14.7607C6.48825 14.7032 6.39862 14.6389 6.3073 14.5746L6.17031 14.3108L5.89804 13.7815L5.62407 13.2521C5.57841 13.1642 5.53444 13.0746 5.48539 12.9883C5.4837 12.8767 5.48201 12.7651 5.49892 12.645Z" fill="#82AEC0"/>
<path d="M3.9668 14.9432L15.5512 2.95117" stroke="#82AEC0" stroke-width="0.5" stroke-miterlimit="10" stroke-linecap="round"/>
<path d="M4.18164 15.1378L15.7424 3.1001" stroke="#82AEC0" stroke-width="0.5" stroke-miterlimit="10" stroke-linecap="round"/>
<path d="M4.39648 15.3342L15.9184 3.26611" stroke="#82AEC0" stroke-width="0.5" stroke-miterlimit="10" stroke-linecap="round"/>
<path d="M4.61133 15.5286L16.0858 3.43848" stroke="#82AEC0" stroke-width="0.5" stroke-miterlimit="10" stroke-linecap="round"/>
<path d="M4.82812 15.7245L16.2908 3.5752" stroke="#82AEC0" stroke-width="0.5" stroke-miterlimit="10" stroke-linecap="round"/>
<path d="M5.04297 15.9207L16.4972 3.74609" stroke="#82AEC0" stroke-width="0.5" stroke-miterlimit="10" stroke-linecap="round"/>
<path d="M2.95952 14.7133C2.91386 14.7623 2.90202 14.8266 2.93416 14.857L5.18001 16.9236C5.21215 16.954 5.27641 16.9371 5.32207 16.8881L6.08309 16.0932C6.12875 16.0442 6.14059 15.9799 6.10846 15.9495L3.8626 13.8829C3.83047 13.8525 3.76621 13.8694 3.72054 13.9184L2.95952 14.7133Z" fill="#2F7889"/>
<path d="M6.1516 8.11608C6.01462 8.09071 5.94021 7.96218 5.99432 7.64425C6.14484 6.74793 6.73674 5.92434 7.56203 5.54045C7.85122 5.40515 8.12011 5.42883 8.17592 5.77721C8.20467 5.96154 8.10489 6.14081 7.836 6.29639C7.23394 6.64815 6.66064 7.16227 6.48645 7.83704C6.42219 8.08057 6.30381 8.14314 6.1516 8.11608Z" fill="#FF7043"/>
<path d="M15.7739 1.88426C15.8593 1.76509 15.7926 1.57099 15.6248 1.45073C15.4571 1.33048 15.2518 1.3296 15.1664 1.44877C15.081 1.56794 15.1477 1.76204 15.3155 1.8823C15.4832 2.00255 15.6885 2.00343 15.7739 1.88426Z" fill="#82AEC0"/>
<path d="M16.4516 1.63719C16.5371 1.51802 16.4703 1.32392 16.3026 1.20366C16.1348 1.0834 15.9296 1.08253 15.8441 1.2017C15.7587 1.32087 15.8254 1.51497 15.9932 1.63522C16.1609 1.75548 16.3662 1.75636 16.4516 1.63719Z" fill="#82AEC0"/>
<path d="M17.1274 1.39109C17.2128 1.27192 17.1461 1.07783 16.9784 0.957568C16.8106 0.837311 16.6054 0.836432 16.5199 0.955605C16.4345 1.07478 16.5012 1.26887 16.669 1.38913C16.8367 1.50939 17.042 1.51027 17.1274 1.39109Z" fill="#82AEC0"/>
<path d="M17.8051 1.14354C17.8906 1.02436 17.8238 0.830267 17.6561 0.71001C17.4883 0.589753 17.2831 0.588874 17.1977 0.708047C17.1122 0.827219 17.179 1.02132 17.3467 1.14157C17.5145 1.26183 17.7197 1.26271 17.8051 1.14354Z" fill="#82AEC0"/>
<path d="M18.4829 0.89793C18.5683 0.778757 18.5016 0.584661 18.3338 0.464404C18.1661 0.344147 17.9608 0.343268 17.8754 0.462441C17.79 0.581614 17.8567 0.77571 18.0244 0.895967C18.1922 1.01622 18.3974 1.0171 18.4829 0.89793Z" fill="#82AEC0"/>
<path d="M19.1606 0.651348C19.246 0.532175 19.1793 0.338079 19.0116 0.217822C18.8438 0.0975651 18.6386 0.0966863 18.5531 0.215859C18.4677 0.335032 18.5344 0.529128 18.7022 0.649385C18.8699 0.769642 19.0752 0.770521 19.1606 0.651348Z" fill="#82AEC0"/>
</svg>
