<svg width="22" height="23" viewBox="0 0 22 23" fill="none" xmlns="http://www.w3.org/2000/svg">
<path d="M0 0H18.7765V18.7765H0V0Z" fill="#D6EEF0"/>
<path d="M0 4.40077L1.17353 3.22724L3.08052 2.05371L6.45443 4.69416L11.1486 10.8552H0V4.40077Z" fill="#B2C1C0"/>
<path opacity="0.5" d="M11.1487 10.8552L6.4546 4.69416L3.0807 2.05371L2.64062 4.10739L3.81416 5.28092L3.52077 7.04122L4.69431 8.21475L4.10754 10.8552H11.1487Z" fill="#B2C1C0"/>
<path d="M3.07969 2.05371L1.1727 3.22724L0.585938 3.81401H1.46609L1.02601 5.01688L2.34624 4.40077L2.63962 5.86769L3.81315 5.28092L4.95734 5.86769V4.84085L6.4536 4.69416L3.07969 2.05371Z" fill="white"/>
<path opacity="0.5" d="M11.1483 10.8552L6.45419 4.69416L3.08029 2.05371L2.93359 3.52063L3.81374 5.28092L3.52036 7.04122L4.69389 8.21475L4.10713 10.8552H11.1483Z" fill="#B2C1C0"/>
<path d="M14.7278 10.1216C13.789 9.7109 12.7915 9.38818 11.7353 9.38818C10.6791 9.38818 9.74031 9.88694 8.91884 10.0923C4.10736 11.3539 0 9.38818 0 9.38818V18.7764H18.7765V10.6497C17.4856 10.7964 16.0774 10.6204 14.7278 10.1216Z" fill="#83BF4F"/>
<path d="M1.4665 14.3759C2.11462 14.3759 2.64003 13.8505 2.64003 13.2023C2.64003 12.5542 2.11462 12.0288 1.4665 12.0288C0.818377 12.0288 0.292969 12.5542 0.292969 13.2023C0.292969 13.8505 0.818377 14.3759 1.4665 14.3759Z" fill="#699635"/>
<path d="M1.75906 12.6158C2.24515 12.6158 2.6392 12.2217 2.6392 11.7356C2.6392 11.2495 2.24515 10.8555 1.75906 10.8555C1.27296 10.8555 0.878906 11.2495 0.878906 11.7356C0.878906 12.2217 1.27296 12.6158 1.75906 12.6158Z" fill="#699635"/>
<path d="M3.57866 14.3761C4.55084 14.3761 5.33896 13.588 5.33896 12.6158C5.33896 11.6436 4.55084 10.8555 3.57866 10.8555C2.60647 10.8555 1.81836 11.6436 1.81836 12.6158C1.81836 13.588 2.60647 14.3761 3.57866 14.3761Z" fill="#699635"/>
<path d="M16.3711 9.9165H17.1632V12.3222H16.3711V9.9165Z" fill="#89664C"/>
<path d="M17.4271 6.71849C17.0751 6.04371 16.4883 6.04371 16.1363 6.71849L14.904 9.00688C14.552 9.68166 14.904 10.2097 15.6962 10.2097C15.6962 10.2097 16.4883 9.91636 16.7817 9.91636C17.0751 9.91636 17.8672 10.2097 17.8672 10.2097C18.6593 10.2097 19.0114 9.68166 18.6593 9.00688L17.4271 6.71849Z" fill="#699635"/>
<path d="M17.2809 5.39802C16.9875 4.86993 16.5474 4.86993 16.254 5.39802L15.2859 7.24633C14.9925 7.77442 15.2859 8.2145 15.9313 8.2145C15.9313 8.2145 16.5768 7.92111 16.7821 7.92111C16.9875 7.92111 17.6329 8.2145 17.6329 8.2145C18.249 8.2145 18.5424 7.77442 18.2784 7.24633L17.2809 5.39802Z" fill="#75A843"/>
<path d="M17.1636 4.10737C16.9582 3.69663 16.6062 3.69663 16.4008 4.10737L15.6674 5.48627C15.462 5.897 15.6674 6.21973 16.1368 6.21973C16.1368 6.21973 16.6062 5.92634 16.7822 5.92634C16.9582 5.92634 17.4277 6.21973 17.4277 6.21973C17.8971 6.21973 18.1024 5.897 17.8971 5.48627L17.1636 4.10737Z" fill="#83BF4F"/>
<path d="M9.9765 2.05405C9.9765 2.37677 9.71246 2.64082 9.38974 2.64082H6.45591C6.13319 2.64082 5.86914 2.37677 5.86914 2.05405C5.86914 1.73133 6.13319 1.46729 6.45591 1.46729H9.38974C9.71246 1.46729 9.9765 1.73133 9.9765 2.05405Z" fill="white"/>
<path d="M11.1498 2.64097C11.1498 2.96369 10.8858 3.22773 10.563 3.22773H9.3895C9.06678 3.22773 8.80273 2.96369 8.80273 2.64097C8.80273 2.31824 9.06678 2.0542 9.3895 2.0542H10.563C10.8858 2.0542 11.1498 2.31824 11.1498 2.64097ZM12.3233 4.98803C12.3233 5.31075 12.0593 5.57479 11.7366 5.57479H10.563C10.2403 5.57479 9.97627 5.31075 9.97627 4.98803C9.97627 4.66531 10.2403 4.40126 10.563 4.40126H11.7366C12.0593 4.40126 12.3233 4.66531 12.3233 4.98803ZM15.2572 3.52111C15.2572 3.84384 14.9931 4.10788 14.6704 4.10788H13.4969C13.1741 4.10788 12.9101 3.84384 12.9101 3.52111C12.9101 3.19839 13.1741 2.93435 13.4969 2.93435H14.6704C14.9931 2.93435 15.2572 3.19839 15.2572 3.52111Z" fill="white"/>
<path d="M9.86133 11.3794H18.463L21.9993 17.7901L20.8046 20.7562L13.4454 22.0001L9.86133 11.3794Z" fill="#FFDD7D"/>
<path d="M6.6697 20.6987L6.06836 17.9029L9.63018 11.3794L13.6546 19.5215L13.0995 22.7587L6.6697 20.6987Z" fill="#DBB471"/>
<path d="M9.47627 11.3794L7.58594 21.115L10.6204 22.0001L9.47627 11.3794Z" fill="#89664C"/>
<path d="M9.48756 11.3794C9.48756 11.3794 10.2036 17.3289 11.3798 19.5416L10.6638 22.0001L9.48756 11.3794ZM7.54413 21.115L6.82812 19.1974C6.82812 19.1974 9.12956 13.4937 9.48756 11.3794L7.54413 21.115Z" fill="#FFDD7D"/>
<path d="M5.57392 14.3759C6.22205 14.3759 6.74745 13.8505 6.74745 13.2023C6.74745 12.5542 6.22205 12.0288 5.57392 12.0288C4.9258 12.0288 4.40039 12.5542 4.40039 13.2023C4.40039 13.8505 4.9258 14.3759 5.57392 14.3759Z" fill="#699635"/>
<path d="M12.9982 19.2288L21.9999 18.207L21.2371 21.5512L12.8965 22.7588L12.9982 19.2288Z" fill="#DBB471"/>
</svg>
