<svg width="22" height="22" viewBox="0 0 22 22" fill="none" xmlns="http://www.w3.org/2000/svg">
<path d="M21.8847 14.2602L21.5769 13.4053C21.3375 13.5079 21.0639 13.3711 20.9955 13.1317C20.8929 12.8924 21.0297 12.6188 21.2691 12.5504L20.9271 11.6271C20.6878 11.7296 20.4142 11.5929 20.3458 11.3535C20.2432 11.1141 20.38 10.8405 20.6194 10.7721L20.3116 9.9172C20.0722 10.0198 19.7986 9.883 19.7302 9.64363C19.6277 9.40425 19.7644 9.13067 20.0038 9.06227L19.696 8.20735C19.4567 8.27574 19.2173 8.17315 19.1147 7.96797C18.1914 8.07056 17.268 7.5576 16.9603 6.63428L4.17055 11.2167C4.54672 12.2768 3.99956 13.4395 2.93945 13.8499L5.43584 20.6551C6.49595 20.2789 7.65866 20.8261 8.06902 21.8862L20.8246 17.2354C20.4826 16.3121 20.8587 15.3203 21.6453 14.8074C21.5427 14.6022 21.6453 14.3286 21.8847 14.2602Z" fill="#FBBF67"/>
<path d="M19.3542 15.9698L8.34271 19.9709C7.76135 20.176 7.11161 19.8683 6.87223 19.2869L4.92299 13.918C4.71781 13.3366 5.02558 12.6869 5.60694 12.4475L16.6184 8.44643C17.1998 8.24125 17.8495 8.54902 18.0889 9.13037L20.0381 14.4993C20.2433 15.1149 19.9355 15.7646 19.3542 15.9698ZM5.81212 13.0288C5.50434 13.1314 5.36756 13.4734 5.47015 13.747L7.41938 19.1159C7.52198 19.4237 7.86395 19.5605 8.13752 19.4579L19.149 15.4568C19.4568 15.3543 19.5936 15.0123 19.491 14.7387L17.5417 9.36975C17.4391 9.06198 17.0972 8.92519 16.8236 9.02778L5.81212 13.0288Z" fill="#FF5555"/>
<path d="M10.5672 14.7392L10.2595 14.8418C10.2253 14.8418 10.1911 14.8418 10.1911 14.8076L10.0201 14.4656L9.81491 14.534L9.9175 14.9102C9.9175 14.9444 9.9175 14.9786 9.8833 14.9786L9.57553 15.0812C9.54133 15.0812 9.54133 15.0812 9.50713 15.047L8.92578 12.6874C8.92578 12.6532 8.92578 12.619 8.95998 12.619L9.40454 12.448C9.43874 12.448 9.47294 12.448 9.47294 12.4822L10.5672 14.6708C10.6014 14.705 10.6014 14.7392 10.5672 14.7392ZM9.8491 14.0895L9.43874 13.2003H9.40454L9.67812 14.1237L9.8491 14.0895ZM11.217 12.6874L11.6274 13.8501C11.6957 14.0895 11.5932 14.3288 11.3538 14.4314L10.8408 14.6024C10.8066 14.6024 10.7724 14.6024 10.7724 14.5682L10.0885 12.6532C10.0885 12.619 10.0885 12.5848 10.1227 12.5848L10.6356 12.4138C10.875 12.3454 11.1486 12.448 11.217 12.6874ZM10.8408 12.8584C10.8408 12.8242 10.7724 12.79 10.7382 12.79L10.6014 12.8242L11.0802 14.1237L11.1828 14.0895C11.217 14.0895 11.2512 14.0211 11.217 13.9869L10.8408 12.8584ZM12.6533 11.7299L13.3714 13.6449C13.3714 13.6791 13.3714 13.7133 13.3372 13.7133L13.0294 13.8159C12.9952 13.8159 12.961 13.8159 12.961 13.7817L12.6191 12.8926L12.6875 13.7817C12.6875 13.8159 12.6533 13.8159 12.6533 13.7817L12.1403 13.0635L12.4823 13.9527C12.4823 13.9869 12.4823 14.0211 12.4481 14.0211L12.1403 14.1237C12.1061 14.1237 12.0719 14.1237 12.0719 14.0895L11.3538 12.1744C11.3538 12.1402 11.3538 12.106 11.388 12.106L11.6616 12.0034C11.6957 12.0034 11.7299 12.0034 11.7299 12.0376L12.3797 12.9952L12.2771 11.8666C12.2771 11.8324 12.2771 11.7983 12.3113 11.7983L12.5849 11.6957C12.6191 11.6957 12.6533 11.6957 12.6533 11.7299ZM14.0553 13.4055C14.0553 13.4397 14.0554 13.4739 14.0212 13.4739L13.7134 13.5765C13.6792 13.5765 13.645 13.5765 13.645 13.5423L12.961 11.6273C12.961 11.5931 12.961 11.5589 12.9952 11.5589L13.303 11.4563C13.3372 11.4563 13.3714 11.4563 13.3714 11.4905L14.0553 13.4055ZM14.5683 11.0459L14.6709 11.3537C14.6709 11.3879 14.6709 11.4221 14.6367 11.4221L14.3973 11.5247L14.9787 13.0977C14.9787 13.1319 14.9787 13.1661 14.9445 13.1661L14.6367 13.2687C14.6025 13.2687 14.5683 13.2687 14.5683 13.2345L14.0212 11.6273L13.7818 11.7299C13.7476 11.7299 13.7134 11.7299 13.7134 11.6957L13.6108 11.3879C13.6108 11.3537 13.6108 11.3195 13.645 11.3195L14.4999 11.0117C14.5341 11.0117 14.5683 11.0117 14.5683 11.0459ZM12.2087 17.2014L12.0719 17.2356C11.8325 17.304 11.5932 17.2014 11.4906 16.962L10.9434 15.389C10.875 15.1496 10.9776 14.9102 11.217 14.8076L11.3538 14.7734C11.5932 14.705 11.8325 14.8076 11.9351 15.047L12.5165 16.62C12.5849 16.8252 12.4481 17.0988 12.2087 17.2014ZM11.4222 15.1496C11.3538 15.1838 11.3196 15.218 11.3538 15.2864L11.9009 16.8252C11.9009 16.8594 11.9693 16.8936 12.0035 16.8594H12.0377C12.0719 16.8594 12.1061 16.791 12.1061 16.7568L11.559 15.218C11.5248 15.1496 11.4564 15.1496 11.4222 15.1496ZM13.2688 14.534L13.987 16.4491C13.987 16.4833 13.987 16.5175 13.9528 16.5175L13.7476 16.5859C13.7134 16.5859 13.6792 16.5859 13.6792 16.5517L12.9952 15.7993L13.303 16.6884C13.303 16.7226 13.303 16.7568 13.2688 16.7568L12.961 16.8594C12.9268 16.8594 12.8926 16.8594 12.8926 16.8252L12.1745 14.9102C12.1745 14.876 12.1745 14.8418 12.2087 14.8418L12.4481 14.7734C12.4823 14.7734 12.5165 14.7734 12.5165 14.8076L13.2346 15.6625L12.8926 14.6708C12.8926 14.6366 12.8926 14.6024 12.9268 14.6024L13.2346 14.4998C13.2346 14.4998 13.2688 14.4998 13.2688 14.534ZM14.9787 15.7651L15.0813 16.0729C15.0813 16.1071 15.0813 16.1413 15.0471 16.1413L14.3289 16.4149C14.2947 16.4149 14.2605 16.4149 14.2605 16.3807L13.5424 14.4656C13.5424 14.4314 13.5424 14.3972 13.5766 14.3972L14.2947 14.1237C14.3289 14.1237 14.3631 14.1237 14.3631 14.1579L14.4657 14.4656C14.4657 14.4998 14.4657 14.534 14.4315 14.534L14.0553 14.6708L14.1921 15.047L14.5341 14.9102C14.5683 14.9102 14.6025 14.9102 14.6025 14.9444L14.7051 15.2522C14.7051 15.2864 14.7051 15.3206 14.6709 15.3206L14.3289 15.4573L14.4999 15.9019L14.8761 15.7651C14.9445 15.7309 14.9787 15.7309 14.9787 15.7651Z" fill="#89664C"/>
<g opacity="0.5">
<path d="M8.68652 18.7401L19.0825 10.0198C18.5695 9.40426 18.5011 8.61773 18.7747 7.93379C17.9539 7.89959 17.2358 7.38663 16.928 6.6001L4.1725 11.2167C4.54867 12.2768 4.00152 13.4395 2.94141 13.8499L3.72794 16.0385L5.77977 18.5007C6.66889 17.7484 7.93419 17.8852 8.68652 18.7401Z" fill="#947151"/>
<path opacity="0.5" d="M8.68652 18.7401L19.0825 10.0198C18.5695 9.40426 18.5011 8.61773 18.7747 7.93379C17.9539 7.89959 17.2358 7.38663 16.928 6.6001L4.1725 11.2167C4.54867 12.2768 4.00152 13.4395 2.94141 13.8499L3.72794 16.0385L5.77977 18.5007C6.66889 17.7484 7.93419 17.8852 8.68652 18.7401Z" fill="#947151"/>
</g>
<path d="M17.9535 5.50574L17.3721 4.7876C17.167 4.95858 16.8934 4.92439 16.7224 4.7192C16.5514 4.51402 16.5856 4.24044 16.7908 4.06946L16.2094 3.35132C16.0043 3.5223 15.7307 3.48811 15.5597 3.28292C15.3887 3.07774 15.4229 2.80416 15.6281 2.63318L15.0467 1.91504C14.8416 2.08602 14.568 2.05183 14.397 1.84664C14.1576 1.70986 14.1918 1.43628 14.3628 1.26529L13.7814 0.547154C13.5763 0.71814 13.3027 0.683943 13.1317 0.512957C12.311 0.923322 11.2851 0.752337 10.6353 0L0.23938 8.72027C0.991717 9.60939 0.854928 10.9089 0 11.627L4.65081 17.2012C5.50574 16.483 6.80523 16.5856 7.52337 17.4405L17.9193 8.72027C17.3037 7.96793 17.3037 6.90782 17.8509 6.15548C17.7483 5.9503 17.7825 5.67672 17.9535 5.50574Z" fill="#FBBF67"/>
<path d="M16.1419 8.00207L7.1823 15.5254C6.70354 15.9358 5.9854 15.8674 5.57503 15.3886L1.91594 11.0114C1.50557 10.5327 1.57397 9.81452 2.05273 9.40415L11.0124 1.88078C11.4911 1.47042 12.2093 1.53881 12.6196 2.01757L16.2787 6.3948C16.6891 6.87356 16.6207 7.5917 16.1419 8.00207ZM2.4289 9.84871C2.18952 10.0539 2.15532 10.3959 2.3605 10.6352L6.01959 15.0467C6.22478 15.2861 6.56675 15.3203 6.80613 15.1151L15.7658 7.5917C16.0052 7.38652 16.0394 7.04455 15.8342 6.80517L12.1751 2.39374C11.9699 2.15436 11.6279 2.12016 11.3885 2.32534L2.4289 9.84871Z" fill="#FF5555"/>
<path d="M7.4894 9.84867L7.25002 10.0539C7.21582 10.088 7.18162 10.0539 7.18162 10.0539L6.90805 9.78027L6.70286 9.91706L6.94224 10.2248V10.2932L6.70286 10.4984C6.66867 10.5326 6.66867 10.4984 6.63447 10.4984L5.30078 8.48078V8.41239L5.67695 8.10461C5.71115 8.07042 5.74534 8.07042 5.74534 8.10461L7.4894 9.78027V9.84867ZM6.60027 9.4725L5.91633 8.75436L5.88213 8.78856L6.46348 9.57509L6.60027 9.4725ZM7.38681 7.69425L8.17334 8.65177C8.34433 8.85695 8.31013 9.13053 8.10495 9.30151L7.69458 9.64349C7.66038 9.67768 7.62619 9.64349 7.62619 9.64349L6.2925 8.07042C6.2583 8.03622 6.2925 8.00202 6.2925 8.00202L6.70286 7.66005C6.94224 7.48907 7.21582 7.48907 7.38681 7.69425ZM7.07903 7.96783C7.04483 7.93363 6.97644 7.93363 6.94224 7.96783L6.83965 8.03622L7.72878 9.09633L7.83137 9.02794C7.86557 8.99374 7.86557 8.95954 7.83137 8.89115L7.07903 7.96783ZM8.41272 6.29217L9.74641 7.86523C9.7806 7.89943 9.74641 7.93363 9.74641 7.93363L9.47283 8.13881C9.43863 8.17301 9.40444 8.13881 9.40444 8.13881L8.78889 7.42067L9.16506 8.2414C9.16506 8.2756 9.16506 8.2756 9.13086 8.2756L8.41272 7.76264L9.02827 8.48078C9.06247 8.51498 9.02827 8.54918 9.02827 8.54918L8.75469 8.75436C8.72049 8.78856 8.6863 8.75436 8.6863 8.75436L7.35261 7.18129C7.31841 7.14709 7.35261 7.1129 7.35261 7.1129L7.59199 6.90772C7.62619 6.87352 7.66038 6.90772 7.66038 6.90772L8.58371 7.55746L8.10495 6.53155V6.46315L8.34433 6.25797C8.37852 6.29217 8.41272 6.29217 8.41272 6.29217ZM10.3278 7.38647C10.362 7.42067 10.3278 7.45487 10.3278 7.45487L10.0884 7.66005C10.0542 7.69425 10.02 7.66005 10.02 7.66005L8.6863 6.08698C8.6521 6.05279 8.6863 6.01859 8.6863 6.01859L8.92568 5.81341C8.95987 5.77921 8.99407 5.81341 8.99407 5.81341L10.3278 7.38647ZM9.98579 4.99268L10.191 5.23206C10.2252 5.26625 10.191 5.30045 10.191 5.30045L9.98579 5.47144L11.0801 6.77093C11.1143 6.80512 11.0801 6.83932 11.0801 6.83932L10.8407 7.0445H10.7723L9.67801 5.74501L9.47283 5.916C9.43863 5.95019 9.40444 5.916 9.40444 5.916L9.19925 5.67662C9.16506 5.64242 9.19925 5.60822 9.19925 5.60822L9.91739 5.02687C9.91739 4.99268 9.95159 4.99268 9.98579 4.99268ZM9.8832 11.5927L9.78061 11.6953C9.57542 11.8663 9.30185 11.8321 9.13086 11.6269L8.07075 10.3616C7.89976 10.1564 7.93396 9.88286 8.13914 9.71188L8.24173 9.60929C8.44692 9.4383 8.72049 9.4725 8.89148 9.67768L9.91739 10.943C10.0884 11.1482 10.0542 11.4217 9.8832 11.5927ZM8.41272 9.95126C8.34433 9.98546 8.34433 10.0539 8.37852 10.088L9.43863 11.3191C9.47283 11.3533 9.50703 11.3533 9.57542 11.3191L9.60962 11.2849C9.64382 11.2508 9.64382 11.1824 9.60962 11.1482L8.54951 9.95126C8.51531 9.91706 8.44692 9.91706 8.41272 9.95126ZM9.95159 8.72016L11.2853 10.2932C11.3195 10.3274 11.2853 10.3616 11.2853 10.3616L11.1143 10.4984C11.0801 10.5326 11.0459 10.5326 11.0459 10.4984L10.1568 10.0197L10.7723 10.7378C10.8065 10.772 10.7723 10.8062 10.7723 10.8062L10.5329 11.0114C10.4987 11.0456 10.4645 11.0114 10.4645 11.0114L9.13086 9.4383C9.09666 9.40411 9.13086 9.36991 9.13086 9.36991L9.30185 9.23312C9.33604 9.19892 9.37024 9.19892 9.37024 9.23312L10.3278 9.78027L9.64382 8.99374C9.60962 8.95954 9.64382 8.92535 9.64382 8.92535L9.8832 8.72016H9.95159ZM11.9692 9.30151L12.1744 9.54089C12.2086 9.57509 12.1744 9.60929 12.1744 9.60929L11.5931 10.1222C11.5589 10.1564 11.5247 10.1222 11.5247 10.1222L10.191 8.54918C10.1568 8.51498 10.191 8.48078 10.191 8.48078L10.7723 7.96783C10.8065 7.93363 10.8407 7.96783 10.8407 7.96783L11.0459 8.20721C11.0801 8.2414 11.0459 8.2756 11.0459 8.2756L10.7381 8.54918L11.0117 8.85695L11.2853 8.61757C11.3195 8.58337 11.3537 8.61757 11.3537 8.61757L11.5589 8.85695C11.5931 8.89115 11.5589 8.92535 11.5589 8.92535L11.2853 9.16472L11.5931 9.54089L11.9008 9.26732C11.935 9.26732 11.9692 9.26732 11.9692 9.30151Z" fill="#89664C"/>
</svg>
