<svg width="22" height="22" viewBox="0 0 22 22" fill="none" xmlns="http://www.w3.org/2000/svg">
<path d="M11.1772 15.9312C11.1772 15.9312 0.825168 19.0919 0.802824 19.3205C0.78048 19.5491 4.94673 21.3865 11.9094 21.2902C18.5506 21.1991 21.1167 19.5044 21.1614 19.3205C21.2061 19.1366 11.4058 15.8847 11.1772 15.9312Z" fill="#B9CE46"/>
<path d="M10.7008 7.24455L9.96 6.31299C9.96 6.31299 8.76375 7.56768 8.44063 7.90971C8.1175 8.25174 7.86828 8.44939 7.71359 8.7708C7.49188 9.22971 6.78891 13.1914 6.78891 13.1914L4.75563 15.2797C4.75563 15.2797 4.37234 15.0408 4.27781 15.1181C4.18328 15.1955 1.06891 18.908 1.06891 18.908L0.800781 19.3188C0.800781 19.3188 1.41953 19.4563 1.61031 19.4374C1.70312 19.4288 2.16031 19.3239 2.67766 19.2706C3.2225 19.2139 3.91859 19.2603 3.99594 19.2517C4.08359 19.2431 4.38609 19.1538 4.38609 19.1538L7.09141 17.5399L9.31375 16.9881L11.347 17.9008L15.3363 18.0916L17.5208 14.8242L12.7719 8.53533L10.7008 7.24455Z" fill="#9EA2A3"/>
<path d="M4.90829 16.8043C4.90829 16.8043 4.83438 16.5929 4.77938 16.4365C4.72438 16.2801 4.75704 15.2798 4.75704 15.2798C4.75704 15.2798 5.99625 16.012 6.13375 16.1323C6.27125 16.2526 7.49844 17.0174 7.49844 17.0174C7.49844 17.0174 8.37329 16.9074 8.6775 16.8885C8.98172 16.8696 9.50766 16.8971 9.50766 16.8971L9.30485 17.1928C9.30485 17.1928 7.32313 17.8373 6.9725 17.949C6.62188 18.059 4.37547 19.202 4.37891 19.159C4.38579 19.0696 4.96329 18.2429 4.96329 18.2429L4.90829 16.8043Z" fill="#717A7C"/>
<path d="M13.8764 17.782L5.4098 19.1192C5.4098 19.1192 5.00073 19.4819 5.04198 19.5781C5.08323 19.6744 6.64558 19.9648 7.18527 20.0336C7.72495 20.1023 11.4151 20.3103 11.8156 20.2828C12.216 20.2553 16.3084 20.0473 16.8756 19.9786C17.4428 19.9098 19.3489 19.7775 19.4743 19.7208C19.7167 19.6108 20.8287 19.0109 20.8287 19.0109C20.8287 19.0109 19.5843 17.0481 19.3351 16.5772C19.0859 16.108 18.6717 15.2641 18.3812 14.9736C18.0907 14.6831 17.8828 14.5594 17.8828 14.5594C17.8828 14.5594 17.4909 13.6484 17.0337 13.0675C16.5782 12.4866 16.0368 11.4691 15.8925 11.3247C15.3442 10.7781 15.2445 10.8039 15.2445 10.8039L15.5882 14.9461C15.5882 14.9461 14.9523 16.218 14.7306 16.5634C14.5123 16.9123 13.8764 17.782 13.8764 17.782Z" fill="#717A7C"/>
<path d="M10.8347 4.74728L10.668 8.11947L12.6291 9.33634C12.6291 9.33634 13.2186 10.8471 13.2461 10.9863C13.2736 11.1238 13.2203 11.4968 13.2753 11.5931C13.3303 11.6893 14.3461 12.3888 14.3856 12.3906C14.6108 12.4026 15.0766 12.3218 15.0491 12.2806C15.0216 12.2393 15.2347 11.3421 15.2347 11.3421C15.2347 11.3421 13.8872 9.15759 13.5967 8.54915C13.3062 7.94072 12.2148 6.36462 12.0894 6.10165C11.9639 5.83869 11.3709 4.96728 11.2455 4.82978C11.12 4.69228 10.9189 4.65103 10.8347 4.74728Z" fill="#717A7C"/>
<path d="M11.6904 11.1806C11.6904 11.1806 12.6168 9.65434 12.6443 9.42059C12.6718 9.18684 11.8984 7.76199 11.7042 7.2498C11.51 6.73762 10.9995 5.68746 10.9445 5.54996C10.8895 5.41246 10.8345 4.74902 10.8345 4.74902C10.8345 4.74902 10.4478 5.16324 10.3086 5.49496C10.1711 5.82668 9.65028 6.64309 9.65028 6.64309C9.65028 6.64309 9.97685 8.53715 10.1023 9.35184C10.2261 10.1682 10.3189 11.239 10.3 11.2786C10.1814 11.5192 9.38388 13.4579 9.38388 13.4579C9.38388 13.4579 9.28075 14.3981 9.377 14.4943C9.47325 14.5906 10.0318 14.7178 10.0748 14.6525C10.159 14.527 10.1573 14.0509 10.1573 14.0509C10.1573 14.0509 11.7076 11.9575 11.7575 11.8543C11.7764 11.8148 11.6904 11.1806 11.6904 11.1806Z" fill="#C0C0C0"/>
<path d="M8.53234 11.33C8.52719 11.122 8.22297 10.1354 8.16797 9.91373C8.11297 9.69201 7.99609 8.59717 7.84313 8.59717C7.69188 8.59717 6.99062 10.5256 6.92016 10.7061C6.85141 10.8865 5.87 13.0006 5.74453 13.2498C5.62078 13.499 5.05359 14.5767 4.94359 14.7572C4.83359 14.9376 4.6875 15.2436 4.6875 15.2436L7.49594 17.019L8.51 16.9039C8.51 16.9039 7.91703 15.3106 7.77781 14.9514C7.63859 14.5922 7.47359 14.0112 7.47359 14.0112C7.47359 14.0112 7.795 13.2412 8.00469 12.6878C8.21609 12.1309 8.53922 11.5362 8.53234 11.33Z" fill="#C0C0C0"/>
<path d="M4.3523 15.1198C4.35917 15.1456 4.39527 15.7936 4.37636 16.1803C4.35745 16.5687 4.28183 16.9572 4.28183 16.9572L3.14574 18.4353C3.14574 18.4353 1.09011 19.2311 0.96636 19.2689C0.84261 19.3067 0.803079 19.3204 0.803079 19.3204C0.803079 19.3204 0.545266 19.164 1.31699 18.3219C2.31386 17.2339 3.58917 15.7437 3.75074 15.5564C4.03777 15.2229 4.33339 15.0425 4.3523 15.1198Z" fill="#C0C0C0"/>
<path d="M6.84038 15.5701C6.72351 15.5581 6.57569 15.9482 6.49663 16.2387C6.43991 16.4432 6.07382 17.4796 6.03085 17.6807C5.98616 17.8835 5.75929 18.4817 5.82116 18.5092C5.88304 18.5349 6.36257 18.5693 6.61866 18.516C6.87304 18.4628 7.42991 18.0159 7.42991 17.911C7.42991 17.8062 7.18929 16.7199 7.16694 16.591C7.10507 16.2215 7.02257 15.589 6.84038 15.5701Z" fill="#367C2D"/>
<path d="M18.3405 17.1564C18.2374 17.1135 17.9745 18.2771 17.9195 18.6878C17.8645 19.0986 17.7184 19.8789 17.7562 19.9563C17.8662 20.1746 19.0384 20.0302 19.1518 19.8428C19.1845 19.7896 19.0195 18.9147 18.9009 18.5452C18.7393 18.0399 18.607 17.2682 18.3405 17.1564Z" fill="#367C2D"/>
<path d="M20.3943 15.6905C20.2327 15.6974 20.0608 17.1085 19.9543 17.4162C19.834 17.7651 19.4318 19.4168 19.5985 19.6058C19.7652 19.7949 20.4029 19.6454 20.64 19.5766C20.8686 19.5113 21.0663 19.4013 21.1213 19.2793C21.1763 19.1572 21.0457 18.1724 20.8875 17.4849C20.726 16.7888 20.6486 15.6785 20.3943 15.6905Z" fill="#367C2D"/>
<path d="M5.40811 19.1209C5.40811 19.1209 5.85327 19.2893 7.3778 19.3838C8.90233 19.4784 9.6517 19.4698 9.6517 19.4698L13.1339 18.961L13.9245 17.7098C13.9245 17.7098 12.8726 17.6702 12.314 17.6513C11.7555 17.6324 10.9219 17.629 10.884 17.5259C10.8462 17.421 11.8242 16.7112 12.0992 16.5702C12.3742 16.4276 13.0376 16.352 13.1889 16.1921C13.3401 16.0305 15.2514 14.9529 15.4869 14.9443C15.724 14.934 16.4631 15.3895 16.604 15.3413C16.7467 15.2932 16.1125 13.6157 16.0283 13.3012C16.0214 13.2737 15.6862 11.6391 15.6759 11.6082C15.5969 11.3659 15.3545 10.7368 15.2015 10.8124C15.0503 10.888 14.7942 11.4655 14.6051 12.043C14.4161 12.6205 14.3026 12.9248 14.2081 13.0657C14.1136 13.2066 13.0153 13.9096 12.8623 14.0695C12.7111 14.231 12.2556 14.5713 11.9806 14.6848C11.7056 14.7982 11.4409 14.7982 11.2415 14.9787C11.0422 15.1591 10.7964 15.472 10.5214 15.7641C10.2464 16.058 9.6878 16.7318 9.50389 16.8968C9.31998 17.0618 9.15498 17.2216 9.15498 17.2216C9.15498 17.2216 7.82639 17.598 7.37951 17.8146C6.93608 18.0329 5.29295 19.0916 5.40811 19.1209Z" fill="#C0C0C0"/>
<path d="M13.1516 18.2239C13.0279 18.2342 12.8543 19.1623 12.7924 19.3685C12.758 19.4854 12.471 20.2846 12.5483 20.4187C12.703 20.6937 13.9749 20.6198 14.0316 20.4754C14.0866 20.331 13.669 19.3651 13.5916 19.1864C13.5125 19.011 13.3338 18.2084 13.1516 18.2239Z" fill="#367C2D"/>
<path d="M19.2137 8.94088C19.0676 9.08697 19.0625 9.31901 19.2241 9.45135C19.3667 9.56994 19.6022 9.4926 19.6898 9.38604C19.7775 9.27947 19.7672 9.04744 19.6503 8.93057C19.5334 8.81369 19.3014 8.85322 19.2137 8.94088Z" fill="white"/>
<path opacity="0.5" d="M19.2616 11.115C19.1052 11.2869 19.1567 11.543 19.3011 11.6375C19.4455 11.7321 19.662 11.7235 19.7686 11.5929C19.8631 11.476 19.8735 11.2422 19.7291 11.0979C19.6036 10.9724 19.363 11.0033 19.2616 11.115Z" fill="white"/>
<path opacity="0.6" d="M14.7811 5.51051C14.7365 5.65317 14.8258 5.81473 14.9616 5.83879C15.1043 5.86457 15.2504 5.82332 15.2899 5.68754C15.3294 5.55004 15.2796 5.37817 15.0836 5.34379C14.8877 5.30942 14.8035 5.43317 14.7811 5.51051Z" fill="white"/>
<path d="M16.2483 7.9252C16.2483 7.9252 16.3755 7.4577 16.4683 7.44223C16.5612 7.42677 16.7468 7.94411 16.7468 7.94411C16.7468 7.94411 17.2091 7.95958 17.2246 8.03177C17.2401 8.10567 16.898 8.38239 16.898 8.38239C16.898 8.38239 17.0252 8.81552 16.9719 8.87052C16.9187 8.9238 16.4941 8.65052 16.4941 8.65052C16.4941 8.65052 16.1143 8.97192 16.0266 8.91348C15.939 8.85505 16.1005 8.37208 16.1005 8.37208C16.1005 8.37208 15.7396 8.11427 15.7344 8.02661C15.7276 7.93895 16.2483 7.9252 16.2483 7.9252Z" fill="white"/>
<path d="M5.76541 6.63805C5.76541 6.63805 5.93213 6.15852 6.03353 6.15336C6.13322 6.1482 6.27931 6.63289 6.27931 6.63289C6.27931 6.63289 6.77431 6.63805 6.80869 6.71024C6.85166 6.80305 6.49072 7.11758 6.49072 7.11758C6.49072 7.11758 6.60759 7.58508 6.55259 7.6418C6.49072 7.70367 6.06275 7.45789 6.06275 7.45789C6.06275 7.45789 5.62275 7.76383 5.52822 7.68133C5.44572 7.60914 5.61759 7.11242 5.61759 7.11242C5.61759 7.11242 5.20509 6.81164 5.22744 6.72742C5.25666 6.61055 5.76541 6.63805 5.76541 6.63805Z" fill="white"/>
<path opacity="0.5" d="M2.03703 7.92499C1.93391 7.91983 1.79297 8.02296 1.79297 8.19999C1.79297 8.33061 1.91844 8.4389 2.02672 8.4389C2.18313 8.4389 2.29141 8.3203 2.28625 8.18452C2.27938 8.00749 2.14531 7.93015 2.03703 7.92499Z" fill="white"/>
<path d="M3.17422 10.4893C3.18453 10.6852 3.2825 10.8519 3.53687 10.8451C3.79125 10.8382 4.00093 10.448 3.75859 10.2194C3.51625 9.99083 3.16047 10.2263 3.17422 10.4893Z" fill="white"/>
<path d="M1.48713 12.8873C1.60744 13.0214 1.89619 12.9681 1.90307 12.7326C1.90994 12.5178 1.80166 12.4164 1.60057 12.4439C1.40119 12.4714 1.34104 12.724 1.48713 12.8873Z" fill="white"/>
<path d="M7.89096 15.9587C7.78956 15.9931 7.66409 16.3849 7.54549 16.7906C7.46987 17.0467 7.24987 17.8149 7.30315 17.8527C7.35643 17.8906 7.88753 17.9163 8.09721 17.7874C8.3069 17.6585 8.45987 17.5468 8.48737 17.4712C8.51487 17.3956 8.27424 16.7287 8.18143 16.4846C8.10924 16.3007 7.99753 15.9209 7.89096 15.9587Z" fill="#367C2D"/>
<path opacity="0.5" d="M6.10728 3.45117C5.95088 3.62305 6.00244 3.87914 6.14682 3.97367C6.29119 4.0682 6.50775 4.05961 6.61432 3.92899C6.70885 3.81211 6.71916 3.57836 6.57478 3.43399C6.44932 3.31024 6.20697 3.34117 6.10728 3.45117Z" fill="white"/>
</svg>
