<svg width="20" height="17" viewBox="0 0 20 17" fill="none" xmlns="http://www.w3.org/2000/svg">
<path d="M10.2688 15.6676C14.3189 15.6676 17.6021 12.3843 17.6021 8.33427C17.6021 4.2842 14.3189 1.00098 10.2688 1.00098C6.21877 1.00098 2.93555 4.2842 2.93555 8.33427C2.93555 12.3843 6.21877 15.6676 10.2688 15.6676Z" fill="#C3C5C7"/>
<path d="M10.2376 3.36764C7.37095 3.36764 5.0043 5.56763 4.9043 8.33428V8.16761C4.9043 5.3343 7.30428 3.00098 10.2376 3.00098C13.1709 3.00098 15.5709 5.30096 15.5709 8.16761V8.33428C15.4709 5.56763 13.1376 3.36764 10.2376 3.36764Z" fill="#80898E"/>
<path d="M10.2376 13.3006C13.1042 13.3006 15.4709 11.1006 15.5709 8.33398V8.50065C15.5709 11.334 13.1709 13.6673 10.2376 13.6673C7.30428 13.6673 4.9043 11.3673 4.9043 8.50065V8.33398C5.03763 11.1006 7.37095 13.3006 10.2376 13.3006Z" fill="white"/>
<path d="M0.502956 0.134264C0.569622 -0.165734 0.736287 0.134264 0.736287 0.134264C0.736287 0.134264 0.802954 3.36758 1.13629 3.40091C1.50295 3.46758 1.23628 0.067598 1.66962 0.00093169C2.06961 -0.0657346 1.83628 3.46758 2.20295 3.43424C2.56961 3.40091 2.63628 0.134264 2.63628 0.134264C2.63628 0.134264 2.80294 -0.165734 2.86961 0.134264C3.83627 3.96757 3.06961 5.53423 3.06961 5.53423C3.06961 5.53423 2.93627 5.86756 2.60294 5.86756C2.56961 5.86756 2.60294 14.9675 2.60294 16.2008C2.60294 16.8008 0.769621 16.7675 0.769621 16.2008C0.769621 14.9675 0.802954 5.86756 0.769621 5.86756C0.436289 5.86756 0.302957 5.53423 0.302957 5.53423C0.302957 5.53423 -0.497038 3.96757 0.502956 0.134264Z" fill="#80898E"/>
<path d="M19.802 0.000976562C19.402 0.000976562 17.6686 1.2343 17.6686 5.83428C17.6686 7.30093 18.4686 7.30093 18.4686 8.23426V16.4342C18.4686 16.4342 19.3353 17.0009 20.002 16.3675V0.134309C20.002 0.134309 20.002 0.000976562 19.802 0.000976562Z" fill="#80898E"/>
</svg>
