<svg width="21" height="21" viewBox="0 0 21 21" fill="none" xmlns="http://www.w3.org/2000/svg">
<path d="M0 20.1368L2.98581 19.0953L0.729092 18.0537L0 20.1368Z" fill="#F7B600"/>
<path d="M8.64533 11.596L4.44437 7.36035L3.75 9.3046L8.64533 11.596Z" fill="#FFDD7D"/>
<path d="M3.75014 9.30469L2.98633 11.492L12.2909 15.8318L12.7423 15.6929L8.64547 11.5961L3.75014 9.30469Z" fill="#F7B600"/>
<path d="M2.25586 13.679L9.19959 16.9078L12.2896 15.8315L2.98495 11.4917L2.25586 13.679Z" fill="#FFDD7D"/>
<path d="M1.49414 15.8665L6.077 18.019L9.20169 16.908L2.25795 13.6792L1.49414 15.8665Z" fill="#F7B600"/>
<path d="M1.49233 15.8667L0.728516 18.054L2.98523 19.0955L6.07519 18.0193L1.49233 15.8667Z" fill="#FFDD7D"/>
<path d="M10.381 9.79088C12.7072 12.0823 13.9223 14.6515 13.0891 15.4847C12.2211 16.318 9.65194 15.1376 7.29107 12.8114C4.96492 10.52 3.74977 7.95079 4.58302 7.11754C5.45099 6.28429 8.02017 7.49944 10.381 9.79088Z" fill="#493816"/>
<path d="M7.46405 3.99271C6.90855 3.19419 7.49876 2.847 8.26257 2.98587C7.53348 2.11791 7.98483 1.49297 9.13054 1.736C9.47773 1.80544 8.99167 2.39566 8.6792 2.39566C9.6166 3.09003 9.09582 3.85384 8.08898 3.68025C8.99167 4.8954 7.46405 4.58293 6.76967 4.65237C6.59608 5.55505 7.63764 6.59661 7.29045 6.59661C6.52664 6.59661 5.27677 3.71497 7.46405 3.99271Z" fill="#42ADE2"/>
<path d="M14.7556 5.65904C14.2348 5.90207 12.7766 3.61064 14.582 3.57592C13.5404 2.63852 13.6793 2.18718 15.0681 2.15246C13.471 0.555399 16.0055 -9.951e-05 16.2485 0.833149C16.3179 1.07618 15.4847 0.624836 15.2069 1.07618C14.8945 1.59696 17.1512 2.95099 14.825 2.84683C15.693 3.7148 15.7277 4.13142 14.3737 4.2703C14.5473 4.54805 15.1028 5.52017 14.7556 5.65904Z" fill="#FF8736"/>
<path d="M15.3457 11.0752L15.8665 10.6239C15.8665 10.6239 16.3525 11.353 16.6997 11.6307C16.9775 10.3808 16.908 9.65174 18.3315 10.485C17.533 8.33243 18.8523 9.13096 20.1369 9.72118C20.0674 9.16568 20.1369 9.23512 20.6924 9.06152C21.1784 10.9016 19.8591 10.3461 18.8176 9.7559C19.4425 11.4224 18.7829 11.3182 17.4635 10.7627C17.4288 11.4571 17.2205 12.2556 16.8039 12.3251C16.3178 12.464 15.3457 11.0752 15.3457 11.0752Z" fill="#ED4C5C"/>
<path d="M11.4569 5.93689C10.8319 6.77014 9.8251 7.22148 9.09601 7.95057C8.3322 8.71439 7.88086 10.7975 7.88086 10.7975C7.88086 10.7975 8.15861 8.61023 8.8877 7.77698C9.54736 7.01317 10.5195 6.45767 11.0403 5.58971C11.9429 3.99265 11.1097 1.90953 9.92926 0.694373C10.1723 0.486061 10.5195 0.208312 10.6931 0C11.8388 1.42347 12.8109 4.16624 11.4569 5.93689Z" fill="#C28FEF"/>
<path d="M12.533 7.70749C11.6303 8.36715 10.9706 9.33927 10.3457 10.242C9.79018 11.0405 8.01953 12.0473 8.01953 12.0473C8.01953 12.0473 9.68603 10.9016 10.2068 10.0684C10.8317 9.0268 11.4567 7.95052 12.4288 7.18671C14.373 5.69381 17.1853 5.83268 19.3725 6.63121C19.2337 6.94368 18.9906 7.60334 18.9906 7.60334C18.9906 7.60334 14.373 6.35346 12.533 7.70749Z" fill="#FF8736"/>
<path d="M16.387 7.53396C15.7968 8.29777 15.5191 9.23517 15.0677 10.1031C14.6511 10.9017 14.0956 11.6655 13.2971 12.0821C12.3944 12.5334 10.4154 12.3946 10.4154 12.3946C10.4154 12.3946 12.3944 12.3599 13.2276 11.8044C14.0609 11.2489 14.5122 10.2767 14.8247 9.37405C15.4496 7.63812 16.2134 5.76331 18.0188 4.9995C18.123 5.31196 18.366 5.97162 18.366 5.97162C18.366 5.97162 17.3592 6.24937 16.387 7.53396ZM0.419922 3.9319L1.40177 2.94971L2.38396 3.93155L1.40211 4.91409L0.419922 3.9319Z" fill="#42ADE2"/>
<path d="M1.79492 7.01212L2.77642 6.03027L3.75826 7.01212L2.77642 7.99396L1.79492 7.01212Z" fill="#FF8736"/>
<path d="M4.29102 2.36856L5.27286 1.38672L6.2547 2.36856L5.27286 3.35041L4.29102 2.36856Z" fill="#ED4C5C"/>
<path d="M15 14.1292L15.9818 13.147L16.9637 14.1292L15.9818 15.111L15 14.1292Z" fill="#C28FEF"/>
<path d="M12.8125 17.495L13.7943 16.5132L14.7765 17.4954L13.7943 18.4772L12.8125 17.495Z" fill="#ED4C5C"/>
<path d="M17.1094 18.2644L18.0912 17.2822L19.0731 18.2644L18.0912 19.2463L17.1094 18.2644Z" fill="#FF8736"/>
<path d="M18.0808 13.7941L19.0627 12.8122L20.0445 13.7941L19.0627 14.7763L18.0808 13.7941ZM16.4414 3.41041L17.4232 2.42822L18.4054 3.41041L17.4236 4.39226L16.4414 3.41041Z" fill="#42ADE2"/>
<path d="M5.91797 9.30167L6.90016 8.31982L7.882 9.30167L6.90016 10.2839L5.91797 9.30167Z" fill="#ED4C5C"/>
</svg>
