<svg width="20" height="20" viewBox="0 0 20 20" fill="none" xmlns="http://www.w3.org/2000/svg">
<path d="M9.9375 17.4688C5.57812 17.4688 0.875 14.7344 0.875 8.73438C0.875 2.73438 5.57812 0 9.9375 0C12.3594 0 14.5938 0.796875 16.25 2.25C18.0469 3.84375 19 6.09375 19 8.73438C19 11.375 18.0469 13.6094 16.25 15.2031C14.5938 16.6562 12.3438 17.4688 9.9375 17.4688Z" fill="url(#paint0_radial_873_549)"/>
<path d="M17.4211 3.54199C18.2539 4.88574 18.6883 6.48574 18.6883 8.26543C18.6883 10.9061 17.7352 13.1404 15.9383 14.7342C14.282 16.1873 12.032 16.9998 9.62578 16.9998C6.80391 16.9998 3.84453 15.8514 2.09766 13.4154C3.77891 16.1748 6.94141 17.4686 9.93828 17.4686C12.3445 17.4686 14.5945 16.6561 16.2508 15.2029C18.0477 13.6092 19.0008 11.3748 19.0008 8.73418C19.0008 6.74356 18.4586 4.9748 17.4211 3.54199Z" fill="#EB8F00"/>
<path d="M14.9882 2.67656L13.7288 4.34843C13.6663 4.42968 13.5695 4.47656 13.4663 4.47187L11.3757 4.38281C11.2038 4.375 11.057 4.50937 11.0491 4.68125C11.046 4.75 11.0663 4.81718 11.1054 4.87343L12.307 6.59218C12.3648 6.675 12.3788 6.77968 12.3445 6.875L11.6132 8.8375C11.5538 9 11.6366 9.17968 11.7976 9.23906C11.8616 9.2625 11.9304 9.26406 11.996 9.24531L13.9976 8.63281C14.096 8.60312 14.2023 8.62343 14.2835 8.6875L15.9226 9.98906C16.0585 10.0953 16.2538 10.0734 16.3616 9.9375C16.4038 9.88281 16.4273 9.81718 16.4288 9.74843L16.4648 7.65625C16.4663 7.55312 16.5195 7.45781 16.6054 7.40156L18.3491 6.25C18.4929 6.15468 18.5335 5.96093 18.4382 5.81718C18.4007 5.75937 18.3445 5.71562 18.2788 5.69375L16.2991 5.0125C16.1991 4.97968 16.1226 4.89843 16.0945 4.79687L15.5382 2.77968C15.4913 2.61406 15.3179 2.51718 15.1523 2.56406C15.0866 2.58281 15.0288 2.62187 14.9882 2.67656Z" fill="url(#paint1_radial_873_549)"/>
<path d="M15.5951 2.63925L16.0639 4.81425C16.0998 4.98144 16.2232 5.11581 16.3873 5.16425L18.4779 5.78925C18.6342 5.8455 18.7154 6.01738 18.6592 6.17363C18.6373 6.23613 18.5951 6.28769 18.5389 6.32363L16.6639 7.34238C16.506 7.42207 16.406 7.58456 16.406 7.76113L16.4248 10.0408C16.4201 10.2049 16.2826 10.3346 16.117 10.3299C16.0514 10.3283 15.9873 10.3049 15.9373 10.2627L14.2998 8.79238C14.1732 8.67675 13.9935 8.64081 13.831 8.69706L11.7529 9.40488C11.5935 9.45019 11.4279 9.358 11.381 9.19863C11.3623 9.13613 11.3654 9.06894 11.3904 9.008L12.306 6.91894C12.3748 6.75956 12.3514 6.57675 12.2435 6.44081L10.9139 4.76425C10.8217 4.62519 10.8592 4.43925 10.9967 4.3455C11.0498 4.30956 11.1139 4.29238 11.1795 4.2955L13.3498 4.54238C13.5201 4.56113 13.6857 4.48613 13.7842 4.34706L15.0685 2.53144C15.1701 2.40019 15.3592 2.37675 15.4889 2.47988C15.542 2.5205 15.5779 2.57519 15.5951 2.63925Z" fill="#F44336"/>
<path d="M15.0987 4.74082L15.2549 3.24082C15.2658 3.15801 15.2783 3.01426 15.4112 3.04082C15.5158 3.0627 15.5268 3.28926 15.5268 3.28926L15.7299 4.56114C15.8049 5.04395 15.7049 5.18614 15.5237 5.24239C15.3127 5.3127 15.0549 5.17051 15.0987 4.74082Z" fill="#FF847A"/>
<path d="M16.5072 7.18748L17.9869 6.45467C18.0604 6.41405 18.1916 6.35311 18.1213 6.23905C18.0635 6.14998 17.8463 6.21717 17.8463 6.21717L16.6416 6.42498C16.2854 6.47186 16.0291 6.59686 15.965 6.8078C15.8822 7.07967 16.0932 7.35311 16.5072 7.18748Z" fill="#C62828"/>
<path d="M5.07829 2.26583L6.32829 4.10021C6.42516 4.24083 6.58923 4.3174 6.75954 4.30177L8.93454 4.08771C9.10016 4.08302 9.23923 4.21271 9.24391 4.37833C9.24548 4.4424 9.22829 4.50489 9.19235 4.55646L7.84391 6.2174C7.73454 6.35177 7.70798 6.53458 7.77516 6.69396L8.65798 8.79552C8.71579 8.95021 8.63766 9.12364 8.48298 9.18146C8.42048 9.2049 8.35329 9.20646 8.28923 9.18771L6.21579 8.44865C6.05485 8.39083 5.87516 8.42365 5.74704 8.53615L4.09391 9.98146C3.96579 10.0846 3.77829 10.0643 3.6736 9.93614C3.63141 9.88458 3.60798 9.81896 3.60798 9.75333L3.65954 7.47365C3.66423 7.30021 3.57204 7.14083 3.42204 7.0549L1.56266 6.00802C1.42204 5.92365 1.37516 5.73927 1.4611 5.59865C1.49704 5.53771 1.55485 5.49083 1.62204 5.46896L3.7236 4.87208C3.8861 4.82677 4.0111 4.69552 4.05173 4.53146L4.55016 2.36427C4.59548 2.2049 4.7611 2.11271 4.92048 2.15802C4.98298 2.17521 5.03923 2.21427 5.07829 2.26583Z" fill="#F44336"/>
<path d="M5.41656 4.39858L4.98844 2.9517C4.96813 2.87045 4.92438 2.73295 5.05563 2.70795C5.16031 2.68764 5.25875 2.89389 5.25875 2.89389L5.9275 3.98764C6.18219 4.40639 6.14156 4.57358 5.99625 4.69545C5.85094 4.81733 5.53844 4.81264 5.41656 4.39858Z" fill="#FF847A"/>
<path d="M7.64781 6.11893L8.74156 4.87831C8.79468 4.81425 8.89781 4.708 8.78218 4.62987C8.69624 4.56737 8.52124 4.71268 8.52124 4.71268L7.48531 5.36268C7.17281 5.54081 6.98375 5.75331 7.00562 5.97362C7.03218 6.26425 7.32906 6.43612 7.64781 6.11893Z" fill="#C62828"/>
<path d="M15.949 11.1907C15.7303 10.7954 15.2553 10.6219 14.8334 10.7813C13.2303 11.2485 11.5678 11.4813 9.89745 11.4735C8.22713 11.4813 6.56463 11.2485 4.96151 10.7813C4.5412 10.6219 4.0662 10.7938 3.84745 11.1875C3.63495 11.5797 3.78807 12.0344 3.96776 12.4266C4.97088 14.6297 7.18182 15.9485 9.88495 15.9563H9.90995C12.6131 15.9563 14.824 14.6297 15.8287 12.4266C16.0068 12.0313 16.1615 11.5829 15.949 11.1907Z" fill="#422B0D"/>
<path d="M12.398 15.3348C12.3402 15.2817 12.2809 15.2332 12.2215 15.1785C11.584 14.6176 10.759 14.316 9.90898 14.3332C9.03398 14.3192 8.18242 14.6098 7.49961 15.1567C7.44023 15.2051 7.37773 15.252 7.31992 15.3129C7.26211 15.3738 7.23086 15.4176 7.19336 15.4692C8.05273 15.8051 8.96836 15.977 9.8918 15.9723H9.9168C10.8012 15.9723 11.6777 15.8145 12.5059 15.5035C12.4746 15.4442 12.4387 15.3879 12.398 15.3348Z" fill="#ED7770"/>
<path d="M14.8332 10.7815C13.2301 11.2487 11.5676 11.4815 9.89727 11.4737C8.22695 11.4815 6.56445 11.2487 4.96133 10.7815C4.54102 10.6221 4.06602 10.794 3.84727 11.1877C3.81602 11.2471 3.79102 11.3096 3.77539 11.3737C3.82695 11.4002 3.88633 11.4268 3.95664 11.4549C5.83789 12.3971 7.91758 12.8752 10.0207 12.8502C12.0379 12.8737 14.0316 12.4346 15.8535 11.569C15.927 11.5377 15.9879 11.508 16.0426 11.4799C16.0301 11.3783 15.9973 11.2783 15.9488 11.1877C15.7301 10.794 15.2551 10.6205 14.8332 10.7815Z" fill="white"/>
<path d="M15.9553 11.1922C15.7334 10.7969 15.2568 10.6219 14.8318 10.7813C13.2287 11.2485 11.5662 11.4813 9.89745 11.4735C8.22713 11.4813 6.56463 11.2485 4.96151 10.7813C4.5412 10.6219 4.0662 10.7938 3.84745 11.1875C3.63495 11.5797 3.78807 12.0344 3.96776 12.4266C4.04745 12.6032 4.13651 12.7766 4.23495 12.9438C4.23495 12.9438 3.90682 11.7282 4.1912 11.3751C4.28807 11.2251 4.45057 11.1313 4.6287 11.1219C4.70213 11.1219 4.77401 11.1344 4.84432 11.1563C6.47557 11.636 8.16776 11.8782 9.86932 11.875H9.92401C11.6256 11.8782 13.3178 11.636 14.949 11.1563C15.0193 11.1344 15.0912 11.1219 15.1646 11.1219C15.3428 11.1313 15.5068 11.2251 15.6037 11.3751C15.8928 11.7282 15.5599 12.9485 15.5599 12.9485C15.6568 12.7813 15.7537 12.6094 15.8349 12.4313C16.0131 12.0391 16.1678 11.586 15.9553 11.1922Z" fill="#EB8F00"/>
<defs>
<radialGradient id="paint0_radial_873_549" cx="0" cy="0" r="1" gradientUnits="userSpaceOnUse" gradientTransform="translate(9.9375 8.73438) scale(8.89995)">
<stop offset="0.5" stop-color="#FDE030"/>
<stop offset="0.92" stop-color="#F7C02B"/>
<stop offset="1" stop-color="#F4A223"/>
</radialGradient>
<radialGradient id="paint1_radial_873_549" cx="0" cy="0" r="1" gradientUnits="userSpaceOnUse" gradientTransform="translate(14.7695 6.30437) scale(3.73608)">
<stop offset="0.2" stop-color="#FF4081"/>
<stop offset="0.88" stop-color="#CC1775"/>
</radialGradient>
</defs>
</svg>
