<svg width="11" height="11" viewBox="0 0 11 11" fill="none" xmlns="http://www.w3.org/2000/svg">
<path d="M3.35034 9.49909L0 10.1022L0.558389 6.70715L6.95753 0.330341C7.06135 0.225667 7.18487 0.142585 7.32096 0.085888C7.45705 0.0291906 7.60302 0 7.75044 0C7.89787 0 8.04384 0.0291906 8.17993 0.085888C8.31602 0.142585 8.43954 0.225667 8.54336 0.330341L9.72714 1.51413C9.83182 1.61795 9.9149 1.74146 9.9716 1.87755C10.0283 2.01364 10.0575 2.15961 10.0575 2.30704C10.0575 2.45447 10.0283 2.60044 9.9716 2.73653C9.9149 2.87262 9.83182 2.99613 9.72714 3.09995L3.35034 9.49909Z" fill="white"/>
</svg>
