<svg width="23" height="23" viewBox="0 0 23 23" fill="none" xmlns="http://www.w3.org/2000/svg">
<path fill-rule="evenodd" clip-rule="evenodd" d="M6.94727 9.58333C6.94727 8.37605 7.42686 7.21821 8.28054 6.36452C9.13422 5.51084 10.2921 5.03125 11.4993 5.03125C12.7066 5.03125 13.8645 5.51084 14.7182 6.36452C15.5718 7.21821 16.0514 8.37605 16.0514 9.58333C16.0514 10.7906 15.5718 11.9485 14.7182 12.8021C13.8645 13.6558 12.7066 14.1354 11.4993 14.1354C10.2921 14.1354 9.13422 13.6558 8.28054 12.8021C7.42686 11.9485 6.94727 10.7906 6.94727 9.58333ZM11.4993 6.46875C10.6733 6.46875 9.8811 6.79689 9.29701 7.38099C8.71291 7.96509 8.38477 8.75729 8.38477 9.58333C8.38477 10.4094 8.71291 11.2016 9.29701 11.7857C9.8811 12.3698 10.6733 12.6979 11.4993 12.6979C12.3254 12.6979 13.1176 12.3698 13.7017 11.7857C14.2858 11.2016 14.6139 10.4094 14.6139 9.58333C14.6139 8.75729 14.2858 7.96509 13.7017 7.38099C13.1176 6.79689 12.3254 6.46875 11.4993 6.46875Z" fill="#757575"/>
<path fill-rule="evenodd" clip-rule="evenodd" d="M3.37663 8.4878C3.54044 6.50098 4.44539 4.64842 5.91182 3.29792C7.37825 1.94742 9.29891 1.19775 11.2925 1.19775H11.7065C13.7 1.19775 15.6207 1.94742 17.0871 3.29792C18.5535 4.64842 19.4585 6.50098 19.6223 8.4878C19.8046 10.7009 19.1209 12.8983 17.7152 14.6173L13.1219 20.2341C12.9254 20.4745 12.6778 20.6682 12.3972 20.8012C12.1166 20.9342 11.81 21.0032 11.4995 21.0032C11.1889 21.0032 10.8823 20.9342 10.6017 20.8012C10.3211 20.6682 10.0736 20.4745 9.87701 20.2341L5.28372 14.6173C3.87795 12.8983 3.19425 10.7009 3.37663 8.4878ZM11.2925 2.63525C9.65993 2.6355 8.08716 3.24957 6.88636 4.35558C5.68555 5.46158 4.9445 6.97866 4.8103 8.60567C4.6585 10.4475 5.22745 12.2763 6.3973 13.7069L10.9906 19.3246C11.0523 19.4002 11.1301 19.4611 11.2183 19.5029C11.3065 19.5447 11.4028 19.5664 11.5004 19.5664C11.598 19.5664 11.6944 19.5447 11.7826 19.5029C11.8707 19.4611 11.9485 19.4002 12.0103 19.3246L16.6035 13.7069C17.7727 12.276 18.341 10.4472 18.1886 8.60567C18.0544 6.97849 17.3132 5.46128 16.1122 4.35525C14.9112 3.24922 13.3382 2.63526 11.7055 2.63525H11.2915H11.2925Z" fill="#757575"/>
</svg>
