<svg width="25" height="25" viewBox="0 0 25 25" fill="none" xmlns="http://www.w3.org/2000/svg">
<path d="M24.3132 0.706425C24.1397 0.532606 23.9337 0.394704 23.7068 0.300614C23.48 0.206524 23.2369 0.158092 22.9913 0.158092C22.7457 0.158092 22.5026 0.206524 22.2757 0.300614C22.0489 0.394704 21.8429 0.532606 21.6694 0.706425L12.5007 9.85643L3.33191 0.687675C3.15832 0.514084 2.95224 0.376384 2.72543 0.282437C2.49862 0.18849 2.25553 0.140137 2.01004 0.140137C1.76454 0.140137 1.52145 0.18849 1.29464 0.282437C1.06784 0.376384 0.861754 0.514084 0.688163 0.687675C0.514572 0.861266 0.376872 1.06735 0.282925 1.29416C0.188978 1.52096 0.140625 1.76406 0.140625 2.00955C0.140625 2.25505 0.188978 2.49814 0.282925 2.72494C0.376872 2.95175 0.514572 3.15783 0.688163 3.33143L9.85691 12.5002L0.688163 21.6689C0.514572 21.8425 0.376872 22.0486 0.282925 22.2754C0.188978 22.5022 0.140625 22.7453 0.140625 22.9908C0.140625 23.2363 0.188978 23.4794 0.282925 23.7062C0.376872 23.933 0.514572 24.1391 0.688163 24.3127C0.861754 24.4863 1.06784 24.624 1.29464 24.7179C1.52145 24.8119 1.76454 24.8602 2.01004 24.8602C2.25553 24.8602 2.49862 24.8119 2.72543 24.7179C2.95224 24.624 3.15832 24.4863 3.33191 24.3127L12.5007 15.1439L21.6694 24.3127C21.843 24.4863 22.0491 24.624 22.2759 24.7179C22.5027 24.8119 22.7458 24.8602 22.9913 24.8602C23.2368 24.8602 23.4799 24.8119 23.7067 24.7179C23.9335 24.624 24.1396 24.4863 24.3132 24.3127C24.4868 24.1391 24.6245 23.933 24.7184 23.7062C24.8123 23.4794 24.8607 23.2363 24.8607 22.9908C24.8607 22.7453 24.8123 22.5022 24.7184 22.2754C24.6245 22.0486 24.4868 21.8425 24.3132 21.6689L15.1444 12.5002L24.3132 3.33143C25.0257 2.61893 25.0257 1.41893 24.3132 0.706425Z" fill="#F864A1"/>
</svg>
