<svg xmlns="http://www.w3.org/2000/svg" width="22" height="19" viewBox="0 0 22 19" fill="none">
  <g clip-path="url(#clip0_319_405)">
    <path d="M21.5165 9.13046C21.3267 8.89827 16.8043 3.44507 11.0283 3.44507C5.25233 3.44507 0.729694 8.89827 0.540096 9.13024C0.360333 9.35052 0.360333 9.64929 0.540096 9.86957C0.729694 10.1018 5.25233 15.555 11.0283 15.555C16.8043 15.555 21.3267 10.1017 21.5165 9.86975C21.6965 9.64951 21.6965 9.35052 21.5165 9.13046ZM11.0283 14.3022C6.77368 14.3022 3.08874 10.6828 1.99792 9.49959C3.08733 8.31531 6.76455 4.69781 11.0283 4.69781C15.2827 4.69781 18.9674 8.31657 20.0587 9.50044C18.9693 10.6847 15.292 14.3022 11.0283 14.3022Z" fill="#A0A0A0"/>
    <path d="M11.0287 5.7417C8.71149 5.7417 6.82617 7.42769 6.82617 9.49996C6.82617 11.5722 8.71149 13.2582 11.0287 13.2582C13.346 13.2582 15.2313 11.5722 15.2313 9.49996C15.2313 7.42769 13.346 5.7417 11.0287 5.7417ZM11.0287 12.0054C9.48383 12.0054 8.22706 10.8815 8.22706 9.49996C8.22706 8.11841 9.48387 6.99448 11.0287 6.99448C12.5736 6.99448 13.8304 8.11841 13.8304 9.49996C13.8304 10.8815 12.5737 12.0054 11.0287 12.0054Z" fill="#A0A0A0"/>
  </g>
  <defs>
    <clipPath id="clip0_319_405">
      <rect width="21.2463" height="19" fill="white" transform="translate(0.405273)"/>
    </clipPath>
  </defs>
</svg>

