<svg width="20" height="20" viewBox="0 0 20 20" fill="none" xmlns="http://www.w3.org/2000/svg">
<path fill-rule="evenodd" clip-rule="evenodd" d="M4.68699 3.68664C3.30449 4.31831 2.29199 5.82164 2.29199 7.61414C2.29199 9.44498 3.04199 10.8566 4.11533 12.0666C5.00116 13.0633 6.07283 13.89 7.11783 14.695C7.36616 14.8866 7.61282 15.0775 7.85533 15.2683C8.29366 15.6141 8.68449 15.9166 9.06199 16.1375C9.43866 16.3575 9.74199 16.4583 10.0003 16.4583C10.2587 16.4583 10.562 16.3583 10.9387 16.1375C11.3162 15.9166 11.707 15.6141 12.1453 15.2683C12.387 15.0766 12.6345 14.8866 12.8828 14.695C13.9278 13.89 14.9995 13.0633 15.8853 12.0666C16.9595 10.8566 17.7087 9.44498 17.7087 7.61414C17.7087 5.82248 16.6962 4.31831 15.3137 3.68664C13.9703 3.07248 12.1653 3.23498 10.4503 5.01748C10.392 5.07796 10.3221 5.12608 10.2448 5.15894C10.1675 5.1918 10.0843 5.20874 10.0003 5.20874C9.91631 5.20874 9.83316 5.1918 9.75584 5.15894C9.67853 5.12608 9.60863 5.07796 9.55033 5.01748C7.83533 3.23498 6.03033 3.07248 4.68699 3.68664ZM10.0003 3.71664C8.07366 1.99164 5.91616 1.74998 4.16699 2.54914C2.32199 3.39498 1.04199 5.35498 1.04199 7.61498C1.04199 9.83581 1.96699 11.5308 3.18116 12.8975C4.15283 13.9916 5.34199 14.9075 6.39283 15.7158C6.63116 15.8991 6.86199 16.0775 7.08116 16.2508C7.50866 16.5875 7.96699 16.9458 8.43116 17.2175C8.89533 17.4883 9.42533 17.7091 10.0003 17.7091C10.5753 17.7091 11.1053 17.4883 11.5695 17.2175C12.0345 16.9458 12.492 16.5875 12.9195 16.2508C13.1477 16.071 13.3772 15.8926 13.6078 15.7158C14.6578 14.9075 15.8478 13.9908 16.8195 12.8975C18.0337 11.5308 18.9587 9.83581 18.9587 7.61498C18.9587 5.35498 17.6795 3.39498 15.8337 2.55081C14.0845 1.75081 11.927 1.99248 10.0003 3.71664Z" fill="#757575"/>
</svg>
