<svg width="19" height="19" viewBox="0 0 19 19" fill="none" xmlns="http://www.w3.org/2000/svg">
<path d="M7.75 7.75C7.75 7.57694 7.69869 7.40777 7.60254 7.26388C7.50639 7.11998 7.36974 7.00783 7.20985 6.94161C7.04997 6.87538 6.87403 6.85805 6.7043 6.89181C6.53457 6.92557 6.37866 7.00891 6.25629 7.13128C6.13391 7.25365 6.05058 7.40956 6.01682 7.5793C5.98305 7.74903 6.00038 7.92496 6.06661 8.08485C6.13284 8.24473 6.24499 8.38139 6.38888 8.47754C6.53277 8.57368 6.70195 8.625 6.875 8.625C7.10707 8.625 7.32963 8.53281 7.49372 8.36872C7.65782 8.20462 7.75 7.98206 7.75 7.75ZM11.6875 11.3025C11.5882 11.2443 11.4783 11.2062 11.3642 11.1906C11.2502 11.1749 11.1341 11.1819 11.0227 11.2112C10.9114 11.2404 10.8069 11.2914 10.7152 11.3611C10.6236 11.4308 10.5466 11.518 10.4888 11.6175C10.3894 11.7921 10.2456 11.9374 10.0719 12.0384C9.89825 12.1394 9.70092 12.1926 9.5 12.1926C9.29909 12.1926 9.10176 12.1394 8.92808 12.0384C8.75441 11.9374 8.61059 11.7921 8.51125 11.6175C8.45336 11.518 8.37639 11.4308 8.28476 11.3611C8.19313 11.2914 8.08863 11.2404 7.97727 11.2112C7.8659 11.1819 7.74986 11.1749 7.63578 11.1906C7.52171 11.2062 7.41185 11.2443 7.3125 11.3025C7.11236 11.4179 6.966 11.6078 6.90535 11.8308C6.8447 12.0537 6.87468 12.2916 6.98875 12.4925C7.24254 12.9342 7.60835 13.3012 8.04926 13.5563C8.49017 13.8115 8.99058 13.9459 9.5 13.9459C10.0094 13.9459 10.5098 13.8115 10.9508 13.5563C11.3917 13.3012 11.7575 12.9342 12.0113 12.4925C12.1253 12.2916 12.1553 12.0537 12.0947 11.8308C12.034 11.6078 11.8876 11.4179 11.6875 11.3025ZM12.125 6.875C11.9519 6.875 11.7828 6.92632 11.6389 7.02246C11.495 7.11861 11.3828 7.25527 11.3166 7.41515C11.2504 7.57504 11.2331 7.75097 11.2668 7.9207C11.3006 8.09044 11.3839 8.24635 11.5063 8.36872C11.6287 8.49109 11.7846 8.57442 11.9543 8.60819C12.124 8.64195 12.3 8.62462 12.4599 8.55839C12.6197 8.49217 12.7564 8.38002 12.8525 8.23612C12.9487 8.09223 13 7.92306 13 7.75C13 7.51794 12.9078 7.29538 12.7437 7.13128C12.5796 6.96719 12.3571 6.875 12.125 6.875ZM9.5 0.75C7.76942 0.75 6.07769 1.26318 4.63876 2.22464C3.19983 3.1861 2.07832 4.55267 1.41606 6.15152C0.753791 7.75037 0.580512 9.50971 0.918133 11.207C1.25575 12.9044 2.08911 14.4635 3.31282 15.6872C4.53653 16.9109 6.09563 17.7442 7.79296 18.0819C9.4903 18.4195 11.2496 18.2462 12.8485 17.5839C14.4473 16.9217 15.8139 15.8002 16.7754 14.3612C17.7368 12.9223 18.25 11.2306 18.25 9.5C18.25 8.35093 18.0237 7.21312 17.584 6.15152C17.1442 5.08992 16.4997 4.12533 15.6872 3.31282C14.8747 2.5003 13.9101 1.85578 12.8485 1.41605C11.7869 0.976325 10.6491 0.75 9.5 0.75ZM9.5 16.5C7.87015 16.507 6.28893 15.9451 5.02903 14.9111C3.76912 13.8772 2.90952 12.4359 2.59846 10.836C2.28739 9.23612 2.54437 7.57782 3.32507 6.14709C4.10577 4.71637 5.36125 3.60291 6.875 2.99875C6.866 3.12401 6.866 3.24974 6.875 3.375C6.875 4.07119 7.15157 4.73887 7.64385 5.23115C8.13613 5.72344 8.80381 6 9.5 6C9.73207 6 9.95463 5.90781 10.1187 5.74372C10.2828 5.57962 10.375 5.35706 10.375 5.125C10.375 4.89294 10.2828 4.67038 10.1187 4.50628C9.95463 4.34219 9.73207 4.25 9.5 4.25C9.26794 4.25 9.04538 4.15781 8.88129 3.99372C8.71719 3.82962 8.625 3.60706 8.625 3.375C8.625 3.14294 8.71719 2.92038 8.88129 2.75628C9.04538 2.59219 9.26794 2.5 9.5 2.5C11.3565 2.5 13.137 3.2375 14.4498 4.55025C15.7625 5.86301 16.5 7.64348 16.5 9.5C16.5 11.3565 15.7625 13.137 14.4498 14.4497C13.137 15.7625 11.3565 16.5 9.5 16.5Z" fill="black"/>
</svg>
