<svg width="24" height="24" viewBox="0 0 24 24" fill="none" xmlns="http://www.w3.org/2000/svg">
<g clip-path="url(#clip0_371_1441)">
<path fill-rule="evenodd" clip-rule="evenodd" d="M8.29266 11.2932C8.10519 11.4807 7.99987 11.735 7.99987 12.0002C7.99987 12.2653 8.10519 12.5197 8.29266 12.7072L13.9497 18.3642C14.0419 18.4597 14.1522 18.5359 14.2743 18.5883C14.3963 18.6407 14.5275 18.6683 14.6603 18.6694C14.793 18.6706 14.9247 18.6453 15.0476 18.595C15.1705 18.5447 15.2822 18.4705 15.3761 18.3766C15.4699 18.2827 15.5442 18.171 15.5945 18.0481C15.6448 17.9252 15.6701 17.7936 15.6689 17.6608C15.6678 17.528 15.6402 17.3968 15.5878 17.2748C15.5353 17.1528 15.4592 17.0424 15.3637 16.9502L10.4137 12.0002L15.3637 7.05018C15.5458 6.86158 15.6466 6.60898 15.6443 6.34678C15.6421 6.08458 15.5369 5.83377 15.3515 5.64836C15.1661 5.46295 14.9153 5.35778 14.6531 5.35551C14.3909 5.35323 14.1383 5.45402 13.9497 5.63618L8.29266 11.2932Z" fill="#333333"/>
</g>
<defs>
<clipPath id="clip0_371_1441">
<rect width="24" height="24" fill="white" transform="matrix(-1 0 0 1 24 0)"/>
</clipPath>
</defs>
</svg>
