<svg width="20" height="22" viewBox="0 0 20 22" fill="none" xmlns="http://www.w3.org/2000/svg">
<path d="M2.85703 10.2663C2.85703 14.3178 6.05332 17.5993 9.99959 17.5993C11.2897 17.5993 12.4995 17.2464 13.5441 16.6323L10.3299 12.6724C9.82549 12.0491 9.90584 11.1233 10.513 10.6054C11.1201 10.0875 12.0218 10.17 12.5263 10.7933L15.6913 14.6936C16.602 13.4653 17.1422 11.93 17.1422 10.2663C17.1422 6.21476 13.9459 2.93322 9.99959 2.93322C6.05332 2.93322 2.85703 6.21476 2.85703 10.2663ZM15.3967 18.9101C13.8387 19.9367 11.9861 20.5325 9.99959 20.5325C4.4775 20.5325 0 15.9356 0 10.2663C0 4.59691 4.4775 0 9.99959 0C15.5217 0 19.9992 4.59691 19.9992 10.2663C19.9992 12.8374 19.0796 15.1886 17.5573 16.9898L19.6688 19.593C20.1733 20.2163 20.0929 21.1421 19.4858 21.66C18.8787 22.1779 17.9769 22.0954 17.4725 21.4721L15.3922 18.9101H15.3967Z" fill="#333333"/>
</svg>
