<svg width="16" height="20" viewBox="0 0 16 20" fill="none" xmlns="http://www.w3.org/2000/svg">
<path d="M9.22933 0.879516C9.02514 0.348235 8.53757 0 8 0C7.46243 0 6.97486 0.348235 6.77067 0.879516L1.76998 13.7374L0.10309 18.0234C-0.180282 18.7511 0.140595 19.586 0.819854 19.8896C1.49911 20.1931 2.27839 19.8494 2.56176 19.1217L3.88694 15.7152H12.1131L13.4382 19.1217C13.7216 19.8494 14.5009 20.1931 15.1801 19.8896C15.8594 19.586 16.1803 18.7511 15.8969 18.0234L14.23 13.7374L9.22933 0.879516ZM11.0004 12.8579H4.99959L8 5.14316L11.0004 12.8579Z" fill="#F864A1"/>
</svg>
