<svg width="18" height="18" viewBox="0 0 18 18" fill="none" xmlns="http://www.w3.org/2000/svg">
<path d="M8.48468 11.6252C8.61294 11.2289 8.79166 10.8508 9.01643 10.5002H3.93893C3.49171 10.5004 3.06287 10.6782 2.7467 10.9945C2.43054 11.3108 2.25293 11.7397 2.25293 12.1869V12.6204C2.25293 13.2894 2.49143 13.9374 2.92643 14.4467C4.10093 15.8222 5.89043 16.5017 8.24993 16.5017C8.69993 16.5017 9.12968 16.4762 9.53768 16.4267C9.24288 16.1064 8.99216 15.7483 8.79218 15.3617C8.61668 15.3714 8.43593 15.3767 8.24993 15.3767C6.19643 15.3767 4.72193 14.8164 3.78218 13.7162C3.52086 13.4106 3.37724 13.0217 3.37718 12.6197V12.1869C3.37718 12.0377 3.43644 11.8946 3.54193 11.7892C3.64742 11.6837 3.7905 11.6244 3.93968 11.6244H8.48468V11.6252ZM8.24993 1.50391C8.74239 1.50391 9.23002 1.6009 9.68499 1.78936C10.14 1.97781 10.5534 2.25404 10.9016 2.60226C11.2498 2.95048 11.526 3.36387 11.7145 3.81884C11.9029 4.27381 11.9999 4.76145 11.9999 5.25391C11.9999 5.74636 11.9029 6.234 11.7145 6.68897C11.526 7.14394 11.2498 7.55734 10.9016 7.90556C10.5534 8.25378 10.14 8.53 9.68499 8.71845C9.23002 8.90691 8.74239 9.00391 8.24993 9.00391C7.25537 9.00391 6.30154 8.60882 5.59828 7.90556C4.89502 7.2023 4.49993 6.24847 4.49993 5.25391C4.49993 4.25934 4.89502 3.30552 5.59828 2.60226C6.30154 1.89899 7.25537 1.50391 8.24993 1.50391ZM8.24993 2.62891C7.90521 2.62891 7.56387 2.6968 7.24539 2.82872C6.92691 2.96064 6.63753 3.154 6.39377 3.39775C6.15002 3.6415 5.95666 3.93088 5.82475 4.24936C5.69283 4.56784 5.62493 4.90919 5.62493 5.25391C5.62493 5.59863 5.69283 5.93997 5.82475 6.25845C5.95666 6.57693 6.15002 6.86631 6.39377 7.11006C6.63753 7.35382 6.92691 7.54717 7.24539 7.67909C7.56387 7.81101 7.90521 7.87891 8.24993 7.87891C8.94612 7.87891 9.6138 7.60234 10.1061 7.11006C10.5984 6.61778 10.8749 5.9501 10.8749 5.25391C10.8749 4.55771 10.5984 3.89003 10.1061 3.39775C9.6138 2.90547 8.94612 2.62891 8.24993 2.62891ZM17.2499 13.1252C17.2499 14.2192 16.8153 15.2684 16.0417 16.042C15.2682 16.8156 14.2189 17.2502 13.1249 17.2502C12.0309 17.2502 10.9817 16.8156 10.2081 16.042C9.43453 15.2684 8.99993 14.2192 8.99993 13.1252C8.99993 12.0311 9.43453 10.9819 10.2081 10.2083C10.9817 9.43475 12.0309 9.00016 13.1249 9.00016C14.2189 9.00016 15.2682 9.43475 16.0417 10.2083C16.8153 10.9819 17.2499 12.0311 17.2499 13.1252ZM10.1249 13.1252C10.1249 13.9208 10.441 14.6839 11.0036 15.2465C11.5662 15.8091 12.3293 16.1252 13.1249 16.1252C13.9206 16.1252 14.6836 15.8091 15.2463 15.2465C15.8089 14.6839 16.1249 13.9208 16.1249 13.1252C16.1249 12.3295 15.8089 11.5664 15.2463 11.0038C14.6836 10.4412 13.9206 10.1252 13.1249 10.1252C12.3293 10.1252 11.5662 10.4412 11.0036 11.0038C10.441 11.5664 10.1249 12.3295 10.1249 13.1252ZM13.8749 11.6252C13.8749 11.8241 13.7959 12.0148 13.6553 12.1555C13.5146 12.2961 13.3238 12.3752 13.1249 12.3752C12.926 12.3752 12.7353 12.2961 12.5946 12.1555C12.4539 12.0148 12.3749 11.8241 12.3749 11.6252C12.3749 11.4262 12.4539 11.2355 12.5946 11.0948C12.7353 10.9542 12.926 10.8752 13.1249 10.8752C13.3238 10.8752 13.5146 10.9542 13.6553 11.0948C13.7959 11.2355 13.8749 11.4262 13.8749 11.6252ZM13.6874 13.5002C13.6874 13.351 13.6282 13.2079 13.5227 13.1024C13.4172 12.9969 13.2741 12.9377 13.1249 12.9377C12.9757 12.9377 12.8327 12.9969 12.7272 13.1024C12.6217 13.2079 12.5624 13.351 12.5624 13.5002V14.8127C12.5624 14.9618 12.6217 15.1049 12.7272 15.2104C12.8327 15.3159 12.9757 15.3752 13.1249 15.3752C13.2741 15.3752 13.4172 15.3159 13.5227 15.2104C13.6282 15.1049 13.6874 14.9618 13.6874 14.8127V13.5002Z" fill="#757575"/>
</svg>
