<svg width="17" height="18" viewBox="0 0 17 18" fill="none" xmlns="http://www.w3.org/2000/svg">
<g clip-path="url(#clip0_368_823)">
<path d="M11.4429 1.93492C11.7112 1.93492 11.9685 2.04186 12.1583 2.23221C12.348 2.42256 12.4546 2.68073 12.4546 2.94992V15.1299C12.4546 15.3991 12.348 15.6573 12.1583 15.8476C11.9685 16.038 11.7112 16.1449 11.4429 16.1449H5.37293C5.10462 16.1449 4.8473 16.038 4.65758 15.8476C4.46786 15.6573 4.36127 15.3991 4.36127 15.1299V2.94992C4.36127 2.68073 4.46786 2.42256 4.65758 2.23221C4.8473 2.04186 5.10462 1.93492 5.37293 1.93492H11.4429ZM5.37293 0.919922C4.83631 0.919922 4.32167 1.1338 3.94223 1.5145C3.56278 1.89519 3.34961 2.41153 3.34961 2.94992V15.1299C3.34961 15.6683 3.56278 16.1846 3.94223 16.5653C4.32167 16.946 4.83631 17.1599 5.37293 17.1599H11.4429C11.9795 17.1599 12.4942 16.946 12.8736 16.5653C13.2531 16.1846 13.4662 15.6683 13.4662 15.1299V2.94992C13.4662 2.41153 13.2531 1.89519 12.8736 1.5145C12.4942 1.1338 11.9795 0.919922 11.4429 0.919922L5.37293 0.919922Z" fill="#757575"/>
<path d="M8.40815 15.1299C8.67646 15.1299 8.93378 15.0229 9.1235 14.8326C9.31322 14.6422 9.41981 14.384 9.41981 14.1149C9.41981 13.8457 9.31322 13.5875 9.1235 13.3971C8.93378 13.2068 8.67646 13.0999 8.40815 13.0999C8.13984 13.0999 7.88252 13.2068 7.69279 13.3971C7.50307 13.5875 7.39648 13.8457 7.39648 14.1149C7.39648 14.384 7.50307 14.6422 7.69279 14.8326C7.88252 15.0229 8.13984 15.1299 8.40815 15.1299Z" fill="#757575"/>
</g>
<defs>
<clipPath id="clip0_368_823">
<rect width="16.1866" height="16.24" fill="white" transform="translate(0.314453 0.919922)"/>
</clipPath>
</defs>
</svg>
