<svg width="22" height="22" viewBox="0 0 22 22" fill="none" xmlns="http://www.w3.org/2000/svg">
<path d="M11 18.48C6.86402 18.48 3.52002 15.136 3.52002 11C3.52002 6.86402 6.86402 3.52002 11 3.52002C15.136 3.52002 18.48 6.86402 18.48 11C18.48 15.136 15.136 18.48 11 18.48ZM11 4.40002C7.34802 4.40002 4.40002 7.34802 4.40002 11C4.40002 14.652 7.34802 17.6 11 17.6C14.652 17.6 17.6 14.652 17.6 11C17.6 7.34802 14.652 4.40002 11 4.40002Z" fill="#757575"/>
<path d="M8.71213 8.62398C8.84413 8.27198 8.97613 8.00798 9.24013 7.78798C9.46013 7.56798 9.72413 7.39198 10.0761 7.25998C10.4281 7.12798 10.7801 7.08398 11.1761 7.08398C11.4841 7.08398 11.7921 7.12798 12.0561 7.21598C12.3201 7.30398 12.5841 7.43598 12.8041 7.61198C13.0241 7.78798 13.2001 8.00798 13.2881 8.27198C13.4201 8.53598 13.4641 8.84398 13.4641 9.15198C13.4641 9.59198 13.3761 9.94398 13.2001 10.252C13.0241 10.56 12.7601 10.824 12.4961 11.132L11.9241 11.704C11.7921 11.836 11.6601 11.968 11.6161 12.1C11.5281 12.232 11.4841 12.408 11.4841 12.584C11.4401 12.76 11.4401 12.892 11.4401 13.244H10.7361C10.7361 12.892 10.7361 12.76 10.7801 12.496C10.8241 12.276 10.9121 12.056 11.0001 11.836C11.0881 11.66 11.2201 11.484 11.3961 11.308C11.5721 11.132 11.7921 10.956 12.0121 10.692C12.2321 10.472 12.4081 10.252 12.5401 10.032C12.6721 9.81198 12.7601 9.50398 12.7601 9.23998C12.7601 9.01998 12.7161 8.79998 12.6281 8.62398C12.5401 8.44798 12.4081 8.27198 12.2761 8.13998C12.1441 8.00798 11.9681 7.91998 11.7481 7.83198C11.5281 7.74398 11.3521 7.69998 11.1321 7.69998C10.8241 7.69998 10.5601 7.74398 10.3401 7.87598C10.1201 7.96398 9.90013 8.13998 9.76813 8.31598C9.63613 8.49198 9.50413 8.71198 9.41613 8.97598C9.32813 9.23998 9.24013 9.37198 9.24013 9.67998H8.53613C8.53613 9.28398 8.58013 8.97598 8.71213 8.62398ZM11.4401 14.08V14.96H10.5601V14.08H11.4401Z" fill="#757575"/>
</svg>
