<svg width="30" height="32" viewBox="0 0 30 32" fill="none" xmlns="http://www.w3.org/2000/svg">
<path opacity="0.3" d="M19.4318 23.4541C18.7233 22.7456 18.7233 21.5968 19.4318 20.8883C20.1403 20.1798 21.289 20.1798 21.9976 20.8883L29.2547 28.1455C29.9632 28.854 29.9632 30.0027 29.2547 30.7113C28.5462 31.4198 27.3974 31.4198 26.6889 30.7113L19.4318 23.4541Z" fill="white"/>
<path fill-rule="evenodd" clip-rule="evenodd" d="M0.757812 13.0999C0.757812 20.1139 6.4438 25.7999 13.4578 25.7999C20.4718 25.7999 26.1578 20.1139 26.1578 13.0999C26.1578 6.08589 20.4718 0.399902 13.4578 0.399902C6.4438 0.399902 0.757812 6.08589 0.757812 13.0999ZM22.5292 13.0999C22.5292 18.1099 18.4678 22.1713 13.4578 22.1713C8.4478 22.1713 4.38638 18.1099 4.38638 13.0999C4.38638 8.08989 8.4478 4.02847 13.4578 4.02847C18.4678 4.02847 22.5292 8.08989 22.5292 13.0999Z" fill="white"/>
</svg>
