<svg width="18" height="18" viewBox="0 0 18 18" fill="none" xmlns="http://www.w3.org/2000/svg">
<path d="M12.8019 6.57313C12.8984 6.66981 12.9527 6.80086 12.9527 6.9375C12.9527 7.07414 12.8984 7.20519 12.8019 7.30187L7.98938 12.1144C7.8927 12.2109 7.76164 12.2652 7.625 12.2652C7.48836 12.2652 7.35731 12.2109 7.26063 12.1144L5.19813 10.0519C5.10705 9.95413 5.05746 9.82485 5.05982 9.69127C5.06218 9.55768 5.11629 9.43023 5.21076 9.33576C5.30524 9.24129 5.43269 9.18717 5.56627 9.18482C5.69985 9.18246 5.82913 9.23204 5.92688 9.32312L7.625 11.0204L12.0731 6.57313C12.1698 6.47657 12.3009 6.42233 12.4375 6.42233C12.5741 6.42233 12.7052 6.47657 12.8019 6.57313ZM17.7656 9C17.7656 10.7337 17.2515 12.4284 16.2884 13.8699C15.3252 15.3114 13.9562 16.4349 12.3545 17.0984C10.7528 17.7618 8.99028 17.9354 7.28992 17.5972C5.58955 17.259 4.02767 16.4241 2.80177 15.1982C1.57588 13.9723 0.741032 12.4105 0.402808 10.7101C0.0645844 9.00972 0.238173 7.24725 0.901622 5.64554C1.56507 4.04383 2.68858 2.67483 4.13008 1.71165C5.57158 0.74847 7.26633 0.234375 9 0.234375C11.324 0.237104 13.5519 1.1615 15.1952 2.80478C16.8385 4.44806 17.7629 6.67605 17.7656 9ZM16.7344 9C16.7344 7.47029 16.2808 5.97492 15.4309 4.70301C14.581 3.4311 13.3731 2.43977 11.9598 1.85437C10.5465 1.26897 8.99142 1.11581 7.4911 1.41424C5.99078 1.71267 4.61265 2.4493 3.53097 3.53097C2.4493 4.61264 1.71268 5.99078 1.41424 7.4911C1.11581 8.99142 1.26898 10.5465 1.85437 11.9598C2.43977 13.3731 3.4311 14.581 4.70302 15.4309C5.97493 16.2808 7.47029 16.7344 9 16.7344C11.0506 16.7321 13.0165 15.9165 14.4665 14.4665C15.9165 13.0165 16.7321 11.0506 16.7344 9Z" fill="#666666"/>
</svg>
