<svg width="25" height="25" viewBox="0 0 25 25" fill="none" xmlns="http://www.w3.org/2000/svg">
<path fill-rule="evenodd" clip-rule="evenodd" d="M1.69989 0.889893C1.59352 0.889893 1.48819 0.910844 1.38992 0.95155C1.29165 0.992257 1.20235 1.05192 1.12714 1.12714C1.05192 1.20235 0.992256 1.29165 0.95155 1.38992C0.910844 1.48819 0.889893 1.59352 0.889893 1.69989C0.889893 1.80626 0.910844 1.91159 0.95155 2.00987C0.992256 2.10814 1.05192 2.19743 1.12714 2.27265C1.20235 2.34786 1.29165 2.40753 1.38992 2.44823C1.48819 2.48894 1.59352 2.50989 1.69989 2.50989H23.2999C23.5147 2.50989 23.7207 2.42455 23.8726 2.27265C24.0246 2.12074 24.1099 1.91472 24.1099 1.69989C24.1099 1.48507 24.0246 1.27904 23.8726 1.12714C23.7207 0.975232 23.5147 0.889893 23.2999 0.889893H1.69989ZM6.07749 12.3775C5.99791 12.4516 5.93408 12.5411 5.88981 12.6404C5.84554 12.7398 5.82173 12.847 5.81981 12.9558C5.81789 13.0646 5.8379 13.1726 5.87864 13.2735C5.91938 13.3743 5.98001 13.4659 6.05693 13.5429C6.13385 13.6198 6.22547 13.6804 6.32633 13.7211C6.42719 13.7619 6.53522 13.7819 6.64398 13.78C6.75274 13.7781 6.85999 13.7542 6.95935 13.71C7.05871 13.6657 7.14814 13.6019 7.22229 13.5223L11.6899 9.05469V23.2999C11.6899 23.5147 11.7752 23.7207 11.9271 23.8726C12.079 24.0246 12.2851 24.1099 12.4999 24.1099C12.7147 24.1099 12.9207 24.0246 13.0726 23.8726C13.2246 23.7207 13.3099 23.5147 13.3099 23.2999V9.05469L17.7775 13.5223C17.8516 13.6019 17.9411 13.6657 18.0404 13.71C18.1398 13.7542 18.247 13.7781 18.3558 13.78C18.4646 13.7819 18.5726 13.7619 18.6735 13.7211C18.7743 13.6804 18.8659 13.6198 18.9429 13.5429C19.0198 13.4659 19.0804 13.3743 19.1211 13.2735C19.1619 13.1726 19.1819 13.0646 19.18 12.9558C19.1781 12.847 19.1542 12.7398 19.11 12.6404C19.0657 12.5411 19.0019 12.4516 18.9223 12.3775L13.0723 6.52749C12.9204 6.37581 12.7145 6.29061 12.4999 6.29061C12.2852 6.29061 12.0794 6.37581 11.9275 6.52749L6.07749 12.3775Z" fill="#F864A1"/>
</svg>
