<svg width="22" height="22" viewBox="0 0 22 22" fill="none" xmlns="http://www.w3.org/2000/svg">
<g id="lucide:bell-ring" clip-path="url(#clip0_1144_559)">
<path id="Vector" d="M9.44134 19.2507C9.59477 19.5297 9.82034 19.7625 10.0945 19.9246C10.3686 20.0867 10.6812 20.1722 10.9997 20.1722C11.3181 20.1722 11.6308 20.0867 11.9049 19.9246C12.179 19.7625 12.4046 19.5297 12.558 19.2507M3.66634 1.83398C2.56634 3.39232 1.83301 5.22565 1.83301 7.33398M20.1663 7.33398C20.1663 5.22565 19.433 3.39232 18.333 1.83398M5.49967 7.33398C5.49967 5.87529 6.07914 4.47635 7.11059 3.4449C8.14204 2.41345 9.54098 1.83398 10.9997 1.83398C12.4584 1.83398 13.8573 2.41345 14.8888 3.4449C15.9202 4.47635 16.4997 5.87529 16.4997 7.33398C16.4997 13.7507 19.2497 15.584 19.2497 15.584H2.74967C2.74967 15.584 5.49967 13.7507 5.49967 7.33398Z" stroke="#959CA1" stroke-width="2" stroke-linecap="round" stroke-linejoin="round"/>
</g>
<defs>
<clipPath id="clip0_1144_559">
<rect width="22" height="22" fill="white"/>
</clipPath>
</defs>
</svg>
