<svg width="17" height="17" viewBox="0 0 17 17" fill="none" xmlns="http://www.w3.org/2000/svg">
<g id="bi:bookmark">
<path id="Vector" d="M2.125 2.125C2.125 1.56141 2.34888 1.02091 2.7474 0.622398C3.14591 0.223883 3.68641 0 4.25 0L12.75 0C13.3136 0 13.8541 0.223883 14.2526 0.622398C14.6511 1.02091 14.875 1.56141 14.875 2.125V16.4688C14.875 16.5648 14.8488 16.6591 14.7994 16.7416C14.75 16.824 14.6792 16.8915 14.5945 16.9368C14.5098 16.9822 14.4144 17.0037 14.3184 16.9991C14.2224 16.9945 14.1294 16.964 14.0494 16.9108L8.5 13.9198L2.95056 16.9108C2.87056 16.964 2.77762 16.9945 2.68163 16.9991C2.58565 17.0037 2.49022 16.9822 2.4055 16.9368C2.32078 16.8915 2.24995 16.824 2.20056 16.7416C2.15116 16.6591 2.12505 16.5648 2.125 16.4688V2.125ZM4.25 1.0625C3.96821 1.0625 3.69796 1.17444 3.4987 1.3737C3.29944 1.57296 3.1875 1.84321 3.1875 2.125V15.4764L8.20569 12.8392C8.29288 12.7812 8.39527 12.7503 8.5 12.7503C8.60473 12.7503 8.70712 12.7812 8.79431 12.8392L13.8125 15.4764V2.125C13.8125 1.84321 13.7006 1.57296 13.5013 1.3737C13.302 1.17444 13.0318 1.0625 12.75 1.0625H4.25Z" fill="#F864A1"/>
</g>
</svg>
