<svg width="30" height="27" viewBox="0 0 30 27" fill="none" xmlns="http://www.w3.org/2000/svg">
<g id="et:profile-male" clip-path="url(#clip0_1144_576)">
<path id="Vector" d="M0.67829 26.6621C0.783008 26.689 0.894261 26.6741 0.987934 26.6207C1.08161 26.5673 1.15015 26.4797 1.17871 26.3768C2.02092 23.2801 5.44373 22.4776 7.48956 21.9973C8.00225 21.8772 8.407 21.7821 8.67029 21.6701C11.0007 20.6734 11.7603 19.0698 11.9876 17.8998C12.0011 17.8302 11.9958 17.7583 11.9721 17.6914C11.9484 17.6245 11.9072 17.5649 11.8527 17.5187C10.6393 16.4864 9.61553 14.9369 8.96956 13.1544C8.95134 13.1033 8.92267 13.0564 8.88534 13.0166C8.03086 12.1013 7.54026 11.1335 7.54026 10.3623C7.54026 9.9119 7.71279 9.60973 8.10119 9.38168C8.15936 9.34741 8.20798 9.29942 8.24267 9.24203C8.27735 9.18464 8.29701 9.11965 8.29988 9.05292C8.48059 4.94817 11.4471 1.71691 15.0858 1.69596L15.1733 1.7016C18.83 1.75156 21.7777 5.05212 21.8832 9.21488C21.8847 9.27178 21.8984 9.32772 21.9235 9.37899C21.9486 9.43025 21.9845 9.47567 22.0287 9.51222C22.2847 9.72576 22.404 9.99651 22.404 10.364C22.404 11.0094 22.0549 11.8031 21.422 12.5976C21.3918 12.6359 21.3686 12.6789 21.3533 12.7249C20.6992 14.7685 19.525 16.5726 18.1333 17.6766C18.0756 17.7225 18.0317 17.7829 18.006 17.8514C17.9804 17.9199 17.9741 17.994 17.9878 18.0658C18.2151 19.235 18.9747 20.8377 21.3051 21.8361C21.5806 21.9538 22.0083 22.0456 22.5504 22.1609C24.5758 22.5928 27.9651 23.3172 28.7967 26.3768C28.8106 26.4279 28.8347 26.4758 28.8674 26.5178C28.9001 26.5597 28.941 26.5949 28.9875 26.6213C29.034 26.6478 29.0854 26.6649 29.1387 26.6717C29.1919 26.6786 29.246 26.675 29.2979 26.6613C29.3498 26.6475 29.3984 26.6238 29.4409 26.5916C29.4835 26.5593 29.5192 26.5191 29.546 26.4732C29.5728 26.4273 29.5902 26.3767 29.5971 26.3242C29.6041 26.2717 29.6005 26.2184 29.5865 26.1673C28.6258 22.6323 24.7859 21.8128 22.7238 21.3728C22.2454 21.2705 21.8325 21.1826 21.6313 21.0956C20.1104 20.4445 19.1734 19.4526 18.8422 18.1423C20.2544 16.9473 21.4359 15.1037 22.1113 13.036C22.8284 12.1174 23.2225 11.1714 23.2225 10.3631C23.2225 9.82407 23.0459 9.37443 22.6959 9.0231C22.5013 4.5074 19.2314 0.951402 15.1733 0.89419L15.0515 0.892578C11.0669 0.913529 7.78311 4.37605 7.4961 8.8136C6.98424 9.18426 6.72421 9.704 6.72421 10.364C6.72421 11.3172 7.27124 12.4574 8.22874 13.5034C8.89025 15.2946 9.91562 16.8684 11.1364 17.9699C10.8069 19.285 9.86901 20.2801 8.34485 20.932C8.14779 21.0166 7.75531 21.1093 7.30068 21.2157C5.22295 21.7024 1.35696 22.6089 0.388832 26.1689C0.360872 26.2721 0.375659 26.3821 0.429941 26.4746C0.484223 26.567 0.573554 26.6345 0.67829 26.6621Z" fill="white"/>
</g>
<defs>
<clipPath id="clip0_1144_576">
<rect width="29.4365" height="25.7856" fill="white" transform="translate(0.269531 0.890625)"/>
</clipPath>
</defs>
</svg>
