<svg width="19" height="20" viewBox="0 0 19 20" fill="none" xmlns="http://www.w3.org/2000/svg">
<g id="solar:bill-list-bold">
<path id="Vector" fill-rule="evenodd" clip-rule="evenodd" d="M6.12784 0.90918H13.7761C14.7082 0.90918 15.1738 0.90918 15.5502 1.04254C15.9051 1.17049 16.2262 1.37996 16.4886 1.65468C16.7509 1.92939 16.9475 2.26195 17.063 2.62651C17.1901 3.02086 17.1901 3.50849 17.1901 4.48456V15.9421C17.1901 16.6441 16.3979 17.0172 15.8969 16.5508C15.7563 16.4187 15.5719 16.3453 15.3805 16.3453C15.1891 16.3453 15.0048 16.4187 14.8642 16.5508L14.4758 16.9125C14.2295 17.1441 13.9064 17.2728 13.571 17.2728C13.2356 17.2728 12.9125 17.1441 12.6662 16.9125C12.42 16.6808 12.0969 16.5521 11.7615 16.5521C11.4261 16.5521 11.103 16.6808 10.8567 16.9125C10.6105 17.1441 10.2874 17.2728 9.95196 17.2728C9.61655 17.2728 9.29346 17.1441 9.0472 16.9125C8.80094 16.6808 8.47786 16.5521 8.14244 16.5521C7.80702 16.5521 7.48394 16.6808 7.23768 16.9125C6.99141 17.1441 6.66833 17.2728 6.33291 17.2728C5.9975 17.2728 5.67442 17.1441 5.42815 16.9125L5.03971 16.5508C4.89914 16.4187 4.71478 16.3453 4.52339 16.3453C4.332 16.3453 4.14764 16.4187 4.00707 16.5508C3.50604 17.0172 2.71387 16.6441 2.71387 15.9421V4.48456C2.71387 3.50849 2.71387 3.02004 2.84094 2.62732C3.08221 1.88034 3.64115 1.29453 4.3537 1.04254C4.73008 0.90918 5.19573 0.90918 6.12784 0.90918ZM5.9308 4.79546C5.77083 4.79546 5.61741 4.86011 5.50429 4.97518C5.39117 5.09026 5.32762 5.24634 5.32762 5.40908C5.32762 5.57182 5.39117 5.7279 5.50429 5.84298C5.61741 5.95805 5.77083 6.0227 5.9308 6.0227H6.33291C6.49289 6.0227 6.64631 5.95805 6.75942 5.84298C6.87254 5.7279 6.93609 5.57182 6.93609 5.40908C6.93609 5.24634 6.87254 5.09026 6.75942 4.97518C6.64631 4.86011 6.49289 4.79546 6.33291 4.79546H5.9308ZM8.74561 4.79546C8.58564 4.79546 8.43222 4.86011 8.3191 4.97518C8.20599 5.09026 8.14244 5.24634 8.14244 5.40908C8.14244 5.57182 8.20599 5.7279 8.3191 5.84298C8.43222 5.95805 8.58564 6.0227 8.74561 6.0227H13.9731C14.1331 6.0227 14.2865 5.95805 14.3996 5.84298C14.5128 5.7279 14.5763 5.57182 14.5763 5.40908C14.5763 5.24634 14.5128 5.09026 14.3996 4.97518C14.2865 4.86011 14.1331 4.79546 13.9731 4.79546H8.74561ZM5.9308 7.65903C5.77083 7.65903 5.61741 7.72368 5.50429 7.83876C5.39117 7.95384 5.32762 8.10991 5.32762 8.27266C5.32762 8.4354 5.39117 8.59148 5.50429 8.70655C5.61741 8.82163 5.77083 8.88628 5.9308 8.88628H6.33291C6.49289 8.88628 6.64631 8.82163 6.75942 8.70655C6.87254 8.59148 6.93609 8.4354 6.93609 8.27266C6.93609 8.10991 6.87254 7.95384 6.75942 7.83876C6.64631 7.72368 6.49289 7.65903 6.33291 7.65903H5.9308ZM8.74561 7.65903C8.58564 7.65903 8.43222 7.72368 8.3191 7.83876C8.20599 7.95384 8.14244 8.10991 8.14244 8.27266C8.14244 8.4354 8.20599 8.59148 8.3191 8.70655C8.43222 8.82163 8.58564 8.88628 8.74561 8.88628H13.9731C14.1331 8.88628 14.2865 8.82163 14.3996 8.70655C14.5128 8.59148 14.5763 8.4354 14.5763 8.27266C14.5763 8.10991 14.5128 7.95384 14.3996 7.83876C14.2865 7.72368 14.1331 7.65903 13.9731 7.65903H8.74561ZM5.9308 10.5226C5.77083 10.5226 5.61741 10.5873 5.50429 10.7023C5.39117 10.8174 5.32762 10.9735 5.32762 11.1362C5.32762 11.299 5.39117 11.455 5.50429 11.5701C5.61741 11.6852 5.77083 11.7499 5.9308 11.7499H6.33291C6.49289 11.7499 6.64631 11.6852 6.75942 11.5701C6.87254 11.455 6.93609 11.299 6.93609 11.1362C6.93609 10.9735 6.87254 10.8174 6.75942 10.7023C6.64631 10.5873 6.49289 10.5226 6.33291 10.5226H5.9308ZM8.74561 10.5226C8.58564 10.5226 8.43222 10.5873 8.3191 10.7023C8.20599 10.8174 8.14244 10.9735 8.14244 11.1362C8.14244 11.299 8.20599 11.455 8.3191 11.5701C8.43222 11.6852 8.58564 11.7499 8.74561 11.7499H13.9731C14.1331 11.7499 14.2865 11.6852 14.3996 11.5701C14.5128 11.455 14.5763 11.299 14.5763 11.1362C14.5763 10.9735 14.5128 10.8174 14.3996 10.7023C14.2865 10.5873 14.1331 10.5226 13.9731 10.5226H8.74561Z" fill="#2CAECE"/>
</g>
</svg>
