<svg width="17" height="17" viewBox="0 0 17 17" fill="none" xmlns="http://www.w3.org/2000/svg">
<g id="basil:location-outline">
<g id="Group">
<path id="Vector" fill-rule="evenodd" clip-rule="evenodd" d="M4.58594 7.08236C4.58594 6.19001 4.93048 5.33422 5.54376 4.70324C6.15705 4.07226 6.98884 3.71777 7.85615 3.71777C8.72347 3.71777 9.55526 4.07226 10.1685 4.70324C10.7818 5.33422 11.1264 6.19001 11.1264 7.08236C11.1264 7.9747 10.7818 8.83049 10.1685 9.46148C9.55526 10.0925 8.72347 10.4469 7.85615 10.4469C6.98884 10.4469 6.15705 10.0925 5.54376 9.46148C4.93048 8.83049 4.58594 7.9747 4.58594 7.08236ZM7.85615 4.78027C7.26273 4.78027 6.69361 5.02281 6.27399 5.45454C5.85438 5.88626 5.61864 6.47181 5.61864 7.08236C5.61864 7.69291 5.85438 8.27845 6.27399 8.71018C6.69361 9.1419 7.26273 9.38444 7.85615 9.38444C8.44958 9.38444 9.0187 9.1419 9.43832 8.71018C9.85793 8.27845 10.0937 7.69291 10.0937 7.08236C10.0937 6.47181 9.85793 5.88626 9.43832 5.45454C9.0187 5.02281 8.44958 4.78027 7.85615 4.78027Z" fill="#00D179"/>
<path id="Vector_2" fill-rule="evenodd" clip-rule="evenodd" d="M2.02082 6.27306C2.13849 4.80454 2.78861 3.43525 3.84209 2.43706C4.89558 1.43886 6.27538 0.884761 7.70755 0.884766H8.00497C9.43714 0.884761 10.8169 1.43886 11.8704 2.43706C12.9239 3.43525 13.574 4.80454 13.6917 6.27306C13.8226 7.9088 13.3315 9.53299 12.3217 10.8036L9.02183 14.9551C8.88061 15.1328 8.70279 15.2759 8.50121 15.3743C8.29963 15.4726 8.07934 15.5236 7.85626 15.5236C7.63318 15.5236 7.41288 15.4726 7.21131 15.3743C7.00973 15.2759 6.8319 15.1328 6.69068 14.9551L3.39086 10.8036C2.38096 9.53303 1.88979 7.90881 2.02082 6.27306ZM7.70755 1.94727C6.53473 1.94745 5.40486 2.40133 4.5422 3.21881C3.67954 4.03629 3.14717 5.15761 3.05076 6.36018C2.94171 7.7215 3.35044 9.07323 4.19086 10.1306L7.49068 14.2829C7.53504 14.3387 7.59092 14.3838 7.65426 14.4147C7.71761 14.4456 7.78684 14.4616 7.85695 14.4616C7.92705 14.4616 7.99629 14.4456 8.05963 14.4147C8.12298 14.3838 8.17885 14.3387 8.22321 14.2829L11.523 10.1306C12.363 9.07302 12.7712 7.72131 12.6618 6.36018C12.5653 5.15749 12.0329 4.03607 11.1701 3.21857C10.3073 2.40107 9.17721 1.94727 8.00428 1.94727H7.70686H7.70755Z" fill="#00D179"/>
</g>
</g>
</svg>
