<svg width="6" height="10" viewBox="0 0 6 10" fill="none" xmlns="http://www.w3.org/2000/svg">
<path id="Vector" fill-rule="evenodd" clip-rule="evenodd" d="M5.12252 4.28983C5.25271 4.42532 5.32585 4.60905 5.32585 4.80063C5.32585 4.99221 5.25271 5.17595 5.12252 5.31143L1.19397 9.39857C1.12991 9.46758 1.05328 9.52262 0.968556 9.56048C0.883829 9.59835 0.792702 9.61828 0.700493 9.61911C0.608283 9.61995 0.516837 9.60167 0.431491 9.56534C0.346144 9.52901 0.268606 9.47536 0.203402 9.40753C0.138197 9.33969 0.0866317 9.25902 0.0517137 9.17023C0.0167957 9.08144 -0.000775084 8.9863 2.61888e-05 8.89037C0.000827462 8.79444 0.019985 8.69963 0.0563808 8.61149C0.0927767 8.52334 0.145682 8.44362 0.21201 8.37697L3.64958 4.80063L0.212009 1.2243C0.0855081 1.08803 0.0155107 0.905532 0.017093 0.716097C0.0186752 0.526662 0.0917105 0.345451 0.220469 0.211495C0.349227 0.0775394 0.523406 0.00155542 0.70549 -9.06299e-05C0.887575 -0.00173668 1.063 0.0710859 1.19397 0.202694L5.12252 4.28983Z" fill="#F864A1"/>
</svg>
