<svg width="28" height="28" viewBox="0 0 28 28" fill="none" xmlns="http://www.w3.org/2000/svg">
<g id="solar:share-outline" clip-path="url(#clip0_1144_562)">
<path id="Vector" fill-rule="evenodd" clip-rule="evenodd" d="M19.2498 2.625C18.6951 2.62481 18.1471 2.74636 17.6444 2.98105C17.1418 3.21575 16.6967 3.55789 16.3407 3.98332C15.9847 4.40876 15.7264 4.90713 15.584 5.44328C15.4416 5.97944 15.4185 6.54031 15.5165 7.08633L9.99817 10.9503C9.97058 10.9694 9.94409 10.9901 9.91884 11.0122C9.359 10.5745 8.68744 10.303 7.98075 10.2286C7.27406 10.1542 6.56068 10.2798 5.92196 10.5913C5.28323 10.9027 4.74488 11.3873 4.36828 11.9899C3.99168 12.5925 3.79199 13.2888 3.79199 13.9994C3.79199 14.71 3.99168 15.4063 4.36828 16.0089C4.74488 16.6115 5.28323 17.0961 5.92196 17.4076C6.56068 17.719 7.27406 17.8447 7.98075 17.7702C8.68744 17.6958 9.359 17.4243 9.91884 16.9867C9.94405 17.0092 9.97054 17.0302 9.99817 17.0497L15.5165 20.9137C15.3527 21.8269 15.5294 22.7685 16.0131 23.5602C16.4969 24.3518 17.2541 24.9387 18.1415 25.2096C19.0288 25.4805 19.9847 25.4167 20.8282 25.0301C21.6716 24.6436 22.3441 23.9613 22.7183 23.1123C23.0924 22.2633 23.1423 21.3066 22.8585 20.4233C22.5747 19.54 21.9768 18.7914 21.1782 18.3192C20.3795 17.847 19.4355 17.6841 18.5247 17.8612C17.614 18.0384 16.7998 18.5433 16.2363 19.2803L11.0108 15.6228C11.2442 15.1305 11.3748 14.581 11.3748 14C11.3748 13.419 11.2442 12.8683 11.0108 12.3772L16.2375 8.7185C16.629 9.23098 17.1448 9.63513 17.736 9.89273C18.3273 10.1503 18.9744 10.2529 19.6163 10.1906C20.2583 10.1284 20.8737 9.9035 21.4044 9.53715C21.9352 9.17079 22.3637 8.67511 22.6495 8.09698C22.9353 7.51884 23.069 6.87737 23.0378 6.2332C23.0065 5.58904 22.8116 4.96348 22.4712 4.41568C22.1309 3.86788 21.6564 3.41594 21.0927 3.1026C20.529 2.78927 19.8948 2.62488 19.2498 2.625ZM17.2082 6.41667C17.2082 5.87518 17.4233 5.35588 17.8062 4.97299C18.189 4.5901 18.7084 4.375 19.2498 4.375C19.7913 4.375 20.3106 4.5901 20.6935 4.97299C21.0764 5.35588 21.2915 5.87518 21.2915 6.41667C21.2915 6.95815 21.0764 7.47746 20.6935 7.86034C20.3106 8.24323 19.7913 8.45833 19.2498 8.45833C18.7084 8.45833 18.189 8.24323 17.8062 7.86034C17.4233 7.47746 17.2082 6.95815 17.2082 6.41667ZM7.58317 11.9583C7.04169 11.9583 6.52238 12.1734 6.1395 12.5563C5.75661 12.9392 5.54151 13.4585 5.54151 14C5.54151 14.5415 5.75661 15.0608 6.1395 15.4437C6.52238 15.8266 7.04169 16.0417 7.58317 16.0417C8.12466 16.0417 8.64396 15.8266 9.02685 15.4437C9.40974 15.0608 9.62484 14.5415 9.62484 14C9.62484 13.4585 9.40974 12.9392 9.02685 12.5563C8.64396 12.1734 8.12466 11.9583 7.58317 11.9583ZM19.2498 19.5417C18.7084 19.5417 18.189 19.7568 17.8062 20.1397C17.4233 20.5225 17.2082 21.0418 17.2082 21.5833C17.2082 22.1248 17.4233 22.6441 17.8062 23.027C18.189 23.4099 18.7084 23.625 19.2498 23.625C19.7913 23.625 20.3106 23.4099 20.6935 23.027C21.0764 22.6441 21.2915 22.1248 21.2915 21.5833C21.2915 21.0418 21.0764 20.5225 20.6935 20.1397C20.3106 19.7568 19.7913 19.5417 19.2498 19.5417Z" fill="#959CA1"/>
</g>
<defs>
<clipPath id="clip0_1144_562">
<rect width="28" height="28" fill="white"/>
</clipPath>
</defs>
</svg>
