<svg width="26" height="29" viewBox="0 0 26 29" fill="none" xmlns="http://www.w3.org/2000/svg">
<g id="Group 17">
<path id="Path 2" opacity="0.3" d="M16.726 21.399C16.0913 20.7644 16.0913 19.7356 16.726 19.101C17.3606 18.4663 18.3894 18.4663 19.024 19.101L25.524 25.6009C26.1586 26.2355 26.1586 27.2644 25.524 27.899C24.8894 28.5336 23.8605 28.5336 23.2259 27.899L16.726 21.399Z" fill="black"/>
<path id="Path" fill-rule="evenodd" clip-rule="evenodd" d="M0 12.125C0 18.4072 5.09276 23.5 11.375 23.5C17.6572 23.5 22.75 18.4072 22.75 12.125C22.75 5.84276 17.6572 0.75 11.375 0.75C5.09276 0.75 0 5.84276 0 12.125ZM19.5 12.125C19.5 16.6123 15.8623 20.25 11.375 20.25C6.88769 20.25 3.25001 16.6123 3.25001 12.125C3.25001 7.63767 6.88769 3.99998 11.375 3.99998C15.8623 3.99998 19.5 7.63767 19.5 12.125Z" fill="black"/>
</g>
</svg>
