<svg width="14" height="14" viewBox="0 0 14 14" fill="none" xmlns="http://www.w3.org/2000/svg">
<g id="simple-line-icons:calender" clip-path="url(#clip0_690_367)">
<path id="Vector" d="M0.84925 1.58963L4.24659 1.58964V0.774325C4.24659 0.548303 4.43646 0.365234 4.67088 0.365234C4.90531 0.365234 5.09518 0.548303 5.09518 0.774325V1.58944H8.48954V0.774325C8.48954 0.548303 8.67942 0.365234 8.91384 0.365234C9.14826 0.365234 9.33814 0.548303 9.33814 0.774325V1.58944H12.7295C13.1982 1.58944 13.5781 1.95578 13.5781 2.40762V12.6349C13.5781 13.0867 13.1982 13.4531 12.7295 13.4531H0.84925C0.380615 13.4531 0.000658035 13.0867 0.000658035 12.6349V2.40762C0.000658035 1.95597 0.380615 1.58963 0.84925 1.58963ZM0.84925 12.6349H12.7295V2.40762H9.33814V2.81978C9.33814 3.04579 9.14826 3.22887 8.91384 3.22887C8.67942 3.22887 8.48954 3.04579 8.48954 2.81978V2.40783H5.09518V2.81998C5.09518 3.04601 4.90531 3.22908 4.67088 3.22908C4.43646 3.22908 4.24659 3.04601 4.24659 2.81998V2.40783H0.84925V12.6349ZM3.81932 6.90781H2.97073C2.73652 6.90781 2.54643 6.72454 2.54643 6.49872V5.68054C2.54643 5.45472 2.73652 5.27145 2.97073 5.27145H3.81932C4.05353 5.27145 4.24362 5.45472 4.24362 5.68054V6.49872C4.24362 6.72454 4.05353 6.90781 3.81932 6.90781ZM3.81932 10.1803H2.97073C2.73652 10.1803 2.54643 9.99727 2.54643 9.77125V8.95306C2.54643 8.72725 2.73652 8.54397 2.97073 8.54397H3.81932C4.05353 8.54397 4.24362 8.72725 4.24362 8.95306V9.77125C4.24362 9.99747 4.05353 10.1803 3.81932 10.1803ZM6.3651 8.54397H7.21369C7.4479 8.54397 7.63798 8.72725 7.63798 8.95306V9.77125C7.63798 9.99727 7.4479 10.1803 7.21369 10.1803H6.3651C6.13088 10.1803 5.9408 9.99727 5.9408 9.77125V8.95306C5.9408 8.72745 6.13088 8.54397 6.3651 8.54397ZM6.3651 5.27145H7.21369C7.4479 5.27145 7.63798 5.45472 7.63798 5.68054V6.49872C7.63798 6.72454 7.4479 6.90781 7.21369 6.90781H6.3651C6.13088 6.90781 5.9408 6.72454 5.9408 6.49872V5.68054C5.9408 5.45452 6.13088 5.27145 6.3651 5.27145ZM9.75946 5.27145H10.6081C10.8423 5.27145 11.0324 5.45472 11.0324 5.68054V6.49872C11.0324 6.72454 10.8423 6.90781 10.6081 6.90781H9.75946C9.52525 6.90781 9.33517 6.72454 9.33517 6.49872V5.68054C9.33517 5.45452 9.52525 5.27145 9.75946 5.27145ZM9.75946 8.54397H10.6081C10.8423 8.54397 11.0324 8.72725 11.0324 8.95306V9.77125C11.0324 9.99727 10.8423 10.1803 10.6081 10.1803H9.75946C9.52525 10.1803 9.33517 9.99727 9.33517 9.77125V8.95306C9.33517 8.72745 9.52525 8.54397 9.75946 8.54397Z" fill="#757575"/>
</g>
<defs>
<clipPath id="clip0_690_367">
<rect width="13.5775" height="13.0909" fill="white" transform="matrix(-1 0 0 1 13.5781 0.363281)"/>
</clipPath>
</defs>
</svg>
